<?xml version="1.0" encoding="utf-8"?>
<!-- Generator: Adobe Illustrator 22.1.0, SVG Export Plug-In . SVG Version: 6.00 Build 0)  -->
<!DOCTYPE svg PUBLIC "-//W3C//DTD SVG 1.1//EN" "http://www.w3.org/Graphics/SVG/1.1/DTD/svg11.dtd" [
	<!ENTITY st0 "fill-rule:evenodd;clip-rule:evenodd;fill:#363636;">
	<!ENTITY st1 "fill-rule:evenodd;clip-rule:evenodd;fill:#F9A61C;">
]>
<svg version="1.1" id="Layer_1" xmlns="http://www.w3.org/2000/svg" xmlns:xlink="http://www.w3.org/1999/xlink" x="0px" y="0px"
	 viewBox="0 0 223.8 180.9" style="enable-background:new 0 0 223.8 180.9;" xml:space="preserve">
<path style="&st0;" d="M36.4,146.1c1.1,1.1,2.5,1.8,3.8,1.8c2.6,0,4-1.8,4-4c0-3.3-2.8-6.5-7.7-6.8c0.8-1.6,2.2-2.1,3.6-2.1
	c0.2,0,1.2,0.2,1.3,0.2c0.5,0,0.8-0.3,0.8-0.8c0-1-1.4-1-2.2-1c-2.4,0-4.6,1.3-5.6,3.8c-6.4,0.7-10.8,6.4-10.8,13.1
	c0,6.6,4,11.5,10.7,11.5c6.4,0,9.1-4,9.1-4.6c0-0.5-0.4-0.9-0.8-0.9c-0.3,0-0.6,0.2-0.7,0.4c-1.5,2.2-4.1,3.5-7.6,3.5
	c-5.8,0-9.1-4.4-9.1-9.9c0-5.4,3.3-10.4,8.7-11.4c0,0.3-0.1,0.6-0.1,1C34,142.3,34.8,144.6,36.4,146.1L36.4,146.1z M40.2,146.2
	c-1.8,0-4.4-2.2-4.4-6.4c0-0.4,0-0.8,0.1-1.1c4.2,0.1,6.6,2.6,6.6,5.2C42.4,144.6,42.2,146.2,40.2,146.2L40.2,146.2z M48.7,159.6
	c0.9-4.9,1.6-9.6,5.6-9.8c0.5,0,0.8-0.3,0.8-0.8c0-0.5-0.4-0.8-0.9-0.8c-1.9,0-4,1.2-4.8,3.7c0.1-1.9-1-3.2-1.7-3.2
	c-0.4,0-0.8,0.4-0.8,0.8c0,0.2,0,0.5,0.2,0.6c0.5,0.5,0.8,1.2,0.8,2.8c0,1.3-1.1,7.6-1.1,7.8c0,0.5,0.3,0.8,0.8,0.8
	c0.4,0,0.8-0.3,0.8-0.7L48.7,159.6L48.7,159.6z M59.7,154.1c-0.5,0-0.8,0.4-0.8,0.8c0,0.5,0.4,0.8,0.8,0.8c2.3,0,5.4-1.5,5.4-4.5
	c0-1.5-0.9-3-3.2-3c-3,0-6.4,3.4-6.4,8.2c0,3.3,1.9,5.2,4.8,5.2c2.3,0,4.2-1.5,4.2-2.3c0-0.5-0.3-0.9-0.8-0.9
	c-0.3,0-0.5,0.1-0.6,0.3c-0.7,0.8-1.7,1.3-2.7,1.3c-2.8,0-3.2-2.3-3.2-3.6c0-4.1,2.7-6.6,4.6-6.6c1,0,1.5,0.5,1.5,1.3
	C63.4,152.9,61.5,154,59.7,154.1L59.7,154.1z M73.9,148c-4.2,0-7,5.6-7,9.5c0,2.9,1.6,4,3.1,4c2.8,0,4-2.6,4-3.2
	c0-0.5-0.3-0.8-0.8-0.8c-0.3,0-0.6,0.2-0.7,0.5c-0.4,1-1.2,2-2.2,2c-1,0-1.6-1-1.6-2.4c0-3.5,2.2-7.9,5.1-7.9c1,0,2,0.7,2,2.5
	c0,1.3-0.3,2.8-0.5,4.3c-0.2,1.4-0.4,2.5-0.4,3.3c0,0.8,0.2,1.8,1.1,1.8c0.5,0,0.9-0.4,0.9-0.8c0-0.2-0.1-0.3-0.2-0.5
	c0-0.1-0.1-0.3-0.1-0.5c0-0.8,0.2-2.1,0.4-3.1c0.3-1.5,0.5-3.1,0.5-4.6C77.4,149.4,76.1,148,73.9,148L73.9,148z M85.3,160.8
	c0-0.4-0.3-0.8-0.8-0.8c-0.4-0.1-1.5-0.3-1.5-3.3c0-2,0.3-4.4,1-6.8c0.7,0,2,0.1,2.8,0.1c0.4,0,0.7-0.3,0.7-0.8
	c0-0.4-0.4-0.7-0.8-0.8c-1,0-1.8-0.1-2.3-0.1c0.2-0.8,0.7-2.9,1.1-4c0-0.1,0.1-0.3,0.1-0.4c0-0.5-0.4-0.8-0.9-0.8
	c-0.3,0-0.7,0.3-0.8,0.6c-0.4,1.5-0.9,3.3-1.2,4.6c-1.4,0-3,0.1-3,1.2c0,0.4,0.3,0.7,0.5,0.7c0.5,0,1-0.2,2.1-0.2
	c-0.7,2.9-1,5.1-1,6.9c0,3,0.9,4.5,2.8,4.8c0,0,0.2,0,0.3,0C85,161.6,85.3,161.2,85.3,160.8L85.3,160.8z M92.3,143.8l-1.2-1.3
	l0.2,1.8l-1.9,1.1l1.9,0.2l0,2.2l1.1-2.1l2.8,0.5l-2.3-1.5l1.5-1.1L92.3,143.8L92.3,143.8z M92,148.6c-0.5-0.1-1,0.2-1,0.6
	c-1.2,4.6-1.7,11.2-1.7,11.7c0,0.5,0.4,0.9,0.9,0.9c0.5,0,0.8-0.3,0.8-0.8c0.2-3.6,1-8.6,1.6-11.4c0-0.1,0-0.2,0-0.2
	C92.7,149,92.4,148.7,92,148.6L92,148.6z M97.7,149.8c0.1-0.4-0.4-0.8-0.9-0.8c-0.3,0-0.7,0.3-0.8,0.7c-0.2,1.2-0.5,4.1-0.5,5.9
	c0,2.7,0.5,5.9,2.5,5.9c2.8,0,6.7-7.3,7.2-12.5v-0.1c0-0.4-0.3-0.8-0.8-0.8c-0.5-0.1-0.9,0.3-1,0.8c-0.6,5.5-4.3,11-5.4,11
	c-0.4,0-0.9-1.4-0.9-4.3c0-1.9,0.3-4.6,0.4-5.4L97.7,149.8L97.7,149.8z M111,154.1c-0.5,0-0.8,0.4-0.8,0.8c0,0.5,0.4,0.8,0.8,0.8
	c2.3,0,5.4-1.5,5.4-4.5c0-1.5-0.9-3-3.2-3c-3,0-6.4,3.4-6.4,8.2c0,3.3,1.9,5.2,4.8,5.2c2.3,0,4.2-1.5,4.2-2.3c0-0.5-0.3-0.9-0.8-0.9
	c-0.3,0-0.5,0.1-0.6,0.3c-0.7,0.8-1.7,1.3-2.7,1.3c-2.8,0-3.2-2.3-3.2-3.6c0-4.1,2.7-6.6,4.6-6.6c1,0,1.5,0.5,1.5,1.3
	C114.7,152.9,112.8,154,111,154.1L111,154.1z M133.8,161.8c7.2,0,12-8.1,12-14.6c0-5.2-2.9-10.3-11.6-10.3c-5.6,0-9.7,3.1-9.7,7.1
	c0,2.8,1.8,4.6,4.6,5.1c-0.2,0.8-0.3,2.3-0.3,3.8C128.8,156.8,129.3,161.8,133.8,161.8L133.8,161.8z M133.9,160.3
	c-2.6,0-3.4-3-3.4-7.4c0-1.4,0.1-2.8,0.3-3.6c4.7-0.1,6.3-2.6,6.3-4.1c0-0.5-0.4-0.8-0.8-0.8c-0.5,0-0.8,0.3-0.9,0.8
	c-0.1,1.3-1.6,2.5-4.4,2.6c0.3-2.5,0.8-4.7,1.1-5.7c0-0.1,0-0.2,0-0.3c0-0.5-0.4-0.8-0.8-0.8c-0.3,0-0.7,0.2-0.8,0.6
	c-0.3,1.1-0.8,3.3-1.2,6.1c-1.4-0.3-3-1.3-3-3.6c0-2.8,3.1-5.5,7.8-5.5c8.6,0,10,5.4,10,8.7C144.1,152.6,140.1,160.3,133.9,160.3
	L133.9,160.3z M151.2,154.1c-0.5,0-0.8,0.4-0.8,0.8c0,0.5,0.4,0.8,0.8,0.8c2.3,0,5.4-1.5,5.4-4.5c0-1.5-0.9-3-3.2-3
	c-3,0-6.4,3.4-6.4,8.2c0,3.3,1.9,5.2,4.8,5.2c2.3,0,4.2-1.5,4.2-2.3c0-0.5-0.3-0.9-0.8-0.9c-0.3,0-0.5,0.1-0.6,0.3
	c-0.7,0.8-1.7,1.3-2.7,1.3c-2.8,0-3.2-2.3-3.2-3.6c0-4.1,2.7-6.6,4.6-6.6c1,0,1.5,0.5,1.5,1.3C154.9,152.9,153,154,151.2,154.1
	L151.2,154.1z M160.6,155.9c-1.5,0-2.6,1.2-2.6,2.8c0,1.9,2,3.2,4.2,3.2c2.9,0,4.6-1.8,4.6-4.1c0-2-1.3-3.1-3.1-4.2
	c-1.5-0.9-1.9-1.4-1.9-2.1c0-1,0.7-1.8,1.9-1.8c1,0,1.5,0.8,1.6,1.2c0.1,0.3,0.5,0.5,0.7,0.5c0.5,0,0.9-0.4,0.9-0.9
	c0-0.7-0.9-2.3-3.2-2.3c-2.4,0-3.6,1.6-3.6,3.2c0,1.9,1.6,3,2.8,3.6c1.7,0.9,2.2,2,2.2,2.9c0,1.7-1.5,2.5-2.8,2.5
	c-1.4,0-2.5-0.9-2.5-1.8c0-0.5,0.2-1.1,0.9-1.1c0.3,0,0.4,0.1,0.6,0.1c0.2,0,0.8-0.1,0.8-0.7C162,156.1,161.3,155.9,160.6,155.9
	L160.6,155.9z M172.6,143.8l-1.2-1.3l0.2,1.8l-1.9,1.1l1.9,0.2l0,2.2l1.1-2.1l2.8,0.5l-2.3-1.5l1.5-1.1L172.6,143.8L172.6,143.8z
	 M172.4,148.6c-0.5-0.1-1,0.2-1,0.6c-1.2,4.6-1.7,11.2-1.7,11.7c0,0.5,0.4,0.9,0.9,0.9c0.5,0,0.8-0.3,0.8-0.8
	c0.2-3.6,1-8.6,1.6-11.4c0-0.1,0-0.2,0-0.2C173,149,172.7,148.7,172.4,148.6L172.4,148.6z M181.7,149.8c-2.6,0-4.5,3.8-4.5,6.9
	c0,1.3,0.3,2.3,0.9,2.8c0.5,0.5,1.3,0.7,2.1,0.7c-0.3-0.5-0.4-1.2-0.4-1.8c0-1.8,1.1-3.6,2.9-3.6c1.4,0,2.2,1.2,2.2,2.6
	c0,1.4-0.8,2.9-2.5,3.8c0.3,0.4,0.7,0.8,1,1.1c1.2,1.1,2,2.6,2,4.1c0,4.3-4,6.8-7.9,6.8c-3.5,0-5.9-1.6-5.9-4.6
	c0-2.4,1.8-4.2,4.1-4.2c1.4,0,2.4,0.7,2.4,1.7c0,0.5-0.3,0.8-0.8,0.8c-0.2,0-0.5-0.1-0.7-0.3c-0.3-0.4-0.7-0.6-1-0.6
	c-1.3,0-2.3,1.1-2.3,2.6c0,2,1.6,3,4.1,3c2.7,0,6.2-1.8,6.2-5.3c0-1.2-0.5-2.1-1.5-3c-0.7-0.7-1-1.1-1.4-1.7c-0.2,0-0.3,0.1-0.5,0.1
	c-0.2,0-0.4,0-0.5,0c-2.6,0-4.4-1.9-4.4-5.1c0-4,2.6-8.5,6.3-8.5c2.6,0,4,2.1,4,5.1c0,0.5-0.4,0.9-0.9,0.9c-0.5,0-0.8-0.4-0.8-0.9
	C184,152.1,183.5,149.8,181.7,149.8L181.7,149.8z M181.4,158.5c0,0.4,0.1,1,0.3,1.4c1-0.5,1.6-1.6,1.6-2.5c0-0.4-0.2-1-0.7-1
	C182.1,156.4,181.4,157.4,181.4,158.5L181.4,158.5z M195.3,148.3c-1.7,0-3.2,1.2-4.3,3.6c0.2-2.3-0.9-3.7-1.6-3.7
	c-0.5,0-0.8,0.4-0.8,0.8c0,0.2,0.1,0.4,0.2,0.6c0.5,0.5,0.7,1.2,0.7,2.3c0,1.3-0.4,3-0.8,4.7c-0.2,0.6-0.8,3.4-0.8,3.9
	c0,0.5,0.3,0.9,0.8,0.9c0.4,0,0.7-0.3,0.8-0.7c1.2-6.3,3.7-10.7,5.8-10.7c1,0,1.4,1.5,1.4,3.5c0,2.5-0.5,5.4-0.8,6.8
	c0,0.1,0,0.1,0,0.2c0,0.5,0.4,0.9,0.9,0.9c0.1,0,0.7,0,0.8-0.8c0.3-1.3,0.9-4.3,0.9-7C198.3,148.9,196.2,148.3,195.3,148.3z"/>
<g>
	<path style="&st1;" d="M193.2,75.3c-4.6-1.2-11.3,1.1-12.5,0.5c-0.9-0.5,1.1-1.5,1.1-1.5c0-0.4-6.2,2.3-6.8,0
		c-0.1-0.4-3.2,0.2-4.5-0.2c-2.8-0.8-12.3,1-14.6,1.9c-2.7,1.1-3.9,1.3-3.7,0.9c0.7-1.2,7.5-6.8,8-7.2c3.2-2.6,1.3-0.9,5.3-2.2
		c9.4-2.9,8.6-2.2,13.2-4.9c1.8-1,3.5,10.2,3.7,11.9c0.2,1.9,0.9-2.4,1.3-3.7c0.7-2.5,0.7-5.5,0.1-8c-0.1-1.4-1.4-5.6-3-6
		c-3.5-1-5.4,0.6-8.1,2.1c-1.5,0.8-3.9,3.7-4,3.7c-0.3,0.2-4.2-3.2-10.5,3.1c-0.1,0.1-2.8-0.3-3.5,0.2c1.4-1.4,5.4-8.6,6.6-10.8
		c0.2-0.5-4,2.2-6.9,4.5c-2.2,1.6-7.7,6.1-9.9,4.3c-2.1-1.7-4.5-3.6-7.7-5.5c-3.2-1.9-3-1.8-3-1.9c-0.3-5.1-4.7-4-5.6-1.7
		c-0.2,0.5-0.2,0.5-0.2,0.5c-2.9-2.9-29.5-3.2-33.5-1.3c-0.1,0.1-0.2,0-0.2-0.2c-0.4-2.8-6.5-2.7-6.7,1.8c0,0.1,0,0.6-3.2,2.5
		c-3.2,1.9-6,4.3-8,6.1c-0.4,0.3-0.8,0.5-1.3,0.5c-3.4-0.3-16.3-11.4-16-10.2c1.1,5.2,3.4,6.4,6.7,10.5c0.5,0.6,0.9,1.1,1.3,1.5
		c-0.9-0.4-1.6-0.7-1.7-0.8c-0.7-0.5-2.8-0.1-2.8-0.1c-6.3-6.3-10.3-2.9-10.5-3.1c-0.1,0-2.4-2.9-4-3.7c-2.8-1.5-4.7-3.1-8.1-2.1
		c-1.6,0.4-2.9,4.6-3,6c-0.6,2.5-0.5,5.5,0.1,8c0.4,1.3,1.1,5.6,1.3,3.7c0.2-1.7,1.9-12.9,3.7-11.9c4.6,2.6,3.8,1.9,13.2,4.8
		c4,1.3,2.1-0.4,5.3,2.1c0.6,0.5,7.4,6,8,7.2c0.2,0.4-1,0.2-3.7-0.9C62.7,75,53.2,73.2,50.4,74c-1.3,0.4-4.4-0.3-4.5,0.2
		c-0.5,2.3-6.8-0.4-6.8,0c0,0,2,1.1,1.1,1.5c-1.2,0.6-7.9-1.7-12.5-0.4c-2.1,0.5-1.3,17.3,2.1,19.6c0.1-2.3-0.1-5.3,0.2-7.8
		c0.8-7.4,1.6-5.6,6.9-6.2c0.4-0.1,2.5,14.5,6.1,11.2c1.3-1.2,3,1.1,3.1,1.5c0.7,1.9,8,11.4,9,12.3c-1.8,1.5-4.6,6.4-5.3,8.7
		c-1.3,4.4-1.2,4.2,0.3,7.5c3.5,7.8,9.3,11.7,15.3,15.9c0.1,0.1,2,0.8,1.3,0.3c-0.1,0-1.3-1.6-0.8-1.6c0.5,0-2.6-2.1-1.4-2.3
		c0.7-0.1-3.3-3-3.2-3c0.4-0.5,1.8-0.1-0.4-1.6c-0.5-0.3-1.5-0.6-0.7-1c0.5-0.3,1.7,0.5,0.4-0.6c-0.5-0.4-2-1.2-2.5-1.8
		c-0.2-0.2,1.3-0.3,1-0.5c-1.1-0.6-0.7-0.1-1.7-2.3c-0.6-1.2-2.8-2.3-0.9-2.6c0.4-0.1-1.7-2.7,1.5-0.6c0.7,0.4-0.6-3.7,1.2-3.2
		c0.4,0.1-0.9-1.7-0.4-2.2c0.5-0.5,1.6-0.1,1.6-0.1c-0.6-4.8,0.3-3.1,3.5,0.3c5,5.3,27.9,21.7,33.3,17.2c0.9-0.8-1.2,0.6-2.6-0.4
		c-1.1-0.8-0.2,0.4-1.6-1.1c-0.8-0.9-1.4,0.3-2.2-2.4c-0.6-2.2-2.4-0.5-4.1-2.1c-2.1-1.9-1.6-2.6-2.1-3.3c-0.6-1-1.8-0.2-2.8-1.3
		c-1-1.1-0.5-2.9-2.8-3.5c-0.3-0.1-1-1.5-1.4-1.5c-1.3-0.3,0-1.6-0.1-1.7c-1.4-6.5,3.7-0.4,4.1-0.3c1.6-1.4,2-0.2,3.2,0.4
		c0.6,0.3,0.9-0.5,1.5-0.2c1.4,0.7,1.9,1.8,2.2,2.1c1.3,0.9,2.7-0.9,3-0.8c0.6,0.2,0.1,2,2,1.6c1.5-0.3,1.6,2,1.8,2.1
		c1,0.5,1.6-0.4,2.5-0.3c2.1,0.2,2.9,1.4,3,1.4c1.9-1.7,4.2,3.1,4.2,2.2c-0.7-11.2-30.3-17.3-25.6-20.7c1-0.7,1.8-0.4,1.6-0.9
		c-0.9-2.4-13-5.8-10.6-7c2.4-1.2,4.9-3.4,7.4-3.3c1.5,0.1,2.4-1.5,3.3-2.4c0.2-0.2,0.5-0.7,0.8-0.5c15.1,7.2,40.9,7,56.9,0
		c0.3-0.1,0.5,0.3,0.8,0.5c1,0.8,1.8,2.4,3.3,2.4c2.4-0.1,5,2.1,7.4,3.2c2.4,1.2-9.7,4.6-10.6,7c-0.2,0.5,0.6,0.2,1.6,0.9
		c4.7,3.4-24.9,9.6-25.6,20.7c-0.1,1,2.3-3.8,4.2-2.2c0.1,0,0.9-1.2,3-1.4c0.9-0.1,1.5,0.9,2.5,0.3c0.2-0.1,0.3-2.4,1.8-2.1
		c1.9,0.4,1.5-1.4,2-1.6c0.3-0.1,1.7,1.7,3,0.8c0.3-0.3,0.8-1.4,2.2-2.1c0.6-0.3,0.9,0.4,1.5,0.2c1.1-0.5,1.5-1.8,3.2-0.4
		c0.3-0.1,5.4-6.2,4.1,0.3c0,0.1,1.2,1.4-0.1,1.7c-0.4,0.1-1.1,1.5-1.4,1.5c-2.3,0.6-1.8,2.4-2.8,3.5c-1,1.1-2.2,0.3-2.8,1.3
		c-0.5,0.8,0.1,1.4-2,3.3c-1.7,1.6-3.6-0.1-4.1,2.1c-0.7,2.6-1.3,1.5-2.2,2.4c-1.4,1.5-0.6,0.3-1.6,1.1c-1.4,1-3.5-0.3-2.6,0.4
		c5.4,4.5,28.3-12,33.3-17.3c3.2-3.4,4.1-5.1,3.5-0.3c0,0,1.1-0.5,1.6,0.1c0.5,0.6-0.8,2.3-0.4,2.2c1.8-0.5,0.6,3.6,1.2,3.2
		c3.2-2.1,1.1,0.5,1.5,0.6c1.9,0.3-0.3,1.4-0.9,2.6c-1.1,2.2-0.6,1.8-1.7,2.3c-0.4,0.2,1.1,0.3,1,0.5c-0.5,0.6-2,1.4-2.5,1.8
		c-1.3,1.1-0.1,0.3,0.4,0.6c0.8,0.4-0.2,0.6-0.7,1c-2.2,1.5-0.8,1.1-0.4,1.6c0.1,0.1-3.8,2.9-3.2,3.1c1.2,0.2-1.9,2.3-1.4,2.3
		c0.5,0-0.7,1.6-0.8,1.6c-0.7,0.5,1.2-0.2,1.3-0.3c6-4.3,11.8-8.1,15.3-15.9c1.5-3.3,1.7-3.1,0.3-7.5c-0.7-2.3-3.5-7.1-5.3-8.7
		c1-0.8,8.3-10.4,9-12.3c0.2-0.4,1.8-2.7,3.1-1.5c3.6,3.3,5.7-11.3,6.1-11.2c5.3,0.7,6.2-1.2,6.9,6.2c0.3,2.5,0.2,5.5,0.2,7.8
		C194.5,92.7,195.3,75.9,193.2,75.3z M68.3,84.3c-2,1.3-3,2-4.8,3.4c-1.1,0.8-5-2.1-7.5-1c-0.2,0.1-1.5,0.8-1.6,0.8
		c-2.8-0.3-1.3-2.4-1.7-2.6c-1.2-0.6-1,0-0.9-1.2c2.5,0.1,6.5-0.6,9-1.2c1.4-0.3,4.2-0.2,4.9-0.3c0.2,0,6.2-0.2,6.2-0.2
		C72.4,81.9,68.9,84,68.3,84.3z M76.6,67.9c-1.7-0.2-5.5-0.9-5.4-0.4c0.1,0.6,0.1,0.5,0,0.8c-0.1,0.2-1.3-0.3-2.7-0.9
		c-0.3-1.1-1.6-3.5-2.2-4.2c-0.9-1.1,4.9,3.2,5.6,3.5C72.2,66.7,78.1,68.1,76.6,67.9z M148.9,66.2c0.6-0.3,6.6-4,5.6-2.8
		c-0.2,0.3-1.1,2.5-0.9,3c-0.4,0.3-3.6,2.3-3.8,2c0,0,0-0.1,0.1-0.2c0.2-0.4,0.5-1.1,0.2-1.1c-0.9,0.1-4,0.5-5.7,0.8
		C142.8,68.1,148.6,66.4,148.9,66.2z M168.8,87.5c-0.4,0.2,1.1,2.3-1.7,2.6c0,0-1.4-0.7-1.6-0.8c-2.5-1.1-6.4,1.8-7.5,1
		c-1.8-1.4-2.8-2.2-4.8-3.4c-0.5-0.3-4-2.4-3.7-2.4c0.1,0,6.1,0.2,6.2,0.2c0.8,0.2,3.5,0,4.9,0.3c2.5,0.6,6.5,1.3,9,1.2
		C169.8,87.6,170,86.9,168.8,87.5z"/>
</g>
<path style="&st0;" d="M33.9,56L20.7,33.3l10.1-5.9c5.2-3,8.9-2.7,11.1,1.1c1.5,2.6,1,5.3-1.8,7.8c4.2-1.4,7.3-0.5,9.2,2.7
	c2.3,4,1,7.5-4.1,10.5L33.9,56L33.9,56z M39.4,50.4l1.9-1.1c2.4-1.4,2.9-3.5,1.2-6.4c-1.9-3.2-4.1-4.1-6.6-2.6l-1.8,1L39.4,50.4
	L39.4,50.4z M33,39.4l2-1.2c1.9-1.1,2-3,0.4-5.8c-1.5-2.6-3.2-3.3-5.2-2.1l-1.9,1.1L33,39.4L33,39.4z M52.2,17.1
	c-2.5,1.2-4.6,2.2-6.4,2.9l9.6,24.5l6.5-2.6L52.2,17.1L52.2,17.1z M78.7,16.7L83.4,36l-6.8,1.6l-0.7-3c-1,2.6-2.8,4.2-5.3,4.8
	c-3.3,0.8-5.4-0.4-6.2-3.7l-3.4-14.3c2.3-0.7,4.5-1.4,6.7-2.1L71.2,34c0.3,1.3,0.8,1.8,1.6,1.6c2.1-0.5,2.6-2.9,1.5-7.3L72,18.8
	C74.3,18.2,76.5,17.5,78.7,16.7L78.7,16.7z M100.3,26.8l2.9,0.5c0.2,4.5-2.2,7-7.2,7.5c-6.4,0.7-10-2.2-10.7-8.6
	c-0.3-3.1,0.2-5.8,1.7-7.9c1.5-2.2,3.6-3.4,6.2-3.7c5.6-0.6,8.8,2.7,9.5,9.9l-10.2,1.1c0.6,5.1,2.1,7.5,4.7,7.2
	c2.4-0.3,3.4-1.8,3.1-4.7C100.4,27.7,100.4,27.3,100.3,26.8L100.3,26.8z M92.4,23.4l4.2-0.5c-0.5-4.5-1.4-6.7-2.8-6.5
	c-1.2,0.1-1.7,1.9-1.5,5.2L92.4,23.4L92.4,23.4z M137.2,24.3l3.2,1.1c0,0.7,0,1.2,0,1.7c-0.2,2.5-1.3,4.5-3.2,5.9
	c-2,1.4-4.5,1.9-7.6,1.7c-7.8-0.6-11.3-5.3-10.7-14c0.3-4.1,1.7-7.4,4.2-9.8c2.5-2.4,5.5-3.5,9.1-3.2c5.7,0.4,8.3,3.4,7.9,8.8
	l-3.4,1.2c0.1-0.8,0.2-1.4,0.2-1.8c0.3-3.9-1.1-5.9-4.2-6.2c-3.3-0.3-5.2,3.7-5.9,11.9c-0.5,7,1,10.7,4.7,11
	c1.5,0.1,2.8-0.4,3.9-1.5c1.1-1.1,1.7-2.6,1.9-4.4C137.3,26.3,137.3,25.4,137.2,24.3L137.2,24.3z M158.6,27.1l-4.7-1.1
	c0.3-0.7,0.6-1.2,0.8-1.5c0.3-0.5,0.5-0.9,0.6-1.3c0.2-0.8,0-1.3-0.6-1.4c-0.4-0.1-1,0.3-1.6,1.3c-0.6,1-1.1,2-1.4,3.2L149,37.4
	l-6.8-1.6l4.5-18.9l1.3,0.3c1.6,0.4,3.4,0.7,5.6,0.8l-0.7,3.1c1.6-1.8,3.2-2.5,4.8-2.1c2.2,0.5,3,2,2.4,4.4
	c-0.2,0.6-0.4,1.3-0.8,2.1C159.2,25.9,158.9,26.4,158.6,27.1L158.6,27.1z M177.1,46.1l0-1.9c-0.5,0.1-0.9,0.1-1.2,0
	c-0.7-0.3-0.9-1-0.4-2.1l4.3-11c1-2.7-0.9-5-5.9-6.9c-5.2-2-8.4-1.6-9.5,1.2c-0.2,0.5-0.4,1-0.5,1.6l3,1.9c0-1.1,0.1-1.9,0.4-2.4
	c0.7-1.8,2.1-2.3,4.2-1.4c1.8,0.7,2.4,2,1.7,3.9c-0.5,1.4-2.6,2-6.2,1.7c-3.9-0.3-6.4,0.9-7.4,3.6c-1.4,3.5-0.2,6.1,3.6,7.5
	c2,0.8,3.9,0.7,5.5-0.3c0,1.6,1.1,2.8,3.3,3.7C173.6,45.8,175.3,46.1,177.1,46.1L177.1,46.1z M171.9,32.3l-2,5.2
	c-0.9,2.4-2.1,3.3-3.4,2.7c-0.9-0.4-0.9-1.7,0-4.1c0.7-1.9,1.9-2.9,3.6-3.2C170.7,32.8,171.3,32.6,171.9,32.3L171.9,32.3z
	 M178.1,47.2L192.3,25c1,0.6,3,1.8,6.1,3.4l-5,7.9c2-0.7,3.7-0.7,5.1,0.2c3.9,2.5,4.1,6.4,0.7,11.8c-3.9,6.1-8.1,7.6-12.7,4.7
	c-2.2-1.4-3.4-3.6-3.6-6.6l-3.2,1.8L178.1,47.2L178.1,47.2z M195.1,37.8c-1.3-0.8-3.2,0.6-5.6,4.4c-2.8,4.5-3.6,7.1-2.4,7.9
	c1.1,0.7,2.4-0.1,3.9-2.4l2.7-3.9l1.3-2.3C195.9,39.5,196,38.3,195.1,37.8z"/>
</svg>
