<?xml version="1.0" encoding="utf-8"?>
<!-- Generator: Adobe Illustrator 22.1.0, SVG Export Plug-In . SVG Version: 6.00 Build 0)  -->
<!DOCTYPE svg PUBLIC "-//W3C//DTD SVG 1.1//EN" "http://www.w3.org/Graphics/SVG/1.1/DTD/svg11.dtd" [
	<!ENTITY st0 "fill:#FFFFFF;stroke:#FEA600;">
	<!ENTITY st1 "fill:#FEA600;">
	<!ENTITY st2 "fill:#FFFFFF;">
	<!ENTITY st3 "fill:none;stroke:#FEA600;">
	<!ENTITY st4 "fill:none;stroke:#FEA600;stroke-linecap:round;stroke-linejoin:round;">
]>
<svg version="1.1" id="Layer_1" xmlns="http://www.w3.org/2000/svg" xmlns:xlink="http://www.w3.org/1999/xlink" x="0px" y="0px"
	 viewBox="0 0 168.3 168.3" style="enable-background:new 0 0 168.3 168.3;" xml:space="preserve">
<path style="&st0;" d="M84.1,0.5C37.9,0.5,0.5,37.9,0.5,84.1c0,46.2,37.4,83.6,83.6,83.6s83.6-37.4,83.6-83.6
	C167.8,37.9,130.3,0.5,84.1,0.5z"/>
<path style="&st1;" d="M87.6,4.5C43.6,2.6,6.4,36.7,4.5,80.6c-1.9,44,32.2,81.2,76.1,83.1c44,1.9,81.2-32.2,83.1-76.1
	C165.7,43.6,131.6,6.4,87.6,4.5z"/>
<path style="&st2;" d="M84.1,29.7c-30,0-54.4,24.3-54.4,54.4c0,30,24.3,54.4,54.4,54.4c30,0,54.4-24.3,54.4-54.4
	C138.5,54.1,114.2,29.7,84.1,29.7z"/>
<path style="&st3;" d="M84.1,33.3c-28,0-50.8,22.7-50.8,50.8c0,28,22.7,50.8,50.8,50.8c28,0,50.8-22.7,50.8-50.8
	C134.9,56.1,112.2,33.3,84.1,33.3z"/>
<g>
	<path style="&st1;" d="M72.5,53.3c-0.5,0-1.3,0-1.7,0c-0.1,0,0-0.2,0-0.2c0.7-0.1,1.1-0.1,1.1-1.1v-3c0-1-0.3-1-1.1-1.1
		c0,0-0.1-0.2,0-0.2c0.4,0,1.2,0,1.7,0c0.4,0,1.2,0,1.4,0c0.1,0,0.1,0.2,0,0.2c-0.8,0.1-1.1,0.2-1.1,1.1v3c0,0.9,0.3,1,1.1,1.1
		c0,0,0,0.3,0,0.2C73.7,53.3,72.9,53.3,72.5,53.3z"/>
	<path style="&st1;" d="M76.1,51.5c0-0.9,0.7-1.7,1.8-2.1c-0.8-0.5-1.4-1-1.4-1.9c0-1.3,1-2.1,2.3-2.1c1.1,0,2,0.8,2,1.8
		c0,0.8-0.5,1.4-1.5,1.9c0.9,0.5,1.7,1.1,1.7,2.2c0,1.3-1,2.3-2.5,2.3C77.2,53.4,76.1,52.6,76.1,51.5z M77,51.5
		c0,1.1,0.8,1.6,1.5,1.6c1,0,1.6-0.6,1.6-1.4c0-1-0.9-1.5-1.8-2.1C77.5,50,77,50.5,77,51.5z M77.4,46.9c0,0.9,0.8,1.4,1.6,1.9
		c0.6-0.4,1-1,1-1.7c0-0.9-0.6-1.5-1.3-1.5C77.9,45.6,77.4,46.1,77.4,46.9z"/>
	<path style="&st1;" d="M83.4,51.5c0-0.9,0.7-1.7,1.8-2.1c-0.8-0.5-1.4-1-1.4-1.9c0-1.3,1-2.1,2.3-2.1c1.1,0,2,0.8,2,1.8
		c0,0.8-0.5,1.4-1.5,1.9c0.9,0.5,1.7,1.1,1.7,2.2c0,1.3-1,2.3-2.5,2.3C84.5,53.4,83.4,52.6,83.4,51.5z M84.4,51.5
		c0,1.1,0.8,1.6,1.5,1.6c1,0,1.6-0.6,1.6-1.4c0-1-0.9-1.5-1.8-2.1C84.8,50,84.4,50.5,84.4,51.5z M84.7,46.9c0,0.9,0.8,1.4,1.6,1.9
		c0.6-0.4,1-1,1-1.7c0-0.9-0.6-1.5-1.3-1.5C85.2,45.6,84.7,46.1,84.7,46.9z"/>
	<path style="&st1;" d="M90.8,51.5c0-0.9,0.7-1.7,1.8-2.1c-0.8-0.5-1.4-1-1.4-1.9c0-1.3,1-2.1,2.3-2.1c1.1,0,2,0.8,2,1.8
		c0,0.8-0.5,1.4-1.5,1.9c0.9,0.5,1.7,1.1,1.7,2.2c0,1.3-1,2.3-2.5,2.3C91.9,53.4,90.8,52.6,90.8,51.5z M91.7,51.5
		c0,1.1,0.8,1.6,1.5,1.6c1,0,1.6-0.6,1.6-1.4c0-1-0.9-1.5-1.8-2.1C92.2,50,91.7,50.5,91.7,51.5z M92.1,46.9c0,0.9,0.8,1.4,1.6,1.9
		c0.6-0.4,1-1,1-1.7c0-0.9-0.6-1.5-1.3-1.5C92.6,45.6,92.1,46.1,92.1,46.9z"/>
</g>
<g>
	<path style="&st2;" d="M23.7,107.7l-1.3,3l-3-1.3l1.3-3L23.7,107.7z"/>
	<path style="&st2;" d="M22.9,96.9c0.1,0.8,0.3,1.7,0.5,2.2c0.1,0.2-0.3,0.1-0.3,0.1c-0.4-1.2-0.6-1.3-2.3-1L16.5,99
		c-1.7,0.3-1.9,0.5-1.8,1.8c0,0.1-0.4,0.2-0.4,0c0-0.6-0.1-1.2-0.3-2c-0.1-0.3-0.3-1.2-0.4-1.7c-0.3-1.6,0.2-3.1,1.5-3.4
		c0.8-0.1,1.7,0.4,2.3,1.4c-0.2-1.6,0.5-2.8,1.7-3c1.5-0.3,3,0.9,3.4,3C22.7,95.6,22.8,96.6,22.9,96.9z M17.7,96.9
		c-0.3-1.7-1-2-1.9-1.8c-1.4,0.3-1.7,1.1-1.5,2.2c0,0.2,0.1,0.2,0.1,0.4c0.4,0,0.9,0,1.9-0.2l4.2-0.8c1.5-0.3,1.8-0.3,1.6-1.3
		c-0.3-1.5-1-2.1-2.3-1.9c-1.3,0.2-2.2,1.4-1.7,3.3C18.1,96.9,17.7,97,17.7,96.9z"/>
	<path style="&st2;" d="M17.6,86.7c0,0.3,0,0.4,0,0.5l1.6,0c1.7-0.1,2-0.2,2.1-1.5c0-0.1,0.4-0.1,0.4,0c0,0.4,0,1.4,0,2
		c0,0.8,0.1,1.7,0.1,2.3c0,0.1-0.4,0.1-0.4,0c-0.2-1.2-0.4-1.4-2.2-1.4L15,88.9c-1.6,0-2,0.4-1.9,1c0,0.1,0,0.3,0.1,0.5
		c0,0.1-0.3,0.2-0.3,0.1c-0.2-0.6-0.3-2.2-0.4-3.8c-0.1-2.5,0.7-3.9,2.2-3.9c0.9,0,1.9,0.6,2.4,1.7c1.9-0.8,4.4-2.6,4.3-4.3
		c0-0.1,0.4-0.1,0.4,0c0.1,3.1-2,4.8-4.2,5.5C17.6,86,17.6,86.5,17.6,86.7z M13.1,87.3c0.3,0.1,0.8,0.1,1.8,0.1l2.2-0.1
		c0-0.2,0-0.3,0-0.5c-0.1-1.8-0.8-2.5-2.1-2.5c-1.6,0-2.1,1-2,2.6C13,87.1,13,87.1,13.1,87.3z"/>
	<path style="&st2;" d="M21.8,78c-0.1,0.8-0.2,1.7-0.1,2.3c0,0.2-0.4,0-0.4,0c0-1.2-0.2-1.4-2-1.6l-4.2-0.4c-1.8-0.2-2,0-2.3,1.2
		c0,0-0.4,0.1-0.3-0.1c0.1-0.6,0.2-1.5,0.3-2.3c0.1-0.6,0.1-1.5,0.1-2c0-0.2,0.4,0,0.4,0c0,1.3,0.4,1.5,2,1.6l4.2,0.4
		c1.6,0.2,2,0.1,2.2-1.2c0,0,0.4-0.1,0.3,0.1C22,76.5,21.9,77.5,21.8,78z"/>
	<path style="&st2;" d="M23.4,65.4c0.4,1.3,0.5,2.5,0.2,3.9c-0.7,3.1-3.3,4.6-5.6,4c-2.5-0.6-4.4-3.3-3.6-6.4
		c0.3-1.3,1.3-2.6,1.5-2.7c0.1-0.1,1.3,0.1,2.1,0.3c0.1,0,0,0.4-0.1,0.3c-1.1-0.2-2.7,0.7-3.1,2.5c-0.5,2,0.5,3.7,3,4.3
		c3,0.7,4.8-0.7,5.3-2.7c0.3-1.4,0-1.7-0.1-1.8c-0.1-0.1-0.5-0.2-0.8-0.3c-1.7-0.4-1.8-0.4-2.3,1.1c0,0.1-0.4,0-0.3-0.1
		c0.2-0.6,0.5-1.6,0.7-2.4c0.1-0.6,0.3-1.4,0.4-1.8c0-0.1,0.3,0,0.3,0.1c-0.2,1.3,0,1.3,1.7,1.7C22.9,65.5,23.2,65.5,23.4,65.4z"/>
	<path style="&st2;" d="M27.5,57.6c0,0.1-0.3-0.1-0.3-0.1c0.3-1,0.2-1.3-1.4-2L24,54.6l-2,4.6l1.7,0.8c1.5,0.7,1.9,0.7,2.5-0.3
		c0-0.1,0.4,0.1,0.3,0.2c-0.2,0.4-0.6,1.1-0.8,1.7c-0.3,0.7-0.8,1.7-0.9,2.3c0,0.1-0.3-0.1-0.3-0.1c0.4-1.4,0.3-1.6-1.3-2.3
		l-3.8-1.7c-1.6-0.7-1.9-0.7-2.6,0.5c0,0.1-0.4-0.1-0.3-0.2c0.3-0.5,0.7-1.4,1.1-2.2c0.2-0.5,0.5-1.3,0.7-1.7c0-0.1,0.4,0.1,0.3,0.1
		c-0.4,1.1-0.1,1.4,1.4,2l1.6,0.7l2-4.6l-1.6-0.7C20.3,53,20,53,19.4,54c0,0.1-0.4-0.1-0.3-0.2c0.3-0.5,0.7-1.2,1-1.9
		c0.2-0.6,0.7-1.6,0.8-2c0-0.1,0.4,0,0.3,0.1c-0.5,1.4-0.2,1.6,1.3,2.3l3.8,1.7c1.5,0.7,1.9,0.7,2.6-0.5c0-0.1,0.4,0.1,0.3,0.2
		C29,54,28.6,55,28.3,55.6C28,56.3,27.7,57,27.5,57.6z"/>
	<path style="&st2;" d="M33.2,47.8c0,0.1-0.3-0.2-0.3-0.2c0.3-0.6,0.6-0.8,0.3-1c-0.4-0.2-1-0.4-1.7-0.6l-1-0.3l-1.7,2.5l0.6,0.9
		c0.5,0.8,0.8,1.2,1.1,1.4c0.3,0.2,0.5-0.1,0.8-0.6c0.1-0.1,0.4,0.1,0.3,0.2c-0.3,0.3-0.6,0.8-1,1.3c-0.5,0.7-0.5,0.8-0.8,1.3
		c0,0.1-0.3-0.2-0.3-0.2c0.5-0.8,0.3-1.5-0.6-3l-3.8-6.4c-0.1-0.1,0-0.2,0.1-0.2l7.1,1.6c1.4,0.3,2.1,0.5,3-0.5c0,0,0.4,0.1,0.3,0.2
		c-0.3,0.3-0.8,1-1.1,1.5C34,46.5,33.5,47.3,33.2,47.8z M28.4,47.7l1.5-2.1l-3.2-0.8L28.4,47.7z"/>
	<path style="&st2;" d="M42.1,37.8c-0.1,0.1-0.3-0.2-0.3-0.2c0.7-0.8,0.6-1.1-0.6-2.4l-3.5-3.5l2.8,7.5c0,0.1-0.1,0.2-0.2,0.2
		l-7.5-2.7l3.3,3.5c1,1.1,1.5,1.4,2.5,0.6c0,0,0.3,0.2,0.2,0.3c-0.3,0.3-0.7,0.6-1.1,1c-0.6,0.6-1,1-1.4,1.4
		c-0.1,0.1-0.3-0.2-0.2-0.3c0.8-1,0.7-1.4-0.4-2.5L32.3,37c-0.4-0.5-1.4-0.5-2.2,0.1c0,0-0.3-0.2-0.2-0.2c0.6-0.4,1.3-1.1,2.2-2
		l7.3,2.6L37.6,33c-0.4-1-0.7-1.9-1.1-2.5c0.7-0.6,1.7-1.6,2.1-2.2c0.1-0.1,0.3,0.2,0.3,0.2c-1,1.1-0.8,1.4,0.4,2.6l3,3
		c1.2,1.2,1.5,1.3,2.6,0.4c0,0,0.3,0.2,0.2,0.3c-0.4,0.3-1.1,1-1.6,1.4C43,36.8,42.5,37.3,42.1,37.8z"/>
	<path style="&st2;" d="M52.1,25l1,1.9c1,1.7,1.1,1.7,2.3,1.2c0,0,0.3,0.3,0.2,0.3c-0.4,0.2-1.2,0.6-1.8,0.9c-0.7,0.4-1.5,0.8-2,1.2
		c-0.1,0.1-0.2-0.3-0.2-0.3c1-0.7,1.2-0.7,0.2-2.5L50.9,26l-2-1.1c-2.2-1.2-2.6-1.3-3.7-0.8c0,0-0.3-0.3-0.2-0.3
		c0.6-0.2,1.2-0.6,1.9-1c0.5-0.3,1.3-0.8,1.7-1c0.1-0.1,0.2,0.3,0.2,0.3c-1,0.7-0.6,0.8,1.5,1.9l1.3,0.7l0.2-1.9
		c0.3-2.3,0.1-2.3-0.9-1.9c0,0-0.3-0.3-0.2-0.3c0.5-0.2,1.1-0.5,1.8-0.9c0.5-0.3,0.8-0.5,1.2-0.7c0.1-0.1,0.2,0.3,0.2,0.3
		c-1,0.7-1.2,1.1-1.4,3.3L52.1,25z"/>
	<path style="&st2;" d="M56.9,22.7c-0.9-2.4,0.5-5.4,3.4-6.4c2.7-1,5.5,0.4,6.3,2.7c0.8,2.4-0.5,5.4-3.4,6.4
		C60.5,26.3,57.7,25,56.9,22.7z M58.1,21.6c1,2.9,3.4,3.7,5.1,3.1c1.9-0.7,2.8-2.3,2-4.7c-1-2.9-3.4-3.7-5.2-3.1
		C58.2,17.6,57.3,19.2,58.1,21.6z"/>
	<path style="&st2;" d="M77.8,18.4c0.3,1.9-0.9,3.7-3.3,4.1c-2.1,0.3-4.2-0.7-4.5-2.9l-0.5-3.2c-0.3-1.7-0.5-2-1.7-1.9
		c-0.1,0-0.2-0.4,0-0.3c0.6,0,1.5-0.2,2.3-0.3c0.6-0.1,1.5-0.3,1.9-0.4c0.1-0.1,0.2,0.3,0.1,0.3c-1.2,0.3-1.3,0.7-1,2.3l0.5,2.9
		c0.3,2.2,1.9,2.9,3.3,2.7c1.9-0.3,2.7-1.4,2.4-3.3l-0.5-3.3c-0.3-1.6-0.5-1.8-1.7-1.8c-0.1,0-0.2-0.4,0-0.3c0.6,0,1-0.1,1.8-0.2
		c0.6-0.1,1.2-0.2,1.6-0.3c0.1,0,0.1,0.3,0.1,0.3c-1.3,0.3-1.3,0.7-1.1,2.2L77.8,18.4z"/>
	<path style="&st2;" d="M90.5,19.3c0,0.7,0,2,0,2.6c0,0.1-0.2,0.1-0.3,0l-6.7-7.3L83.3,19c0,1.5,0.1,2,1.3,2.2c0,0,0.1,0.4,0,0.4
		c-0.4-0.1-0.9-0.1-1.5-0.1c-0.8,0-1.4,0-2,0c-0.1,0,0-0.4,0-0.4c1.2-0.1,1.4-0.5,1.5-2.1l0.2-4.8c0-0.6-1.1-1.5-1.8-1.6
		c-0.1,0-0.1-0.4,0-0.4c0.6,0.1,1.7,0.2,2.5,0.2l6.3,6.9l0.1-4.3c0.1-1.6-0.1-2-1.3-2.2c-0.1,0-0.1-0.4,0-0.4c0.6,0.1,1,0.1,1.8,0.2
		c0.6,0,1.2,0,1.6,0c0.2,0,0.1,0.4,0,0.4c-1.3,0.1-1.4,0.6-1.5,2.1L90.5,19.3z"/>
	<path style="&st2;" d="M101.7,23c-1.3,0.4-2.5,0.5-3.9,0.2c-3.1-0.7-4.6-3.2-4.1-5.6c0.5-2.5,3.2-4.4,6.4-3.7
		c1.3,0.3,2.6,1.2,2.8,1.5c0.1,0.1,0,1.3-0.3,2.1c0,0.1-0.4,0-0.3-0.1c0.2-1.1-0.7-2.7-2.6-3.1c-2-0.4-3.7,0.6-4.2,3.1
		c-0.6,3,0.8,4.8,2.8,5.2c1.4,0.3,1.7,0,1.8-0.2c0.1-0.1,0.2-0.5,0.3-0.9c0.4-1.7,0.3-1.8-1.1-2.3c-0.1,0,0-0.4,0.1-0.3
		c0.6,0.2,1.6,0.4,2.4,0.6c0.6,0.1,1.4,0.3,1.8,0.3c0.1,0,0,0.3-0.1,0.3c-1.3-0.2-1.3,0-1.7,1.7C101.6,22.5,101.6,22.8,101.7,23z"/>
	<path style="&st2;" d="M117,26.9c-0.8,1.7-2.8,2.5-5.1,1.4c-1.9-1-3-3-2-5l1.5-2.9c0.8-1.6,0.7-1.9-0.3-2.6c-0.1,0,0.1-0.4,0.2-0.3
		c0.5,0.3,1.3,0.7,2,1.1c0.5,0.3,1.4,0.7,1.8,0.8c0.1,0-0.1,0.4-0.1,0.3c-1.2-0.5-1.4-0.2-2.2,1.3l-1.3,2.7c-1,2-0.1,3.4,1.2,4.1
		c1.7,0.8,3,0.4,3.9-1.3l1.5-3c0.7-1.4,0.7-1.8-0.4-2.4c-0.1-0.1,0.1-0.4,0.2-0.3c0.5,0.3,0.9,0.5,1.6,0.9c0.5,0.3,1.1,0.5,1.5,0.7
		c0.1,0-0.1,0.3-0.1,0.3c-1.2-0.5-1.5-0.2-2.2,1.2L117,26.9z"/>
	<path style="&st2;" d="M126.9,34.9c-0.4,0.5-1.2,1.6-1.5,2.1c0,0-0.3,0-0.3-0.2l-1.2-9.8l-2.7,3.6c-0.9,1.2-1.1,1.7-0.2,2.5
		c0,0-0.2,0.4-0.2,0.3c-0.3-0.3-0.7-0.6-1.2-1c-0.7-0.5-1.1-0.9-1.6-1.2c-0.1,0,0.2-0.3,0.2-0.3c1.1,0.6,1.5,0.4,2.4-0.8l2.9-3.8
		c0.4-0.5,0-1.9-0.5-2.3c0,0,0.2-0.4,0.2-0.3c0.4,0.4,1.2,1.1,1.9,1.6l1.1,9.3l2.6-3.5c1-1.3,1.1-1.7,0.2-2.5
		c-0.1-0.1,0.2-0.4,0.2-0.3c0.4,0.4,0.8,0.7,1.4,1.2c0.5,0.4,1,0.7,1.4,0.9c0.2,0.1-0.1,0.3-0.2,0.3c-1.1-0.7-1.5-0.3-2.4,0.8
		L126.9,34.9z"/>
	<path style="&st2;" d="M129.3,40.7c-0.6-0.6-1.2-1.2-1.7-1.6c-0.1-0.1,0.2-0.3,0.2-0.3c0.9,0.8,1.3,0.8,2.5-0.5l3-2.9
		c1.3-1.2,1.3-1.5,0.6-2.5c0,0,0.2-0.3,0.3-0.2c0.3,0.5,1,1.1,1.5,1.7c0.4,0.4,1.1,1.1,1.4,1.3c0.1,0.1-0.2,0.3-0.2,0.3
		c-1-0.9-1.3-0.7-2.5,0.5l-3,2.9c-1.2,1.2-1.4,1.5-0.5,2.5c0,0-0.2,0.3-0.3,0.2C130.3,41.8,129.7,41.1,129.3,40.7z"/>
	<path style="&st2;" d="M134.7,47.5c-0.1,0-0.2-0.1-0.2-0.3l3.7-6.4c0.8-1.4,1-2.1,0.4-3.1c0,0,0.2-0.3,0.3-0.2
		c0.2,0.4,0.7,1.1,1,1.6c0.5,0.7,1.1,1.5,1.5,1.9c0.1,0.1-0.2,0.3-0.3,0.2c-0.4-0.5-0.7-0.7-1-0.5c-0.2,0.2-0.6,0.5-1,1.3l-2.5,4.4
		l4.9-1.1c1.1-0.3,1.4-0.4,1.6-0.6c0.3-0.2,0.2-0.5-0.1-1c0,0,0.2-0.3,0.3-0.2c0.2,0.4,0.5,0.9,0.9,1.3c0.5,0.7,0.6,0.8,1,1.2
		c0.1,0.1-0.2,0.3-0.3,0.2c-0.6-0.7-1.2-0.8-3-0.4L134.7,47.5z"/>
	<path style="&st2;" d="M141,57.9c-0.2-0.5-0.6-1.3-1.1-2.2c-0.7-1.3-1.4-2.8-2-3.7c-0.1-0.1,0.3-0.2,0.3-0.2c0.8,1.2,1,1.2,2.6,0.4
		l3.7-1.9c1.6-0.8,1.7-1,1.2-2.4c0,0,0.3-0.3,0.3-0.2c0.4,1,1.1,2.4,1.8,3.7c0.5,0.9,0.9,1.7,1.4,2.5c-0.3,0.1-0.7,0.2-0.9,0.4
		c-0.1,0.1-0.5,0.2-0.6,0.3c0,0-0.2-0.3-0.2-0.3c0.5-0.4,0.7-0.7-0.2-2.3l-0.6-1.1c-0.3,0.1-0.8,0.3-1.6,0.7l-1.5,0.8l0.4,0.8
		c0.7,1.4,0.8,1.5,1.4,1.3c0,0,0.2,0.3,0.1,0.3c-0.2,0-0.7,0.3-1,0.4c-0.1,0.1-0.6,0.3-0.7,0.4c0,0-0.2-0.3-0.2-0.3
		c0.6-0.5,0.6-0.6-0.1-1.9l-0.4-0.8l-1.6,0.8c-1.6,0.8-1.7,1-1.4,1.5l0.3,0.6c1,1.9,1.3,1.8,2.2,1.6c0,0,0.2,0.3,0.1,0.3
		c-0.3,0.1-1.2,0.4-1.5,0.4C141.2,58.2,141.1,58.1,141,57.9z"/>
	<path style="&st2;" d="M146.9,61.9c-0.1-0.3-0.1-0.4-0.2-0.5l-1.5,0.5c-1.6,0.5-1.9,0.8-1.6,2c0,0.1-0.3,0.2-0.3,0.1
		c-0.1-0.4-0.4-1.3-0.6-1.9c-0.3-0.8-0.6-1.6-0.8-2.2c-0.1-0.1,0.3-0.2,0.3-0.1c0.5,1.1,0.8,1.2,2.5,0.7l4-1.4
		c1.5-0.5,1.8-0.9,1.6-1.5c0-0.1-0.1-0.3-0.2-0.5c-0.1-0.1,0.2-0.3,0.3-0.2c0.4,0.5,1,2,1.5,3.5c0.8,2.4,0.5,3.9-0.9,4.4
		c-0.9,0.3-2,0-2.8-0.9c-1.6,1.3-3.4,3.8-2.9,5.4c0,0.1-0.3,0.2-0.3,0.1c-1-2.9,0.5-5.2,2.4-6.5C147.1,62.6,147,62.2,146.9,61.9z
		 M151.1,60.1c-0.3,0-0.8,0.2-1.7,0.5l-2.1,0.7c0.1,0.2,0.1,0.3,0.1,0.5c0.6,1.7,1.5,2.2,2.7,1.8c1.5-0.5,1.7-1.5,1.2-3.1
		C151.2,60.3,151.2,60.2,151.1,60.1z"/>
	<path style="&st2;" d="M145.9,69.9c0-0.1,1.1-0.2,2.1-0.3c0.1,0,0.1,0.3,0.1,0.3c-1.4,0.4-2.3,1.3-2.1,2.7c0.2,1,0.9,1.6,1.8,1.4
		c2.3-0.4,1.5-4.5,4.1-4.9c1.3-0.2,2.8,0.7,3.1,2.3c0.1,0.8,0,1.4-0.2,1.9c-0.1,0.1-0.8,0.4-1.7,0.6c-0.1,0-0.1-0.4-0.1-0.4
		c1-0.4,1.6-1.1,1.4-2.1c-0.2-0.9-0.7-1.4-1.5-1.3c-2.2,0.4-1.4,4.4-4.1,4.8c-1.5,0.3-3-0.7-3.3-2.4
		C145.2,71.6,145.4,70.8,145.9,69.9z"/>
	<path style="&st2;" d="M146.6,80c-0.1-0.8-0.1-1.7-0.2-2.3c0-0.1,0.4-0.1,0.4,0c0.2,1.2,0.5,1.4,2.2,1.3l4.2-0.3
		c1.8-0.1,2-0.3,2-1.6c0,0,0.4-0.1,0.4,0c-0.1,0.6,0,1.5,0.1,2.3c0,0.6,0.1,1.5,0.2,1.9c0,0.1-0.3,0.1-0.4,0.1
		c-0.2-1.3-0.6-1.4-2.2-1.3l-4.2,0.3c-1.7,0.1-2,0.3-2,1.6c0,0-0.4,0.1-0.4,0C146.6,81.5,146.6,80.5,146.6,80z"/>
	<path style="&st2;" d="M153.5,93.2c-0.1,0,0-0.3,0-0.3c0.6-0.1,1.1-0.5,1.2-2l0.1-1.2l-5.9-0.4c-1.7-0.1-2,0-2.2,1.3
		c0,0.1-0.4,0.1-0.4-0.1c0.1-0.4,0.2-1.4,0.2-2c0.1-0.8,0.1-1.7,0.1-2.3c0-0.2,0.4-0.1,0.4,0c0.1,1.2,0.3,1.4,2,1.6l5.9,0.4l0.1-1.3
		c0.1-1.4-0.3-2-0.9-2.2c0-0.1,0-0.4,0.1-0.3c0.3,0.1,1,0.2,1.4,0.2c0.1,0,0.4,0,0.7,0c0.1,0,0.1,0.3,0,0.3
		c-0.5,0.1-0.5,0.1-0.6,2.1l-0.3,4c-0.1,2-0.1,2.1,0.3,2.2c0.1,0,0,0.4-0.1,0.3c-0.3-0.1-0.8-0.2-1.2-0.2
		C154.2,93.3,153.7,93.2,153.5,93.2z"/>
	<path style="&st2;" d="M149.5,99.4l-2.1-0.5c-1.9-0.4-2-0.3-2.4,0.9c0,0.1-0.4,0-0.3-0.1c0.1-0.4,0.4-1.3,0.5-1.9
		c0.2-0.8,0.4-1.7,0.4-2.3c0-0.1,0.4,0,0.3,0.1c-0.1,1.2-0.2,1.4,1.8,1.8l1.9,0.4l2.2-0.8c2.3-0.8,2.7-1.1,3-2.2
		c0-0.1,0.4,0,0.3,0.1c-0.2,0.6-0.4,1.3-0.5,2.1c-0.1,0.6-0.3,1.5-0.3,1.9c0,0.1-0.4,0-0.4-0.1c0.2-1.2-0.2-1-2.4-0.2l-1.4,0.5
		l1.3,1.4c1.6,1.7,1.6,1.6,2,0.6c0-0.1,0.4,0,0.3,0.1c-0.2,0.5-0.3,1.1-0.5,1.9c-0.1,0.6-0.2,0.9-0.2,1.4c0,0.1-0.4,0-0.4-0.1
		c0.2-1.2,0-1.6-1.5-3.2L149.5,99.4z"/>
	<path style="&st2;" d="M144.2,108.7l3-1.3l1.3,3l-3,1.3L144.2,108.7z"/>
</g>
<g>
	<path style="&st2;" d="M26.2,119.4c-0.1-0.2-0.2-0.3-0.3-0.5l-1.3,0.8c-1.4,0.9-1.6,1.2-1.1,2.3c0,0-0.3,0.3-0.3,0.2
		c-0.2-0.4-0.7-1.2-1-1.7c-0.4-0.7-0.9-1.5-1.3-1.9c-0.1-0.1,0.3-0.2,0.3-0.2c0.8,1,1.1,1,2.6,0.1l3.6-2.2c1.4-0.9,1.5-1.3,1.2-1.9
		c-0.1-0.1-0.2-0.3-0.3-0.4c-0.1,0,0.2-0.3,0.3-0.2c0.5,0.4,1.4,1.8,2.2,3.1c1.3,2.1,1.4,3.7,0.1,4.5c-0.8,0.5-1.9,0.4-2.9-0.3
		c-1.2,1.6-2.5,4.5-1.6,5.9c0,0-0.2,0.3-0.3,0.2c-1.6-2.6-0.7-5.2,0.8-6.9C26.6,120,26.3,119.7,26.2,119.4z M29.8,116.6
		c-0.3,0.1-0.7,0.3-1.6,0.9l-1.9,1.2c0.1,0.1,0.1,0.2,0.3,0.5c1,1.6,2,1.8,3,1.1c1.3-0.8,1.3-1.9,0.5-3.3
		C30,116.8,30,116.8,29.8,116.6z"/>
	<path style="&st2;" d="M31.9,133.6c-0.3-0.4-0.9-1.1-1.5-1.9c-0.9-1.1-2-2.3-2.8-3.1c-0.1-0.1,0.2-0.3,0.3-0.2
		c1.1,1,1.3,0.9,2.6-0.2l3.2-2.8c1.3-1.2,1.4-1.4,0.6-2.6c0,0,0.2-0.3,0.3-0.2c0.6,0.8,1.7,2.1,2.6,3.2c0.7,0.8,1.3,1.5,1.9,2.1
		c-0.3,0.1-0.6,0.4-0.8,0.6c-0.1,0.1-0.4,0.4-0.5,0.4c0,0-0.3-0.2-0.2-0.3c0.4-0.5,0.5-0.9-0.7-2.2l-0.8-0.9
		c-0.3,0.2-0.7,0.5-1.3,1.1l-1.3,1.1l0.6,0.7c1,1.2,1.1,1.2,1.7,1c0,0,0.3,0.2,0.2,0.3c-0.2,0.1-0.6,0.5-0.9,0.7
		c-0.1,0.1-0.5,0.4-0.6,0.5c0,0-0.3-0.2-0.2-0.3c0.5-0.6,0.4-0.7-0.5-1.8l-0.6-0.7l-1.4,1.2c-1.3,1.2-1.4,1.4-1,1.8l0.5,0.5
		c1.4,1.6,1.7,1.5,2.5,1c0,0,0.3,0.3,0.2,0.3c-0.3,0.2-1.1,0.7-1.4,0.8C32.1,133.8,32,133.7,31.9,133.6z"/>
	<path style="&st2;" d="M40.7,141.4c-0.6-0.5-1.4-1.2-1.9-1.5c-0.1-0.1,0.2-0.3,0.2-0.3c0.8,0.5,1,0.3,1.3-2l0.2-1.4l-1.7,0.5
		c-2.1,0.6-2.2,0.7-1.5,1.5c0.1,0.1-0.2,0.4-0.2,0.3c-0.3-0.3-0.8-0.7-1.2-1.1c-0.6-0.5-0.8-0.7-1.3-1c-0.1,0,0.2-0.3,0.2-0.3
		c1.1,0.7,1.4,0.7,3.6,0.2l2.3-0.6l0.3-2.3c0.3-2.2,0.3-2.8-0.6-3.7c0,0,0.2-0.4,0.2-0.3c0.4,0.4,0.9,0.9,1.6,1.5
		c0.5,0.4,1.2,1,1.6,1.2c0.1,0.1-0.2,0.3-0.2,0.3c-0.8-0.6-1.1-0.2-1.3,2l-0.1,1l1.4-0.4c2.2-0.6,2.2-0.8,1.5-1.5
		c0,0,0.2-0.4,0.2-0.3c0.4,0.4,0.8,0.8,1.4,1.3c0.5,0.4,0.7,0.6,1.1,0.8c0.1,0-0.1,0.3-0.2,0.3c-0.9-0.6-1.6-0.7-3.6-0.2l-1.9,0.5
		l-0.3,2.6c-0.2,2.1-0.3,2.9,0.7,3.8c0,0-0.2,0.4-0.3,0.2C41.7,142.3,41.1,141.8,40.7,141.4z"/>
	<path style="&st2;" d="M46.6,145.3c-0.7-0.4-1.5-0.9-2-1.1c-0.2-0.1,0.1-0.3,0.2-0.3c1.1,0.5,1.4,0.4,2.3-1.1l2.1-3.6
		c0.9-1.5,0.9-1.8-0.1-2.6c0,0,0.1-0.4,0.2-0.3c0.4,0.4,1,0.7,1.7,1.1c0.3,0.2,1.1,0.6,1.5,0.8c1.4,0.8,2.2,2.2,1.5,3.4
		c-0.4,0.7-1.5,1-2.5,0.8c1.3,0.9,1.8,2.2,1.2,3.3c-0.8,1.3-2.7,1.7-4.5,0.6C47.7,146,46.9,145.5,46.6,145.3z M49.9,141.4
		c1.5,0.9,2.1,0.6,2.6-0.3c0.7-1.2,0.3-2-0.7-2.6c-0.2-0.1-0.2-0.1-0.4-0.2c-0.3,0.3-0.5,0.7-1,1.6l-2.2,3.7c-0.8,1.3-1,1.6-0.1,2.1
		c1.3,0.8,2.2,0.6,2.9-0.5c0.7-1.2,0.4-2.6-1.4-3.4C49.7,141.8,49.9,141.4,49.9,141.4z"/>
	<path style="&st2;" d="M64.1,149.9c-0.7,1.8-2.6,2.8-4.9,1.9c-2-0.7-3.3-2.7-2.5-4.8l1.1-3.1c0.6-1.7,0.5-2-0.6-2.5
		c-0.1,0,0-0.4,0.1-0.3c0.5,0.3,1.4,0.6,2.1,0.9c0.6,0.2,1.4,0.5,1.9,0.6c0.1,0,0,0.4-0.1,0.3c-1.2-0.3-1.5,0-2,1.6l-1,2.8
		c-0.8,2,0.2,3.4,1.6,3.9c1.8,0.7,3,0.1,3.7-1.7l1.1-3.1c0.6-1.5,0.5-1.8-0.6-2.4c-0.1-0.1,0-0.4,0.1-0.3c0.5,0.3,0.9,0.4,1.7,0.7
		c0.5,0.2,1.1,0.4,1.5,0.5c0.1,0,0,0.3-0.1,0.3c-1.2-0.3-1.5,0-2,1.4L64.1,149.9z"/>
	<path style="&st2;" d="M71.9,150.9c-0.3,0-0.4-0.1-0.5-0.1l-0.3,1.5c-0.3,1.7-0.2,2,1,2.3c0.1,0,0,0.4-0.1,0.3
		c-0.4-0.1-1.3-0.3-1.9-0.4c-0.8-0.1-1.7-0.3-2.3-0.3c-0.1,0,0-0.4,0.1-0.3c1.2,0.1,1.5-0.1,1.8-1.8l0.7-4.1c0.3-1.6,0-2-0.6-2.1
		c-0.1,0-0.3,0-0.5,0c-0.1,0-0.1-0.3,0-0.3c0.6-0.1,2.3,0.1,3.8,0.4c2.5,0.4,3.7,1.4,3.4,2.9c-0.2,0.9-1,1.7-2.1,2
		c0.4,2,1.7,4.8,3.3,5.1c0.1,0,0.1,0.4-0.1,0.3c-3-0.5-4.3-2.9-4.6-5.2C72.6,150.9,72.1,150.9,71.9,150.9z M72.2,146.3
		c-0.1,0.2-0.2,0.8-0.4,1.8l-0.4,2.2c0.2,0,0.3,0.1,0.5,0.1c1.8,0.3,2.7-0.3,2.9-1.5c0.3-1.5-0.5-2.2-2.1-2.5
		C72.5,146.3,72.4,146.3,72.2,146.3z"/>
	<path style="&st2;" d="M88.6,155.1c-1.2,0.7-2.3,1-3.7,1.1c-3.2,0-5.2-2.1-5.2-4.6c0-2.6,2.2-5,5.4-5c1.3,0,2.8,0.6,3,0.9
		c0.1,0.1,0.2,1.3,0.2,2.2c0,0.1-0.4,0.1-0.4,0c-0.1-1.1-1.3-2.5-3.2-2.4c-2.1,0-3.5,1.4-3.5,3.9c0,3,1.8,4.5,3.8,4.5
		c1.5,0,1.7-0.4,1.7-0.6c0.1-0.1,0.1-0.6,0.1-0.9c0-1.8-0.1-1.9-1.6-2c-0.1,0-0.1-0.4,0-0.4c0.6,0.1,1.6,0.1,2.5,0.1
		c0.6,0,1.4,0,1.8-0.1c0.1,0,0.1,0.3,0,0.3c-1.3,0.1-1.3,0.3-1.3,2.1C88.4,154.6,88.4,154.9,88.6,155.1z"/>
	<path style="&st2;" d="M91.4,157.3c1.2-0.1,1.4-0.7,1.4-1.1c0-0.3-0.3-0.5-0.7-0.6c-0.4-0.1-0.6-0.3-0.6-0.6c0-0.4,0.2-0.6,0.6-0.7
		c0.6-0.1,1.3,0.4,1.4,1.3c0.1,1.1-0.7,2-2,2.1C91.3,157.7,91.3,157.4,91.4,157.3z"/>
	<path style="&st2;" d="M103.7,153.2c-0.8,0.2-1.7,0.5-2.2,0.7c-0.1,0.1-0.1-0.3-0.1-0.3c1.1-0.5,1.3-0.7,0.8-2.4l-1.1-4.1
		c-0.5-1.7-0.7-1.9-1.9-1.7c0,0-0.2-0.3-0.1-0.4c0.6-0.1,1.4-0.3,2.2-0.5c0.5-0.1,1.5-0.4,1.9-0.6c0.1-0.1,0.2,0.3,0.1,0.3
		c-1.2,0.4-1.2,0.8-0.8,2.4l1.1,4.1c0.4,1.6,0.7,1.9,1.9,1.7c0,0,0.2,0.3,0.1,0.4C105.1,152.8,104.2,153.1,103.7,153.2z"/>
	<path style="&st2;" d="M111.8,150.5c-0.7,0.3-1.8,0.8-2.3,1.1c-0.2,0.1-0.2-0.3-0.2-0.3c1.1-0.6,1.1-0.9,0.4-2.5l-1.7-3.8
		c-0.7-1.6-1-1.8-2.2-1.4c-0.1,0-0.3-0.3-0.1-0.3c0.5-0.1,1.7-0.7,2.4-1c0.3-0.1,1.5-0.7,1.9-0.9c3.1-1.4,5.5-0.4,6.5,1.9
		c1.1,2.3-0.1,5.2-2.9,6.5C113.2,149.9,112.1,150.3,111.8,150.5z M108.7,142.6c0.1,0.4,0.2,0.7,0.6,1.7l1.9,4.3
		c0.4,0.9,0.6,1.2,2.5,0.4c1.5-0.7,2.7-2.5,1.7-4.6c-1.2-2.7-3.2-3.4-5.5-2.3C109.1,142.4,108.9,142.5,108.7,142.6z"/>
	<path style="&st2;" d="M125,143.3c-0.1,0.1-0.2-0.3-0.2-0.3c0.5-0.4,0.9-0.6,0.7-0.9c-0.2-0.4-0.8-0.7-1.4-1.2l-0.8-0.6l-2.5,1.7
		l0.2,1.1c0.2,0.9,0.3,1.4,0.5,1.7c0.2,0.3,0.5,0.1,1-0.2c0.1-0.1,0.3,0.3,0.2,0.3c-0.4,0.2-0.9,0.5-1.4,0.8
		c-0.7,0.4-0.8,0.5-1.2,0.9c-0.1,0.1-0.2-0.3-0.2-0.3c0.7-0.6,0.9-1.3,0.6-3l-1.2-7.3c0-0.1,0.1-0.2,0.2-0.1l6,4.1
		c1.2,0.8,1.8,1.2,3,0.6c0,0,0.3,0.3,0.2,0.3c-0.4,0.2-1.1,0.6-1.6,1C126.3,142.3,125.5,142.9,125,143.3z M120.6,141.4l2.1-1.4
		l-2.7-1.9L120.6,141.4z"/>
	<path style="&st2;" d="M135.4,134.6c-0.1,0.1-0.3-0.2-0.2-0.3c0.7-0.9,0.6-1.2-0.6-2.4l-1.3-1.4l-3.6,3.5l1.3,1.4
		c1.1,1.2,1.5,1.3,2.4,0.6c0,0,0.3,0.2,0.2,0.3c-0.4,0.3-1,0.8-1.4,1.3c-0.6,0.6-1.3,1.3-1.7,1.8c-0.1,0.1-0.3-0.2-0.2-0.3
		c0.9-1.1,0.9-1.3-0.4-2.6l-2.9-3c-1.2-1.3-1.5-1.3-2.6-0.4c0,0-0.3-0.2-0.2-0.3c0.5-0.3,1.2-1.1,1.8-1.6c0.4-0.4,1-1,1.3-1.4
		c0.1-0.1,0.3,0.2,0.3,0.2c-0.7,0.9-0.6,1.2,0.6,2.4l1.2,1.3l3.6-3.5l-1.2-1.3c-1.2-1.2-1.6-1.3-2.4-0.6c0,0-0.3-0.2-0.3-0.3
		c0.5-0.3,1.1-0.9,1.6-1.4c0.4-0.4,1.2-1.2,1.4-1.6c0.1-0.1,0.3,0.2,0.3,0.2c-1,1.1-0.8,1.4,0.4,2.6l2.9,3c1.2,1.2,1.4,1.4,2.6,0.4
		c0.1-0.1,0.3,0.2,0.2,0.3c-0.3,0.3-1.1,1-1.6,1.4C136.3,133.5,135.8,134.1,135.4,134.6z"/>
	<path style="&st2;" d="M137.1,126.2c-2.1-1.4-2.8-4.6-1.1-7.2c1.6-2.4,4.7-2.9,6.7-1.6c2.1,1.4,2.8,4.6,1.1,7.2
		C142.2,127,139.2,127.6,137.1,126.2z M137.5,124.6c2.5,1.7,4.9,1,6-0.6c1.1-1.6,0.9-3.5-1.1-4.9c-2.5-1.7-5-1-6,0.6
		C135.2,121.3,135.5,123.1,137.5,124.6z"/>
</g>
<line style="&st4;" x1="52.6" y1="106.1" x2="116.6" y2="106.1"/>
<line style="&st4;" x1="52.6" y1="63" x2="116.6" y2="63"/>
<path d="M100,146.8"/>
<path d="M69.6,145.5"/>
<path d="M97.4,144.8"/>
<path d="M95.9,145.5"/>
<path style="&st1;" d="M51.5,82c0-0.2,0-3,0-4.1c0-0.3,0-0.6,0-0.6s0.3,0,0.6,0s3.1,0,3.1,0c2.4,0,3.8,0.4,3.8,2.5
	c0,1.4-0.9,2.6-3.7,2.6c0,0-2.9,0-3.2,0c-0.3,0-0.6,0-0.6,0S51.5,82.3,51.5,82z M51.5,91.5c0-0.1,0-3.5,0-4.8c0-0.3,0-0.6,0-0.6
	s0.3,0,0.6,0c0.3,0,2.6,0,2.6,0c2.1,0,4.7,0,4.7,2.9c0,2.2-1.8,2.9-4.3,2.9c0,0-2.9,0-3,0c-0.3,0-0.6,0-0.6,0S51.5,91.8,51.5,91.5z
	 M43.9,74.8l0,19.9c0,0.6,0,0.9-0.4,1.2c-0.4,0.3-0.9,0.3-1.6,0.4c0,0,0,0,0,0c-0.1,0-0.1,0.3,0,0.3c0,0,16.1,0,16.1,0
	c6.8,0,9.6-2.7,9.6-6.9c0-3.1-1.4-5-4.3-5.7c0,0-0.1-0.1,0-0.1c1.8-0.6,3.5-1.9,3.5-5.1c0-4.4-3-5.9-9.4-5.9l-15.5,0
	c-0.1,0-0.1,0.3,0,0.3c0,0,0,0,0,0c0.7,0.1,1.2,0.2,1.6,0.4C44,73.9,43.9,74.2,43.9,74.8z"/>
<path style="&st1;" d="M125,74.8c0-0.6,0-0.9,0.4-1.2c0.4-0.3,0.9-0.3,1.6-0.4c0,0,0,0,0,0c0.1,0,0.1-0.3,0-0.3l-11.9,0
	c-0.1,0-0.1,0.3,0,0.3c0,0,0,0,0,0c0.8,0.1,1.1,0.2,1.5,0.4c0.5,0.3,0.4,0.5,0.4,1.2l0,12c0,2.7-1.6,4.8-4.7,4.8
	c-3.1,0-4.7-2.1-4.7-4.8l0-12c0-0.6,0-0.9,0.4-1.2c0.4-0.3,0.8-0.3,1.5-0.4c0,0,0,0,0,0c0.1,0,0.1-0.3,0-0.3H98.6
	c-0.1,0-0.1,0.3,0,0.3c0,0,0,0,0,0c0.4,0,0.7,0,0.9,0.3c0.4,0.3,0.4,0.7,0.4,1.3v11.8c0,5.7,3.1,10.5,12.5,10.5
	c9.4,0,12.5-4.8,12.5-10.5L125,74.8L125,74.8z"/>
<path style="&st1;" d="M89.1,96.6c0.1,0,0.1-0.3,0-0.3c0,0,0,0,0,0c-0.7-0.1-1.2-0.2-1.6-0.4C87,95.6,87,95.3,87,94.7v-7.6L95.2,75
	c0.4-0.7,0.7-1,1.1-1.3c0.1-0.1,0.2-0.2,0.3-0.2c0.3-0.2,0.5-0.2,0.9-0.2c0,0,0,0,0,0c0.1,0,0.1-0.3,0-0.3l-11.1,0
	c-0.1,0-0.1,0.3,0,0.3c0,0,0,0,0,0c0.5,0,1.2,0,1.1,0.8c-0.1,0.8-3.3,5.4-4.4,7.1c-0.2,0.3-0.3,0.5-0.3,0.8c0-0.3-0.2-0.6-0.4-0.8
	c-1.6-2.4-4.3-6.2-4.4-7.1c-0.1-0.8,0.6-0.8,1.1-0.8c0,0,0,0,0,0c0.1,0,0.1-0.3,0-0.3l-11.6,0c-0.1,0-0.1,0.3,0,0.3c0,0,0,0,0,0
	c0.5,0,0.8,0,1.3,0.3c0.1,0,0.2,0.1,0.3,0.2c0.4,0.3,0.6,0.6,1,1.3l8.2,12.1v7.6c0,0.6,0,0.9-0.4,1.2c-0.4,0.3-0.9,0.3-1.6,0.4
	c0,0,0,0,0,0c-0.1,0-0.1,0.3,0,0.3L89.1,96.6L89.1,96.6z"/>
<g>
	<path style="&st1;" d="M65,121.7c-0.7,0-1.4,0-1.9,0.1c-0.1,0,0-0.3,0-0.3c1-0.1,1.2-0.3,1.2-1.8v-3.5c0-1.5-0.2-1.7-1.2-1.8
		c0,0-0.1-0.3,0-0.3c0.5,0.1,1.2,0.1,1.9,0.1c0.5,0,1.3,0,1.6-0.1c0.1,0,0.1,0.3,0,0.3c-1.1,0.1-1.2,0.4-1.2,1.8v3.5
		c0,1.4,0.1,1.7,1.2,1.8c0,0,0.1,0.3,0,0.3C66.2,121.7,65.4,121.7,65,121.7z"/>
	<path style="&st1;" d="M70.9,121.7c-0.7,0-1.6,0-2.1,0.1c-0.2,0-0.1-0.3,0-0.3c1-0.1,1.2-0.3,1.2-1.8v-3.5c0-1.5-0.2-1.7-1.2-1.8
		c0,0-0.1-0.3,0-0.3c0.5,0.1,1.5,0.1,2.2,0.1c0.3,0,1.4,0,1.8,0c2.8,0,4.3,1.6,4.3,3.7c0,2.1-1.8,3.9-4.5,3.9
		C72.2,121.8,71.2,121.7,70.9,121.7z M71.3,114.7c-0.1,0.4-0.1,0.6-0.1,1.5v3.9c0,0.9,0.1,1.1,1.7,1.1c1.4,0,2.9-0.9,2.9-2.9
		c0-2.4-1.2-3.7-3.4-3.7C71.7,114.7,71.5,114.7,71.3,114.7z"/>
	<path style="&st1;" d="M82.9,121.8c-0.1,0,0-0.3,0-0.3c0.5-0.1,0.9,0,0.9-0.3c0-0.4-0.2-0.9-0.4-1.5l-0.3-0.8h-2.5l-0.4,0.8
		c-0.3,0.7-0.5,1.1-0.5,1.4c0,0.3,0.3,0.3,0.8,0.3c0.1,0,0.1,0.3,0,0.3c-0.4,0-0.8-0.1-1.3-0.1c-0.7,0-0.8,0-1.3,0.1
		c-0.1,0,0-0.3,0-0.3c0.8-0.1,1.2-0.5,1.8-1.8l2.6-5.6c0-0.1,0.2-0.1,0.2,0l2.2,5.6c0.4,1.1,0.7,1.7,1.8,1.8c0,0,0.1,0.3,0,0.3
		c-0.4,0-1-0.1-1.6-0.1C84.2,121.7,83.3,121.7,82.9,121.8z M80.7,118.5h2.2l-1-2.6L80.7,118.5z"/>
	<path style="&st1;" d="M93.1,121.8c-0.1,0,0-0.3,0-0.3c0.9-0.1,1.1-0.3,1.1-1.8v-1.6H90v1.6c0,1.4,0.1,1.7,1.1,1.8
		c0,0,0.1,0.3,0,0.3c-0.4,0-1.1-0.1-1.6-0.1c-0.7,0-1.5,0-2,0.1c-0.1,0,0-0.3,0-0.3c1.2-0.1,1.3-0.3,1.3-1.8v-3.5
		c0-1.5-0.1-1.7-1.3-1.8c0,0-0.1-0.3,0-0.3c0.5,0.1,1.3,0.1,2,0.1c0.5,0,1.2,0,1.6-0.1c0.1,0,0.1,0.3,0,0.3
		c-0.9,0.1-1.1,0.4-1.1,1.8v1.5h4.2v-1.5c0-1.5-0.2-1.7-1.1-1.8c0,0-0.1-0.3,0-0.3c0.5,0.1,1.1,0.1,1.8,0.1c0.5,0,1.4,0,1.8-0.1
		c0.1,0,0.1,0.3,0,0.3c-1.2,0.1-1.3,0.4-1.3,1.8v3.5c0,1.4,0.1,1.7,1.3,1.8c0.1,0,0.1,0.3,0,0.3c-0.4,0-1.3-0.1-1.8-0.1
		C94.2,121.7,93.6,121.7,93.1,121.8z"/>
	<path style="&st1;" d="M98.2,118.1c0-2.1,1.9-4.1,4.4-4.1c2.4,0,4.2,1.8,4.2,3.9c0,2.1-1.9,4.1-4.4,4.1
		C100.1,122,98.2,120.1,98.2,118.1z M99.5,117.6c0,2.5,1.6,3.9,3.2,3.9c1.7,0,2.9-1,2.9-3.1c0-2.5-1.6-3.9-3.2-3.9
		C100.7,114.5,99.5,115.5,99.5,117.6z"/>
</g>
</svg>
