<?xml version="1.0" encoding="utf-8"?>
<!-- Generator: Adobe Illustrator 22.1.0, SVG Export Plug-In . SVG Version: 6.00 Build 0)  -->
<!DOCTYPE svg PUBLIC "-//W3C//DTD SVG 1.1//EN" "http://www.w3.org/Graphics/SVG/1.1/DTD/svg11.dtd" [
	<!ENTITY st0 "fill:#3B3939;">
	<!ENTITY st1 "fill:#3A3838;">
	<!ENTITY st2 "fill:#363D2B;">
	<!ENTITY st3 "fill:#3C3A3B;">
	<!ENTITY st4 "fill:#373536;">
	<!ENTITY st5 "fill:#3B393A;">
	<!ENTITY st6 "fill:#FAA61A;">
	<!ENTITY st7 "fill:#696666;">
	<!ENTITY st8 "fill:#07090A;">
	<!ENTITY st9 "fill:#74746F;">
	<!ENTITY st10 "fill:#2C2A2A;">
]>
<svg version="1.1" id="Layer_1" xmlns="http://www.w3.org/2000/svg" xmlns:xlink="http://www.w3.org/1999/xlink" x="0px" y="0px"
	 viewBox="0 0 223.8 180.9" style="enable-background:new 0 0 223.8 180.9;" xml:space="preserve">
<g id="yAYRsL.tif">
	<g>
		<path style="&st0;" d="M164.6,102.9c-2.6,3.3-6,5-10.2,4.8c-3.1-0.2-5.8-1.5-8-3.9c-4-4.4-4-11,0.1-15.5c1.6-1.8,3.5-2.9,5.8-3.5
			c2.3-0.6,4.6-0.4,6.8,0.4c2.2,0.8,3.9,2.3,5.6,4.3c0.1-0.7,0.2-1.1,0.2-1.6c0-0.8,0-1.7,0-2.5c0-0.6,0.3-1,0.9-1
			c0.7,0,0.9,0.3,0.9,1c0,2.2,0,4.3,0,6.5c0,4.8,0,9.7,0,14.5c0,0.7,0,1.3-0.9,1.3c-0.9,0-1-0.7-1-1.4c0-1.1,0-2.2,0-3.3
			C164.9,103,164.7,102.9,164.6,102.9z M155.2,105.9c4.9,0.2,9.9-4.1,9.9-9.8c0-5.7-4.9-10-9.9-9.9c-5.5,0.1-9.8,4.4-9.9,9.8
			C145.2,101.7,150.2,106.1,155.2,105.9z"/>
		<path style="&st1;" d="M37.7,85.8c-1.1,0.3-1.8,0.3-2.4-0.7c-1.9-3.4-4.8-5.7-8.6-6.5c-5.2-1.2-9.8,0-13.6,4
			C9.6,86.4,8.6,91,10,96c1.3,4.5,4.3,7.7,8.8,9.2c5.8,2,11.5,0.3,15.4-4.4c0.6-0.7,0.9-1.5,1.5-2.2c0.2-0.3,0.6-0.5,1-0.6
			c0.3-0.1,0.7,0,0.9,0.2c0.1,0.1,0,0.6-0.2,0.8c-2.5,4.6-6.2,7.6-11.5,8.4c-6.6,1-11.7-1.4-15.5-6.7C8.8,98.5,8,96,8,93.2
			c0-2.8,0-5.5,1.3-8.2c3.1-6.2,10.1-9.8,16.9-8.4c5.2,1,8.9,3.9,11.3,8.6C37.6,85.4,37.6,85.5,37.7,85.8z"/>
		<path style="&st2;" d="M189.1,107.5c-0.8,0.6-5.1,0.6-5.8,0c-0.4-0.4-0.7-0.9-0.8-1.4c-0.1-1.3-0.1-2.7,0-4.1
			c0-0.3,0.3-0.5,0.4-0.7c0.1,0,0.2,0,0.3,0c0.1,0,0.3,0,0.4,0c1.4,0.1,2.8,0.1,4.2,0.2c-0.3,0.1-0.6,0.2-1,0.2c-1,0-2,0.1-2.9,0
			c-0.7,0-1,0.2-0.9,1c0,1,0,2.1,0,3.1c0,1.1,0.5,1.6,1.5,1.6c1.1,0,2.3,0,3.4,0c0.2,0,0.7-0.3,0.7-0.5c0.1-1.6,0.1-3.1,0-4.7
			c0-0.2-0.3-0.5-0.4-0.7c0.4-1.5-0.4-2.8-0.9-4.1c0-0.1-0.1-0.3-0.1-0.4c-0.2-0.6-0.4-1.3-0.5-1.9c0-0.1-0.1-0.3-0.1-0.4
			c-0.1-0.3-0.2-0.7-0.3-1c0-0.1-0.1-0.3-0.1-0.4c-0.2-0.7-0.4-1.4-0.6-2.1c0-0.1-0.1-0.3-0.1-0.4c-0.3-1-0.6-2.1-0.9-3.1
			c0-0.2-0.1-0.4-0.1-0.6c-0.2-0.8-0.2-1.6,0.5-2.3c0.1-0.1,0.1-0.1,0.2-0.2c0.5-0.4,0.9-0.9,1.4-1.3c0.5-0.5,1-1,1.5-1.4
			c0.1-0.1,0.3-0.3,0.4-0.4c0,0,0,0,0,0c0.5-0.4,0.9-0.9,1.4-1.3c0.3-0.3,0.6-0.6,0.9-0.8c0.7-0.6,1.4-1.3,2.1-1.9
			c0.1,0,0.1,0,0.1-0.1c0.3-0.2,0.5-0.5,0.8-0.7c0,0,0,0,0,0c0.3-0.2,0.6-0.6,1-0.7c0.4-0.2,0.9-0.3,1.2-0.2
			c2.3,0.8,4.6,1.6,6.9,2.5c1.2,0.5,2.4,1,3.6,1.5c0,0.1,0,0.3,0,0.4c-0.5,0-1,0.2-1.5,0.1c-0.5-0.1-1.1-0.3-1.6-0.5
			c-0.1,0-0.3-0.1-0.4-0.1c-0.8-0.3-1.7-0.6-2.5-1c-0.1,0-0.3-0.1-0.4-0.1c-0.3-0.1-0.6-0.2-0.8-0.4c-0.2,0-0.3-0.1-0.5-0.1
			c-0.7-0.3-1.4-0.6-2-0.9c-0.1,0.1-0.2,0.2-0.3,0.3c0.2,0.4,0.3,0.7,0.5,1.1c0,0.1,0,0.3,0.1,0.4c0.1,0.4,0.3,0.8,0.4,1.2
			c0,0.1,0.1,0.3,0.1,0.4c0.2,0.6,0.4,1.3,0.5,1.9c0,0.1,0.1,0.3,0.1,0.4c0.3,1.1,0.6,2.2,1,3.4c0,0.1,0.1,0.3,0.1,0.4
			c0.2,0.6,0.4,1.3,0.5,1.9c0,0.1,0.1,0.3,0.1,0.4c0.1,0.3,0.2,0.7,0.4,1c0,0.1,0.1,0.3,0.1,0.4c0.3,0.3,0.5,0.7,0.9,0.8
			c1.7,0.7,3.4,1.4,5.1,2.1c1.9,0.7,3.8,1.4,5.6,2.1c0.1,0,0.2,0,0.3,0.1c0.3,0.1,0.6,0.3,1,0.4c0.1-0.1,0.2-0.2,0.2-0.2
			c-0.3-0.9-0.6-1.7-0.8-2.6c0-0.2-0.1-0.4-0.1-0.6c-0.3-1.2-0.6-2.4-1-3.6c0-0.2-0.1-0.4-0.1-0.6c0-0.8,0.1-1.5,0.1-2.3
			c0.1,0,0.3,0,0.4,0c0.2,0.3,0.4,0.6,0.6,0.8c0,0.2,0.1,0.4,0.1,0.6c0.3,1.2,0.6,2.4,0.9,3.6c0,0.1,0.1,0.3,0.1,0.4
			c0.3,1.2,0.6,2.4,0.9,3.6c0,0.2,0.1,0.4,0.1,0.6c0,0.8,0,1.5,0.1,2.3l0,0c0,0,0,0,0,0c-0.2,0.1-0.3,0.3-0.5,0.4
			c-0.1,0-0.1,0-0.1,0.1c-0.2,0.2-0.4,0.4-0.5,0.5c-0.3,0.3-0.6,0.6-1,0.9c-0.7,0.6-1.4,1.3-2.1,1.9c-0.1,0.1-0.3,0.3-0.4,0.4
			c-0.4,0.4-0.9,0.8-1.3,1.2c0,0,0,0,0,0l0-0.1c-0.2,0.1-0.3,0.3-0.5,0.4c-0.5,0.4-0.9,0.8-1.4,1.3c-0.3,0.3-0.6,0.6-0.9,0.8
			c0,0,0,0,0,0l0,0c-0.2,0.1-0.3,0.3-0.5,0.4c-0.3,0.2-0.5,0.5-0.8,0.7c-0.8,0.7-1.5,0.5-2.4,0.2c-4.1-1.7-8.2-3.3-12.3-4.9
			c-0.9-0.3-1.1-0.2-1.2,0.8C189.1,104.5,189.1,106,189.1,107.5z M205,105.1C205,105.1,205,105,205,105.1c0.3-0.2,0.7-0.4,1-0.6
			c1.8-1.6,3.6-3.3,5.4-4.9c0.7-0.6,1.3-1.3,2.1-2.1c-0.4-0.2-0.6-0.4-0.8-0.5c-4-1.6-8.1-3.2-12.2-4.7c-0.4-0.2-1.2,0.1-1.6,0.4
			c-1,0.8-2,1.8-2.9,2.7c-1.2,1.2-2.3,2.4-3.5,3.5c-0.2,0.2-0.4,0.4-0.6,0.5c-0.1,0.1-0.1,0.1-0.2,0.2c-0.3,0.3-0.5,0.5-0.8,0.8
			c-0.9,0.6-0.4,0.9,0.2,1.1c3.8,1.5,7.5,3,11.3,4.5C203.9,106.5,204.2,106.4,205,105.1z M195.2,77.2c-0.4,0.3-0.7,0.5-0.9,0.7
			c-2.7,2.5-5.3,4.9-8,7.4c-0.5,0.5-0.6,0.9-0.4,1.6c1.1,3.8,2.1,7.7,3.2,11.5c0.1,0.5,0.4,0.9,0.6,1.4c0.3-0.2,0.4-0.2,0.5-0.3
			c2.8-2.7,5.6-5.3,8.4-8c0.2-0.2,0.3-0.8,0.2-1.2c-0.6-2.4-1.2-4.7-1.9-7.1C196.3,81.2,195.8,79.3,195.2,77.2z"/>
		<path style="&st3;" d="M138.2,86.4c-0.7-0.1-1.1-0.1-1.4-0.1c-5.7,0-11.4,0-17.1,0c-0.8,0-1.4-0.2-1.2-1.1
			c0.1-0.3,0.5-0.6,0.8-0.8c0.1-0.1,0.4,0,0.6,0c7.1,0,14.2,0,21.3,0c0.3,0,0.7,0,1,0.1c0.1,0.1,0.1,0.2,0.2,0.3
			c-6.6,6.9-13.2,13.8-20.1,20.9c0.6,0.1,1,0.2,1.4,0.2c5.7,0,11.4,0,17.1,0c0.7,0,1.3,0.1,1.2,1c0,0.8-0.5,0.9-1.2,0.9
			c-7.3,0-14.5,0-21.8,0c-0.2,0-0.3,0-0.8,0c0.3-0.5,0.4-0.8,0.7-1.1c6.1-6.4,12.3-12.8,18.4-19.2C137.5,87.2,137.7,86.9,138.2,86.4
			z"/>
		<path style="&st4;" d="M64,91.6c0,1.8,0.1,3.7,0,5.5c-0.2,4.9-4.4,9.4-9.2,10.3c-5.5,1.1-10.4-1.9-12.5-5.7c-1-1.9-1.5-3.9-1.5-6
			c0-3.4,0-6.8,0-10.3c0-0.6,0-1.1,0.8-1.1c0.8,0,0.9,0.5,0.9,1.1c0,3.6,0,7.1,0,10.7c-0.1,4.7,3.5,8.8,7.8,9.6
			c5.7,1,9.7-2.1,11.3-6.3c0.4-1,0.6-2.2,0.6-3.4c0.1-3.5,0-7,0-10.5c0-0.6,0-1.2,0.9-1.2c0.9,0,0.8,0.6,0.8,1.1
			C64.1,87.5,64.1,89.6,64,91.6C64.1,91.6,64,91.6,64,91.6z"/>
		<path style="&st5;" d="M69.1,89.5c1-1,1.8-1.8,2.6-2.5c5.3-4.1,12.1-3.3,16.4,2c1.6,1.9,2.3,4.1,2.4,6.6c0,0.3-0.4,0.9-0.7,1
			c-0.6,0.2-1-0.2-1-0.9c-0.2-7-8.1-11.8-14.7-8c-3.2,1.8-5,4.8-5,8.5c-0.1,3.4,0,6.8,0,10.3c0,0.3,0.1,0.6,0,0.8
			c-0.2,0.3-0.5,0.6-0.8,0.6c-0.3,0-0.6-0.3-0.8-0.6c-0.1-0.2,0-0.5,0-0.7c0-6.9,0-13.8,0-20.6c0-0.2-0.1-0.5,0-0.6
			c0.3-0.3,0.6-0.6,0.9-0.7c0.2,0,0.7,0.4,0.7,0.7c0.1,1,0,2,0,3C69,88.5,69,88.8,69.1,89.5z"/>
		<path style="&st6;" d="M189.1,107.5c0-1.5,0-3.1,0-4.6c0-0.9,0.3-1.1,1.2-0.8c4.1,1.6,8.2,3.3,12.3,4.9c0.9,0.4,1.6,0.5,2.4-0.2
			c0.2,0.1,0.3,0.4,0.5,0.4c1.6-0.1,3.3,0.1,4.8-0.3c3.3-1,6.2-4.1,6.1-8.5c-0.1-5.2,0-10.4,0-15.6c0-0.9,0-1.8-0.3-2.6
			c-0.6-2-1.9-3.6-3.6-4.7c-1.3-0.8-2.7-1.4-4.4-1.4c-5.5,0.1-11.1,0.1-16.6,0c-1.9,0-3.5,0.7-4.9,1.8c-2.4,1.8-3.5,4.4-3.5,7.4
			c0.1,6,0.1,11.9,0.2,17.9c-0.1,0-0.2,0-0.3,0c-0.2-1.5-0.4-3-0.4-4.4c-0.1-4.6,0-9.1,0-13.7c0-4.1,2.8-7.9,6.7-9.1
			c0.9-0.3,2-0.5,2.9-0.5c5,0,9.9,0.1,14.9-0.1c4.9-0.2,8.6,3.5,9.6,7.2c0.2,0.6,0.2,1.3,0.2,2c0,5.3-0.1,10.7,0,16
			c0.1,3.7-3,7.7-6.6,8.6c-1.1,0.3-2.2,0.5-3.4,0.5c-4.5,0.1-9.1,0-13.6,0C191.8,107.9,190.5,107.7,189.1,107.5z"/>
		<path style="&st7;" d="M96,89.1c3-3.6,6.8-5.4,11.4-4.7c3.2,0.5,5.7,2.1,7.6,4.7c3.6,4.8,2.8,11.6-1.8,15.7
			c-4,3.6-11.7,4.7-17.4-1.9c-0.1,0.4-0.1,0.7-0.1,1c0,1,0,2,0,3c0,0.6-0.2,0.9-0.9,0.9c-0.6,0-0.9-0.3-1-0.8c0-0.2,0-0.4,0-0.6
			c0-9.6,0-19.1,0-28.7c0-0.5,0.2-1.1,0.5-1.3c0.7-0.4,1.3,0.1,1.3,1.1c0,3.5,0,6.9,0,10.4c0,0.4,0,0.8,0.1,1.2
			C95.9,89,95.9,89.1,96,89.1z M95.7,89.9c-0.1-0.4-0.3-0.8-0.3-1.2c0-3.6,0-7.1,0-10.7c0-0.3,0.1-0.6,0-0.8
			c-0.1-0.2-0.4-0.4-0.6-0.4c-0.2,0-0.5,0.3-0.5,0.5c-0.1,0.2,0,0.5,0,0.8c0,6.7,0,13.4,0,20.1c0,2.8,0,5.5,0,8.3
			c0,0.3,0.4,0.6,0.6,0.9c0.2-0.3,0.6-0.6,0.6-0.9c0.1-1.1,0-2.2,0-3.2c0-0.3,0.2-0.5,0.3-0.8c0.2,0.2,0.5,0.3,0.7,0.5
			c2.5,3.2,5.8,4.6,9.8,4.5c7-0.2,12.7-7.6,10-15c-1.6-4.4-4.7-7-9.5-7.5C102.2,84.3,98.7,86.2,95.7,89.9z"/>
		<path style="&st6;" d="M183.2,101.2c-0.1-6-0.2-11.9-0.2-17.9c0-3,1.1-5.6,3.5-7.4c1.4-1.1,3-1.8,4.9-1.8c5.5,0.1,11.1,0.1,16.6,0
			c1.7,0,3.1,0.6,4.4,1.4c1.7,1.1,3,2.7,3.6,4.7c0.3,0.8,0.3,1.7,0.3,2.6c0,5.2,0,10.4,0,15.6c0.1,4.4-2.8,7.5-6.1,8.5
			c-1.5,0.5-3.2,0.3-4.8,0.3c-0.1,0-0.3-0.2-0.5-0.4c0.3-0.2,0.5-0.5,0.8-0.7c0.2-0.1,0.3-0.3,0.5-0.4l0,0c0,0,0,0,0,0
			c0.3-0.3,0.6-0.6,0.9-0.8c0.5-0.4,0.9-0.8,1.4-1.3c0.2-0.1,0.3-0.3,0.5-0.4l0,0.1c0,0,0,0,0,0c0.4-0.4,0.9-0.8,1.3-1.2
			c0.1-0.1,0.3-0.3,0.4-0.4c1.1-0.2,1.7-1,2.1-1.9c0.3-0.3,0.6-0.6,1-0.9c0.2-0.2,0.4-0.4,0.5-0.5c0-0.1,0.1-0.1,0.1-0.1
			c0.2-0.1,0.3-0.3,0.5-0.4c0,0,0,0,0,0s0,0,0,0c0.2-0.2,0.6-0.4,0.6-0.6c0.1-0.7,0.1-1.3-0.7-1.7c0-0.2-0.1-0.4-0.1-0.6
			c0.1-0.2,0.2-0.4,0.2-0.5c-0.2-0.9-0.5-1.8-0.7-2.7c0-0.1-0.3-0.2-0.4-0.3c0-0.1-0.1-0.3-0.1-0.4c0.3-0.8-0.2-2.9-0.8-3.5
			c0,0-0.1,0-0.1,0c0-0.2-0.1-0.4-0.1-0.6c0-0.3,0-0.5,0.1-0.8c-0.2,0-0.5,0-0.7,0c-0.1,0-0.3,0-0.4,0c-0.6-0.4-0.8,0-0.8,0.4
			c-0.1,0.7,0,1.5,0.7,1.9c0,0.2,0.1,0.4,0.1,0.6c-0.1,1.3,0.1,2.5,1,3.6c0,0.2,0.1,0.4,0.1,0.6c0,0.4-0.1,0.8,0,1.2
			c0.2,0.5,0.4,1-0.4,1.2c-0.1,0-0.2,0-0.3-0.1c-0.2-0.2-0.3-0.5-0.5-0.6c-3.7-1.5-7.4-3-11.1-4.5c0-0.1-0.1-0.3-0.1-0.4
			c0.4-0.5,0.3-0.9-0.4-1c0-0.1-0.1-0.3-0.1-0.4c0.3-0.8,0.1-1.4-0.5-1.9c0-0.1-0.1-0.3-0.1-0.4c0.1-0.2,0.2-0.4,0.2-0.5
			c-0.2-0.9-0.5-1.7-0.7-2.5c0-0.1-0.3-0.2-0.4-0.3c0-0.1-0.1-0.3-0.1-0.4c0.5-0.8,0-1.4-0.5-1.9c0-0.1-0.1-0.3-0.1-0.4
			c0.4-0.6,0.2-1-0.4-1.2c0-0.1,0-0.3-0.1-0.4c0.1-0.3,0.1-0.5,0.2-0.7c0.5,0.1,1.1,0.2,1.6,0.3c0.2,0,0.3,0.1,0.5,0.1
			c0.1,0.5,0.3,0.8,0.8,0.4c0.1,0,0.3,0.1,0.4,0.1c0.7,0.8,1.5,1,2.5,1c0.1,0,0.3,0.1,0.4,0.1c0.4,0.5,2.1,1.3,2.6,1.1
			c0.2-0.1,0.3-0.5,0.5-0.8c0-0.1,0-0.3,0-0.4c-0.1-0.3-0.2-0.6-0.4-0.7c-1.6-0.7-3.2-1.3-4.8-1.9c-1.7-0.6-3.4-1.2-5.1-1.8
			c-1.2-0.4-1.9,0-2.4,1.3c0,0,0,0,0,0c-0.3,0.2-0.5,0.5-0.8,0.7c0,0.1,0,0.1-0.1,0.1c-1.1,0.2-1.6,1-2.1,1.9
			c-0.3,0.3-0.6,0.6-0.9,0.8c-0.5,0.4-0.9,0.9-1.4,1.3c0,0,0,0,0,0c-0.1,0.1-0.3,0.3-0.4,0.4c-0.5,0.5-1,1-1.5,1.4
			c-0.5,0.4-0.9,0.9-1.4,1.3c-0.1,0.1-0.1,0.1-0.2,0.2c-0.4,0.3-1,0.6-1.1,1c-0.1,0.4,0.4,0.9,0.6,1.3c0,0.2,0.1,0.4,0.1,0.6
			c-0.2,0.6,0.4,2.7,0.9,3.1c0,0.1,0.1,0.3,0.1,0.4c-0.5,0.9,0,1.5,0.6,2.1c0,0.1,0.1,0.3,0.1,0.4c-0.4,0.5-0.3,0.8,0.3,1
			c0,0.1,0.1,0.3,0.1,0.4c-0.5,0.8,0.1,1.3,0.5,1.9c0,0.1,0.1,0.3,0.1,0.4c0,0.3-0.1,0.7,0,1c0.2,0.8,0.4,1.5,0.7,2.5
			c-1.3,0-2.4,0-3.5,0c-0.3,0-0.6,0.2-0.9,0.4C183.5,101.2,183.3,101.2,183.2,101.2z"/>
		<path style="&st8;" d="M188.2,101.4c0.1,0.2,0.4,0.5,0.4,0.7c0,1.6,0,3.1,0,4.7c0,0.2-0.4,0.5-0.7,0.5c-1.1,0.1-2.3,0-3.4,0
			c-1,0-1.5-0.5-1.5-1.6c0-1,0-2.1,0-3.1c0-0.7,0.2-1,0.9-1c1,0.1,2,0,2.9,0c0.3,0,0.6-0.1,1-0.2
			C187.9,101.4,188.1,101.4,188.2,101.4z"/>
		<path style="&st9;" d="M205,105c1.1-1.1,2.2-2.2,3.3-3.3c1.5-1.4,3-2.8,4.7-4.3c-1.6-0.7-3-1.3-4.4-1.8c-2.6-1-5.1-1.9-7.7-3
			c-0.8-0.3-1.3-0.2-1.9,0.4c-1.9,1.8-3.7,3.5-5.6,5.3c-0.2,0.2-0.5,0.3-0.7,0.5c1.2-1.2,2.3-2.4,3.5-3.5c0.9-0.9,1.9-1.9,2.9-2.7
			c0.4-0.3,1.1-0.5,1.6-0.4c4.1,1.5,8.1,3.1,12.2,4.7c0.2,0.1,0.4,0.3,0.8,0.5c-0.7,0.7-1.4,1.4-2.1,2.1c-1.8,1.7-3.6,3.3-5.4,4.9
			C205.7,104.7,205.4,104.8,205,105z"/>
		<path style="&st9;" d="M191,100.3c0.2,0.3,0.4,0.8,0.7,0.9c3.7,1.5,7.4,2.9,11.1,4.5c1.1,0.5,1.5-0.4,2.3-0.7
			c-0.8,1.3-1.1,1.4-2.5,0.9c-3.8-1.5-7.5-3-11.3-4.5C190.5,101.2,190.1,100.9,191,100.3z"/>
		<path style="&st6;" d="M193.9,76.3c0.5-1.2,1.2-1.7,2.4-1.3c1.7,0.6,3.4,1.2,5.1,1.8c1.6,0.6,3.2,1.2,4.8,1.9
			c0.2,0.1,0.3,0.5,0.4,0.7c-1.2-0.5-2.4-1.1-3.6-1.5c-2.3-0.9-4.6-1.7-6.9-2.5c-0.3-0.1-0.8,0.1-1.2,0.2
			C194.5,75.8,194.2,76.1,193.9,76.3z"/>
		<path style="&st6;" d="M200.2,90.3c3.7,1.5,7.4,3,11.1,4.5c0.2,0.1,0.3,0.4,0.5,0.6c-1.9-0.7-3.8-1.4-5.6-2.1
			c-1.7-0.7-3.4-1.3-5.1-2.1C200.8,91,200.5,90.6,200.2,90.3z"/>
		<path style="&st6;" d="M188.2,101.4c-0.1,0-0.3,0-0.4,0c-1.4-0.1-2.8-0.1-4.2-0.2c0.3-0.1,0.6-0.4,0.9-0.4c1.1,0,2.3,0,3.5,0
			c-0.3-1-0.5-1.7-0.7-2.5c-0.1-0.3,0-0.7,0-1C187.8,98.6,188.6,99.9,188.2,101.4z"/>
		<path style="&st6;" d="M206.6,79.9c-0.2,0.3-0.3,0.7-0.5,0.8c-0.5,0.2-2.3-0.6-2.6-1.1c0.5,0.2,1,0.4,1.6,0.5
			C205.6,80,206.1,79.9,206.6,79.9z"/>
		<path style="&st6;" d="M212.6,87.4C212.7,87.4,212.7,87.4,212.6,87.4c0.7,0.6,1.2,2.7,0.9,3.6C213.3,89.8,212.9,88.6,212.6,87.4z"
			/>
		<path style="&st6;" d="M212.4,92.4c-0.8-1-1.1-2.2-1-3.6C211.8,90.1,212.1,91.2,212.4,92.4z"/>
		<path style="&st6;" d="M213.7,91.4c0.1,0.1,0.4,0.2,0.4,0.3c0.3,0.9,0.5,1.8,0.7,2.7c0,0.2-0.1,0.4-0.2,0.5
			C214.3,93.8,214,92.6,213.7,91.4z"/>
		<path style="&st6;" d="M198.1,82.8c0.1,0.1,0.4,0.1,0.4,0.3c0.3,0.8,0.5,1.7,0.7,2.5c0,0.2-0.1,0.4-0.2,0.5
			C198.8,85,198.5,83.9,198.1,82.8z"/>
		<path style="&st6;" d="M212.2,95.4c0.8-0.2,0.6-0.7,0.4-1.2c-0.1-0.4,0-0.8,0-1.2c0.3,0.9,0.6,1.7,0.8,2.6
			c-0.1,0.1-0.2,0.2-0.2,0.2C212.8,95.7,212.5,95.6,212.2,95.4z"/>
		<path style="&st6;" d="M211.4,88.2c-0.7-0.4-0.8-1.2-0.7-1.9c0.1-0.5,0.3-0.8,0.8-0.4C211.4,86.7,211.4,87.5,211.4,88.2z"/>
		<path style="&st6;" d="M185.6,90.6c-0.5-0.4-1.1-2.5-0.9-3.1C185,88.5,185.3,89.5,185.6,90.6z"/>
		<path style="&st6;" d="M184.6,86.8c-0.2-0.5-0.7-1-0.6-1.3c0.1-0.4,0.7-0.6,1.1-1C184.4,85.1,184.4,85.9,184.6,86.8z"/>
		<path style="&st6;" d="M198.8,77.9c-0.5-0.1-1.1-0.2-1.6-0.3c-0.1,0.2-0.1,0.5-0.2,0.7c-0.2-0.4-0.3-0.7-0.5-1.1
			c0.1-0.1,0.2-0.2,0.3-0.3C197.5,77.3,198.1,77.6,198.8,77.9z"/>
		<path style="&st6;" d="M214.7,95.6c0.8,0.3,0.8,1,0.7,1.7c0,0.2-0.4,0.4-0.6,0.6C214.8,97.1,214.7,96.3,214.7,95.6z"/>
		<path style="&st6;" d="M212.7,99.7c-0.4,0.9-1,1.7-2.1,1.9C211.3,101,212,100.4,212.7,99.7z"/>
		<path style="&st6;" d="M190.9,79c0.5-0.9,1-1.7,2.1-1.9C192.3,77.8,191.6,78.4,190.9,79z"/>
		<path style="&st6;" d="M203.1,79.4c-1,0.1-1.9-0.2-2.5-1C201.4,78.8,202.3,79.1,203.1,79.4z"/>
		<path style="&st6;" d="M186.2,93.1c-0.6-0.6-1-1.2-0.6-2.1C185.9,91.7,186,92.4,186.2,93.1z"/>
		<path style="&st6;" d="M197.5,80.5c0.5,0.5,1.1,1,0.5,1.9C197.9,81.7,197.7,81.1,197.5,80.5z"/>
		<path style="&st6;" d="M187.3,96.8c-0.4-0.5-1.1-1.1-0.5-1.9C186.9,95.6,187.1,96.2,187.3,96.8z"/>
		<path style="&st6;" d="M199.2,86.6c0.7,0.5,0.8,1.1,0.5,1.9C199.5,87.8,199.4,87.2,199.2,86.6z"/>
		<path style="&st6;" d="M185.3,84.3c0.5-0.4,0.9-0.9,1.4-1.3C186.2,83.4,185.8,83.9,185.3,84.3z"/>
		<path style="&st6;" d="M188.7,81.1c0.5-0.4,0.9-0.9,1.4-1.3C189.6,80.3,189.1,80.7,188.7,81.1z"/>
		<path style="&st6;" d="M210.2,102.1c-0.4,0.4-0.9,0.8-1.3,1.2C209.3,102.9,209.8,102.5,210.2,102.1z"/>
		<path style="&st6;" d="M211.9,85.9c0.2,0,0.5,0,0.7,0c0,0.3,0,0.5-0.1,0.8C212.3,86.5,212.1,86.2,211.9,85.9z"/>
		<path style="&st6;" d="M197.1,78.8c0.6,0.3,0.8,0.7,0.4,1.2C197.3,79.6,197.2,79.2,197.1,78.8z"/>
		<path style="&st6;" d="M199.8,88.9c0.6,0.2,0.8,0.5,0.4,1C200,89.6,199.9,89.2,199.8,88.9z"/>
		<path style="&st6;" d="M186.7,94.5c-0.6-0.2-0.7-0.5-0.3-1C186.4,93.8,186.6,94.2,186.7,94.5z"/>
		<path style="&st6;" d="M207,105c-0.3,0.3-0.6,0.6-0.9,0.8C206.5,105.5,206.8,105.3,207,105z"/>
		<path style="&st6;" d="M200.2,78.4c-0.5,0.5-0.7,0.1-0.8-0.4C199.6,78.1,199.9,78.2,200.2,78.4z"/>
		<path style="&st6;" d="M193.1,77c0.3-0.2,0.5-0.5,0.8-0.7C193.6,76.6,193.3,76.8,193.1,77z"/>
		<path style="&st6;" d="M214.2,98.3c-0.2,0.2-0.3,0.4-0.5,0.5C213.8,98.7,214,98.5,214.2,98.3z"/>
		<path style="&st6;" d="M206.2,105.8c-0.2,0.1-0.3,0.3-0.5,0.4C205.9,106.1,206,105.9,206.2,105.8z"/>
		<path style="&st6;" d="M214.8,97.8c-0.2,0.1-0.3,0.3-0.5,0.4C214.5,98.1,214.6,98,214.8,97.8z"/>
		<path style="&st6;" d="M188.2,81.6c0.1-0.1,0.3-0.3,0.4-0.4C188.5,81.3,188.4,81.4,188.2,81.6z"/>
		<path style="&st6;" d="M208.9,103.3c-0.2,0.1-0.3,0.3-0.5,0.4C208.6,103.6,208.8,103.4,208.9,103.3z"/>
		<path style="&st9;" d="M192,99.4c-0.1,0.1-0.1,0.1-0.2,0.2C191.9,99.5,191.9,99.4,192,99.4z"/>
		<path style="&st10;" d="M95.7,89.9c3-3.7,6.5-5.6,11.1-5.1c4.7,0.5,7.9,3.1,9.5,7.5c2.6,7.4-3,14.7-10,15
			c-4.1,0.1-7.3-1.3-9.8-4.5c-0.2-0.2-0.5-0.3-0.7-0.5c-0.1,0.3-0.3,0.5-0.3,0.8c0,1.1,0,2.2,0,3.2c0,0.3-0.4,0.6-0.6,0.9
			c-0.2-0.3-0.6-0.6-0.6-0.9c0-2.8,0-5.5,0-8.3c0-6.7,0-13.4,0-20.1c0-0.3-0.1-0.6,0-0.8c0.1-0.2,0.4-0.5,0.5-0.5
			c0.2,0,0.5,0.2,0.6,0.4c0.1,0.2,0,0.5,0,0.8c0,3.6,0,7.1,0,10.7C95.4,89.1,95.6,89.5,95.7,89.9z M105.5,105.9
			c5.4,0.3,10-4.6,10-9.8c0-5.5-4.5-9.9-9.9-9.9c-5.5,0-9.8,4.4-10,9.9C95.5,101.3,100.2,106.1,105.5,105.9z"/>
	</g>
</g>
</svg>
