<?xml version="1.0" encoding="utf-8"?>
<!-- Generator: Adobe Illustrator 22.1.0, SVG Export Plug-In . SVG Version: 6.00 Build 0)  -->
<svg version="1.1" id="Layer_1" xmlns="http://www.w3.org/2000/svg" xmlns:xlink="http://www.w3.org/1999/xlink" x="0px" y="0px"
	 width="194px" height="194px" viewBox="0 0 194 194" style="enable-background:new 0 0 194 194;" xml:space="preserve">
<style type="text/css">
	.st0{fill:#E5AA41;}
	.st1{fill:#F2CA39;}
	.st2{opacity:0.3;fill:#FFFFFF;enable-background:new    ;}
</style>
<path class="st0" d="M149.7,153.4V194h17.8L149.7,153.4z M61.8,44.1V0L0,27.1v17H61.8z"/>
<path class="st1" d="M166.9,194L0,27.1L61.8,0L194,132.2L166.9,194z"/>
<path class="st2" d="M2.4,27.1L62.5,0.8L61.8,0L0,27.1L166.9,194l0.7-1.7L2.4,27.1z"/>
<g>
	<path d="M60.1,45.6l-4.3-4.3l-7.2,7.2l-1.4-1.4l15.1-15.1l7.8,7.8l-0.8,1.2l-6.5-6.5l-6,6l4.2,4.2L60.1,45.6z"/>
	<path d="M57.9,57.8l15.1-15.1l8,8l-0.9,1.1l-6.7-6.7l-5.9,5.9l4.5,4.5l-0.9,1.1l-4.6-4.6l-6.1,6.1l7.1,7.1l-1,1.2L57.9,57.8z"/>
	<path d="M89.5,59.1l-9.1,20.7l-1.6-1.1l2.8-6.3l-6.6-6.6l-6.2,2.9l-1.3-1.3l20.6-9.6L89.5,59.1z M87,60.1L76.4,65l5.8,5.8L87,60.1z
		"/>
	<path d="M105.5,77.3l-4.8-4.8l-14,14l-1.4-1.4l14-14l-4.8-4.8l1.1-1.1l10.9,10.9L105.5,77.3z"/>
	<path d="M100.7,89.5c-1.3,1.3-2,2.8-2.2,4.4c-0.1,1.6,0.4,3.1,1.7,4.4c1.3,1.3,2.8,1.9,4.4,1.7c1.6-0.2,3.1-0.9,4.4-2.2l9.6-9.6
		l1.4,1.4l-9.8,9.8c-1.6,1.6-3.4,2.5-5.5,2.5c-2,0.1-3.9-0.8-5.6-2.5c-1.7-1.7-2.5-3.6-2.5-5.6c0.1-2,0.9-3.9,2.5-5.5l9.8-9.8
		l1.4,1.4L100.7,89.5z"/>
	<path d="M118.3,118.2l2.9-10.1c-0.3-0.3-0.6-0.5-0.9-0.8c-0.3-0.3-0.6-0.6-0.9-0.9l-2.3-2.3l-6.4,6.4l-1.4-1.4L124.5,94l3.9,3.9
		c1.6,1.6,2.6,3.2,2.9,4.9c0.4,1.7-0.2,3.3-1.8,4.9c-1.1,1-2.2,1.6-3.3,1.8c-1.1,0.1-2.3,0-3.4-0.5l-2.9,10.8L118.3,118.2z
		 M127.2,99.2l-2.6-2.6l-6.5,6.5l2.3,2.3c1.1,1.1,2.3,1.9,3.7,2.3c1.3,0.4,2.6,0,3.9-1.3c1.3-1.3,1.8-2.5,1.4-3.7
		C129.1,101.5,128.4,100.3,127.2,99.2z"/>
	<path d="M123.4,123.3l15.1-15.1l8,8l-0.9,1.1l-6.7-6.7l-5.9,5.9l4.5,4.5l-0.9,1.1l-4.6-4.6l-6.1,6.1l7.1,7.1l-1,1.2L123.4,123.3z"
		/>
	<path d="M135.1,134.9l15.1-15.1l4.9,4.9c2.3,2.3,3.3,4.7,2.8,7.2c-0.5,2.5-1.7,4.7-3.8,6.8c-2.1,2.1-4.5,3.3-7.1,3.7
		c-2.6,0.4-5-0.5-7.3-2.8L135.1,134.9z M154,126l-3.6-3.6l-12.8,12.8l3.4,3.4c1.6,1.6,3.5,2.3,5.6,2.1c2.2-0.2,4.2-1.3,6.2-3.2
		c1.8-1.8,2.9-3.7,3.2-5.8C156.4,129.6,155.8,127.7,154,126z"/>
</g>
</svg>
