<?xml version="1.0" encoding="utf-8"?>
<!-- Generator: Adobe Illustrator 22.1.0, SVG Export Plug-In . SVG Version: 6.00 Build 0)  -->
<!DOCTYPE svg PUBLIC "-//W3C//DTD SVG 1.1//EN" "http://www.w3.org/Graphics/SVG/1.1/DTD/svg11.dtd" [
	<!ENTITY st0 "fill:#FEA600;">
]>
<svg version="1.1" id="Layer_1" xmlns="http://www.w3.org/2000/svg" xmlns:xlink="http://www.w3.org/1999/xlink" x="0px" y="0px"
	 viewBox="0 0 168.3 168.3" style="enable-background:new 0 0 168.3 168.3;" xml:space="preserve">
<g id="_x39_SZQqe.tif">
	<g>
		<path style="&st0;" d="M32.1,52.4c0.3-0.1,0.3-0.4,0.4-0.6c1.7-4.3,3.8-5.8,8.4-5.8c6.8,0,13.7,0.1,20.5,0c5-0.1,8.3,3.7,8.4,8.1
			c0.1,7.2,0.1,14.4,0,21.6c-0.1,4.5-3.5,8.3-8.4,8.1c-6.9-0.2-13.8,0-20.7-0.1c-4.3,0-6.6-1.6-8.2-5.7c-0.1-0.3-0.1-0.6-0.4-0.7
			C32.1,69,32.1,60.7,32.1,52.4z"/>
		<path style="&st0;" d="M32.1,91.9c0.3-0.1,0.3-0.4,0.4-0.6c1.7-4.3,3.8-5.8,8.5-5.8c6.8,0,13.6,0.1,20.4,0c5-0.1,8.3,3.8,8.4,8.1
			c0.1,7.2,0.1,14.4,0,21.6c-0.1,4.5-3.5,8.3-8.4,8.1c-6.9-0.2-13.8-0.1-20.7-0.1c-4.3,0-6.6-1.6-8.2-5.7c-0.1-0.3-0.1-0.6-0.4-0.7
			C32.1,108.5,32.1,100.2,32.1,91.9z"/>
		<path style="&st0;" d="M32.1,131.4c0.3-0.1,0.3-0.4,0.4-0.6c1.7-4.3,3.8-5.8,8.5-5.8c6.8,0,13.6,0.1,20.3,0
			c5.1-0.1,8.3,3.8,8.4,8.1c0.1,7.2,0.1,14.5,0,21.7c-0.1,4-2.3,6.6-6,8c-8.6,0-17.2,0-25.8,0c-3.4-0.8-5-3.2-5.8-6.4
			C32.1,148.1,32.1,139.7,32.1,131.4z"/>
		<path style="&st0;" d="M77.7,162.7c-0.1-0.1-0.3-0.3-0.4-0.4c-3.7-1.6-5.2-4.5-5.3-8.3c-0.1-6.8,0-13.7,0-20.5
			c0-4.5,3.1-8.8,8.7-8.6c6.9,0.2,13.9,0,20.8,0.1c4.5,0,8,3.2,8.1,7.7c0.1,7.4,0.2,14.9,0,22.3c-0.1,3.9-2.4,6.4-6,7.7
			C94.9,162.7,86.3,162.7,77.7,162.7z"/>
		<path style="&st0;" d="M149.4,37.5c-0.5,0.3-0.4,0.9-0.6,1.3c-1.3,3.5-3.9,5.4-7.6,5.4c-7.1,0-14.3,0-21.4,0c-4.4,0-7.9-3.1-8-7.6
			c-0.2-7.5-0.2-15,0-22.5c0.1-4.5,3.6-7.6,8-7.6c7,0,14.1,0,21.1,0c4.4,0,7.1,2.1,8.2,6.4c0.1,0.2,0,0.5,0.3,0.6c0,0.1,0,0.2,0,0.3
			c-0.2,0.3-0.2,0.7-0.2,1c0,7,0,14,0,21.1c0,0.3-0.1,0.7,0.2,1C149.4,37.1,149.4,37.3,149.4,37.5z"/>
		<path style="&st0;" d="M149.4,115.9c-0.5,0.3-0.4,0.9-0.6,1.3c-1.2,3.5-3.8,5.4-7.6,5.4c-7.2,0-14.4,0-21.6,0
			c-4.4,0-7.8-3.1-7.9-7.5c-0.2-7.5-0.2-15.1,0-22.6c0.1-4.4,3.6-7.5,8.1-7.6c6.9,0,13.9,0,20.8,0c4.6,0,7.2,2,8.4,6.3
			c0.1,0.2,0,0.5,0.3,0.6c0,0.1,0,0.2,0,0.3c-0.2,0.3-0.2,0.7-0.2,1c0,7.1,0,14.2,0,21.4c0,0.3-0.1,0.7,0.2,1
			C149.4,115.7,149.4,115.8,149.4,115.9z"/>
		<path style="&st0;" d="M32.1,22c0.6-0.8,0.5-1.9,0.8-2.8C35.2,10.5,43.4,4.7,52,5.6C61,6.5,68.2,14,68.5,23
			c0.4,9.2-5.8,17.3-14.6,19C43.8,44,34.5,37.5,32.4,27c-0.1-0.4,0.1-0.8-0.4-1.1c0-0.1,0-0.2,0-0.3c0.3-1,0.3-2,0-3
			C32.1,22.4,32.1,22.2,32.1,22z"/>
		<path style="&st0;" d="M149.4,115.6c-0.4-0.3-0.3-0.7-0.3-1.1c0-7.1,0-14.1,0-21.2c0-0.4-0.1-0.8,0.3-1.1
			C149.4,100,149.4,107.8,149.4,115.6z"/>
		<path style="&st0;" d="M149.4,36.9c-0.4-0.3-0.3-0.7-0.3-1.1c0-7,0-13.9,0-20.9c0-0.4-0.1-0.8,0.3-1.1
			C149.4,21.5,149.4,29.2,149.4,36.9z"/>
		<path style="&st0;" d="M32.1,22.6c0.5,1,0.5,2,0,3C32.1,24.6,32.1,23.6,32.1,22.6z"/>
		<path style="&st0;" d="M90.7,6.4c3.5,0,7.1,0.1,10.6,0c4.6-0.2,8.1,3.5,8.2,7.7c0.2,7.5,0.2,15,0,22.5c-0.1,4.5-3.6,7.6-8.1,7.6
			c-7,0-14-0.2-21,0.1c-5,0.2-8.4-3.5-8.5-8.3c-0.1-7-0.1-14.1,0-21.1c0.1-4.6,3.4-8.7,8.6-8.4C83.9,6.6,87.3,6.4,90.7,6.4z"/>
		<path style="&st0;" d="M90.8,83.7c-3.4,0-6.9-0.2-10.3,0c-4.9,0.3-8.4-3.4-8.5-8.1c-0.2-7.1-0.1-14.3,0-21.4
			c0.1-4.7,3.5-8.4,8.6-8.2c6.9,0.2,13.9,0.1,20.8,0.1c4.6,0,8.1,3.2,8.2,7.8c0.1,7.3,0.1,14.7,0,22c-0.1,4-3.2,8.1-8.3,7.9
			C97.8,83.6,94.3,83.7,90.8,83.7z"/>
		<path style="&st0;" d="M90.7,123.2c-3.4,0-6.8-0.2-10.2,0c-5.1,0.3-8.5-3.6-8.6-8.2c-0.1-7.1-0.1-14.2,0-21.3
			c0.1-4.7,3.5-8.4,8.6-8.3c6.9,0.2,13.9,0.2,20.8,0c4.9-0.1,8.1,3.8,8.2,7.8c0.1,7.4,0.1,14.8,0,22.2c-0.1,4.1-3.4,8-8.2,7.8
			C97.8,123.1,94.3,123.2,90.7,123.2z"/>
	</g>
</g>
</svg>
