<?xml version="1.0" encoding="utf-8"?>
<!-- Generator: Adobe Illustrator 19.0.0, SVG Export Plug-In . SVG Version: 6.00 Build 0)  -->
<svg version="1.1" id="Objects" xmlns="http://www.w3.org/2000/svg" xmlns:xlink="http://www.w3.org/1999/xlink" x="0px" y="0px"
	 width="800px" height="800px" viewBox="0 0 800 800" style="enable-background:new 0 0 800 800;" xml:space="preserve">
<style type="text/css">
	.st0{fill:#FF9900;}
	.st1{fill:#3299BB;}
</style>
<g>
	<path d="M300.15,176.33c0.13,5.49,3.34,9.44,7.5,12.6c1.07,0.81,2.2,1.53,3.32,2.27c0.65,0.43,1.31,0.86,1.94,1.32
		c0.1,0.08,0.19,0.13,0.27,0.19c0.1,0.1,0.22,0.21,0.38,0.36c2.73,2.51,4.8,4.89,4.9,9c0.14,5.64-0.91,11.12-1.53,16.7
		c-1.24,11.25,0.67,22.49,10.49,29.31c6.17,4.28,14.27,4.95,21.54,4.26c1.89-0.18,3.77-0.42,5.65-0.67
		c1.44-0.19,2.88-0.39,4.31-0.58c0.01,0,0.02,0,0.03,0c0.12-0.01,0.26-0.03,0.45-0.05c2.92-0.36,5.92-0.72,8.87-0.5
		c0.1,0.01,0.17,0.01,0.24,0.01c0.09,0.02,0.16,0.04,0.27,0.07c0.14,0.04,0.3,0.09,0.47,0.15c0.11,0.34,0.24,0.72,0.29,0.92
		c0.06,0.26,0.1,0.44,0.13,0.57c0,0.07,0.01,0.13,0.01,0.22c0.05,1.04,0.07,2.07,0.06,3.12c-0.06,5.33,4.67,9.92,10.17,10.17
		c12.37,0.56,24.03,0.41,36.66,0.64c9,0.17,19.37,1.77,28.4,2.3c14.86,0.87,18.06-16.22,5.41-19.61
		c-10.87-2.91-21.94-0.49-32.94-0.38c-9.67,0.1-19.13-2.27-28.71-3.09c-2.21-7.41-7.23-13.68-15.77-14.86
		c-4.92-0.68-9.42-0.61-14.33,0.03c-1.7,0.22-3.4,0.45-5.1,0.68c-0.36,0.05-0.5,0.07-0.52,0.08c-0.19,0.02-0.45,0.05-0.81,0.1
		c-2.13,0.26-4.26,0.5-6.41,0.56c-1.28,0.04-2.57,0.06-3.85-0.04c-0.21-0.02-0.34-0.02-0.42-0.02c-0.14-0.04-0.3-0.08-0.51-0.13
		c-0.37-0.09-1.33-0.46-1.76-0.6c-0.3-0.19-0.59-0.38-0.75-0.47c-0.25-0.28-0.49-0.55-0.63-0.69c-0.32-0.68-0.68-1.47-0.64-1.11
		c-0.59-2.61-0.45-5.94-0.11-8.98c0.9-8.2,2.79-16.51,0.86-24.72c-1.54-6.55-5.44-13.08-10.71-17.34c-1.69-1.37-3.41-2.68-5.21-3.91
		c6.46-9.47,14.88-17.38,20.61-27.47c6.25-11.01,10.48-23,12.3-35.53c1.97-13.56,1.72-27.8,6.51-40.81
		c3.22-8.75,8.76-15.43,15.45-19.58c2.06-1.28,4.18-2.48,6.4-3.47c0.79-0.35,2.36-0.98,4.44-1.63c2.04-0.64,4.11-1.22,6.2-1.66
		c1.06-0.22,2.12-0.45,3.19-0.63c-0.05,0.01,2.23-0.31,2.15-0.32c18.45-1.98,35.49,1.1,52.82,8.22c-0.04,0,2.42,1.06,2.73,1.21
		c0.95,0.45,1.91,0.89,2.85,1.36c1.83,0.92,3.65,1.86,5.42,2.89c4.55,2.63,8.94,5.63,13.13,8.81c7.36,5.59,14.82,12.85,19.49,19.86
		c10.45,15.67,12.79,33,8.13,51.65c-5.1,20.44-15.6,38.87-31.74,52.51c-15.33,12.94-34.96,20.24-55.04,21.12
		c-13.06,0.57-13.12,20.91,0,20.34c38.16-1.68,73.46-22.03,92.86-55.2c18.08-30.92,24.38-72.04,2.03-102.55
		c-23.89-32.61-66.03-53.02-106.58-51.02c-19,0.94-39.26,6.98-51.87,22.13c-8.41,10.11-13.25,22.11-15.2,35.1
		c-2,13.35-1.99,27.13-5.97,40.12c-3.16,10.33-8.32,20.01-15.08,28.45C310.89,156.04,299.88,165.11,300.15,176.33z"/>
	<path d="M372.53,120.96c1.95,8.43,8.88,12.48,16.55,13.41c3.11,10.2,4.55,20.77,4.62,31.47c0.07,9.81-0.36,19.67-1.6,29.4
		c-0.87,6.78-1.78,16.75-6.05,22.16c-4.38,5.55,3.42,13.46,7.84,7.84c4.82-6.11,6.77-13.93,8.05-21.49
		c1.57-9.24,2.42-18.61,2.71-27.98c0.43-13.79,0.01-28.68-4.04-42.2c0.46-0.12,0.92-0.24,1.37-0.38c1.09-0.33,2.18-0.73,3.25-1.18
		c0.43,0.37,0.88,0.73,1.35,1.07c7.03,5.14,17.67,6.65,26.82,4.5c3.09,3.3,7.02,5.82,11.32,7.56c-1.47,3.67-2.79,7.4-4.17,11.12
		c-2.27,6.13-4.62,12.13-5.79,18.6c-2.28,12.68-1.63,25.38-1.59,38.2c0.02,7.15,11.11,7.15,11.09,0
		c-0.02-6.29-0.26-12.59-0.17-18.88c0.09-6.54,0.48-13.08,2.02-19.45c1.54-6.34,3.98-12.29,6.18-18.41
		c1.03-2.88,2.05-5.75,3.18-8.51c1.94,0.2,3.87,0.27,5.77,0.19c6.22-0.27,12.93-1.75,17.58-6.18c4.98-4.74,7.11-13.36,3.99-19.69
		c-3.65-7.39-12.64-5.38-18.36-1.95c-6.28,3.76-11.34,8.63-15,14.85c-1.86-0.64-3.63-1.46-5.19-2.46
		c5.15-4.09,8.14-10.27,6.76-18.57c-1.35-8.1-10.77-14.81-17.69-7.66c-4.97,5.14-7.51,14.04-5.67,21.22c-0.82,0.04-1.65,0.04-2.47,0
		c-3.07-0.16-6.93-0.58-9.99-2.03c5.65-5.55,8.21-13.16,2.76-21.33c-6.17-9.25-16.15-5.16-19.07,4.17
		c-1.51,4.82-1.5,9.76-0.03,14.21c-0.75,0.23-1.52,0.42-2.28,0.58c-0.55-1.13-1.14-2.25-1.76-3.35c-2.87-5.03-6.86-12.96-13.06-14.4
		C372.96,103.37,371.11,114.85,372.53,120.96z M461.55,136.87c1.42-1.77,3.04-3.38,4.95-4.76c1.71-1.24,4.64-3.3,6.61-3.88
		c0.07,1.09-0.11,2.37-0.44,3.36c-0.49,1.48-1.58,2.59-3.54,3.57c-1.55,0.77-4.33,1.53-6.4,1.66
		C462.35,136.85,461.96,136.86,461.55,136.87z M438.29,121.31c0.19-1.92,0.85-4.18,1.88-5.81c0.68,2.38-0.55,5.86-1.92,7.45
		C438.23,122.42,438.23,121.88,438.29,121.31z M408.75,116.63c-0.1-1.1-0.02-2.25,0.3-3.45c0.13-0.49,0.26-1.1,0.45-1.71
		c0,0,0.01,0.01,0.01,0.01c0.81,2.32,0.82,2.9-0.58,4.92C408.88,116.48,408.81,116.55,408.75,116.63z"/>
	<path d="M378.21,290.63c-3.74,0.5-7.43-0.8-8.53-4.48c-0.91-3.05,1.09-7.39,4.84-7.89c27.01-3.61,53.97,2.12,80.41,6.84
		c7,1.25,6.04,9.37,0.92,11.81c-0.19,0.21-0.36,0.49-0.64,0.62c-17.53,8.32-29.24,9.53-42.6,14.34
		c-12.53,4.51-25.66,8.23-36.58,15.74c-3.04,2.09-7.73,0.46-9.49-2.3c-2.07-3.27-0.54-6.69,2.49-8.77
		c18.46-12.71,36.41-16.27,67.56-21.77C417.36,291.23,397.55,288.05,378.21,290.63z"/>
	<path d="M375.64,338.56c24.65-10.41,49.59-20.06,74.68-29.35c8.4-3.11,11.99,10.29,3.69,13.37c-23.96,8.88-47.83,18.02-71.37,27.96
		c-3.48,1.47-7.39,1.08-9.49-2.49C371.43,345.1,372.16,340.03,375.64,338.56z"/>
	<path d="M396.7,354.25c12.29-3.99,25.12-8.21,36.98-12.69c5.54-2.1,7.62-1.17,11.53,5.04c7.03,11.17-7.32,23.89-16.47,28.9
		c-14.33,7.83-30.31,3.91-38.03-10.81C388.26,359.99,388.15,357.02,396.7,354.25z"/>
</g>
<g>
	<path class="st0" d="M294.65,172.03c0.13,5.49,3.34,9.44,7.5,12.6c1.07,0.81,2.2,1.53,3.32,2.27c0.65,0.43,1.31,0.86,1.94,1.32
		c0.1,0.08,0.19,0.13,0.27,0.19c0.1,0.1,0.22,0.21,0.38,0.36c2.73,2.51,4.8,4.89,4.9,9c0.14,5.64-0.91,11.12-1.53,16.7
		c-1.24,11.25,0.67,22.49,10.49,29.31c6.17,4.28,14.27,4.95,21.54,4.26c1.89-0.18,3.77-0.42,5.65-0.67
		c1.44-0.19,2.88-0.39,4.31-0.58c0.01,0,0.02,0,0.03,0c0.12-0.01,0.26-0.03,0.45-0.05c2.92-0.36,5.92-0.72,8.87-0.5
		c0.1,0.01,0.17,0.01,0.24,0.01c0.09,0.02,0.16,0.04,0.27,0.07c0.14,0.04,0.3,0.09,0.47,0.15c0.11,0.34,0.24,0.72,0.29,0.92
		c0.06,0.26,0.1,0.44,0.13,0.57c0,0.07,0.01,0.13,0.01,0.22c0.05,1.04,0.07,2.07,0.06,3.12c-0.06,5.33,4.67,9.92,10.17,10.17
		c12.37,0.56,24.03,0.41,36.66,0.64c9,0.17,19.37,1.77,28.4,2.3c14.86,0.87,18.06-16.22,5.41-19.61
		c-10.87-2.91-21.94-0.49-32.94-0.38c-9.67,0.1-19.13-2.27-28.71-3.09c-2.21-7.41-7.23-13.68-15.77-14.86
		c-4.92-0.68-9.42-0.61-14.33,0.03c-1.7,0.22-3.4,0.45-5.1,0.68c-0.36,0.05-0.5,0.07-0.52,0.08c-0.19,0.02-0.45,0.05-0.81,0.1
		c-2.13,0.26-4.26,0.5-6.41,0.56c-1.28,0.04-2.57,0.06-3.85-0.04c-0.21-0.02-0.34-0.02-0.42-0.02c-0.14-0.04-0.3-0.08-0.51-0.13
		c-0.37-0.09-1.33-0.46-1.76-0.6c-0.3-0.19-0.59-0.38-0.75-0.47c-0.25-0.28-0.49-0.55-0.63-0.69c-0.32-0.68-0.68-1.47-0.64-1.11
		c-0.59-2.61-0.45-5.94-0.11-8.98c0.9-8.2,2.79-16.51,0.86-24.72c-1.54-6.55-5.44-13.08-10.71-17.34c-1.69-1.37-3.41-2.68-5.21-3.91
		c6.46-9.47,14.88-17.38,20.61-27.47c6.25-11.01,10.48-23,12.3-35.53c1.97-13.56,1.72-27.8,6.51-40.81
		c3.22-8.75,8.76-15.43,15.45-19.58c2.06-1.28,4.18-2.48,6.4-3.47c0.79-0.35,2.36-0.98,4.44-1.63c2.04-0.64,4.11-1.22,6.2-1.66
		c1.06-0.22,2.12-0.45,3.19-0.63c-0.05,0.01,2.23-0.31,2.15-0.32c18.45-1.98,35.49,1.1,52.82,8.22c-0.04,0,2.42,1.06,2.73,1.21
		c0.95,0.45,1.91,0.89,2.85,1.36c1.83,0.92,3.65,1.86,5.42,2.89c4.55,2.63,8.94,5.63,13.13,8.81c7.36,5.59,14.82,12.85,19.49,19.86
		c10.45,15.67,12.79,33,8.13,51.65c-5.1,20.44-15.6,38.87-31.74,52.51c-15.33,12.94-34.96,20.24-55.04,21.12
		c-13.06,0.57-13.12,20.91,0,20.34c38.16-1.68,73.46-22.03,92.86-55.2c18.08-30.92,24.38-72.04,2.03-102.55
		c-23.89-32.61-66.03-53.02-106.58-51.02c-19,0.94-39.26,6.98-51.87,22.13c-8.41,10.11-13.25,22.11-15.2,35.1
		c-2,13.35-1.99,27.13-5.97,40.12c-3.16,10.33-8.32,20.01-15.08,28.45C305.39,151.74,294.38,160.81,294.65,172.03z"/>
	<path class="st1" d="M367.03,116.66c1.95,8.43,8.88,12.48,16.55,13.41c3.11,10.2,4.55,20.77,4.62,31.47
		c0.07,9.81-0.36,19.67-1.6,29.4c-0.87,6.78-1.78,16.75-6.05,22.16c-4.38,5.55,3.42,13.46,7.84,7.84
		c4.82-6.11,6.77-13.93,8.05-21.49c1.57-9.24,2.42-18.61,2.71-27.98c0.43-13.79,0.01-28.68-4.04-42.2c0.46-0.12,0.92-0.24,1.37-0.38
		c1.09-0.33,2.18-0.73,3.25-1.18c0.43,0.37,0.88,0.73,1.35,1.07c7.03,5.14,17.67,6.65,26.82,4.5c3.09,3.3,7.02,5.82,11.32,7.56
		c-1.47,3.67-2.79,7.4-4.17,11.12c-2.27,6.13-4.62,12.13-5.79,18.6c-2.28,12.68-1.63,25.38-1.59,38.2c0.02,7.15,11.11,7.15,11.09,0
		c-0.02-6.29-0.26-12.59-0.17-18.88c0.09-6.54,0.48-13.08,2.02-19.45c1.54-6.34,3.98-12.29,6.18-18.41
		c1.03-2.88,2.05-5.75,3.18-8.51c1.94,0.2,3.87,0.27,5.77,0.19c6.22-0.27,12.93-1.75,17.58-6.18c4.98-4.74,7.11-13.36,3.99-19.69
		c-3.65-7.39-12.64-5.38-18.36-1.95c-6.28,3.76-11.34,8.63-15,14.85c-1.86-0.64-3.63-1.46-5.19-2.46
		c5.15-4.09,8.14-10.27,6.76-18.57c-1.35-8.1-10.77-14.81-17.69-7.66c-4.97,5.14-7.51,14.04-5.67,21.22c-0.82,0.04-1.65,0.04-2.47,0
		c-3.07-0.16-6.93-0.58-9.99-2.03c5.65-5.55,8.21-13.16,2.76-21.33c-6.17-9.25-16.15-5.16-19.07,4.17
		c-1.51,4.82-1.5,9.76-0.03,14.21c-0.75,0.23-1.52,0.42-2.28,0.58c-0.55-1.13-1.14-2.25-1.76-3.35c-2.87-5.03-6.86-12.96-13.06-14.4
		C367.46,99.07,365.61,110.55,367.03,116.66z M456.05,132.57c1.42-1.77,3.04-3.38,4.95-4.76c1.71-1.24,4.64-3.3,6.61-3.88
		c0.07,1.09-0.11,2.37-0.44,3.36c-0.49,1.48-1.58,2.59-3.54,3.57c-1.55,0.77-4.33,1.53-6.4,1.66
		C456.85,132.55,456.46,132.56,456.05,132.57z M432.79,117.01c0.19-1.92,0.85-4.18,1.88-5.81c0.68,2.38-0.55,5.86-1.92,7.45
		C432.73,118.12,432.73,117.58,432.79,117.01z M403.25,112.33c-0.1-1.1-0.02-2.25,0.3-3.45c0.13-0.49,0.26-1.1,0.45-1.71
		c0,0,0.01,0.01,0.01,0.01c0.81,2.32,0.82,2.9-0.58,4.92C403.38,112.18,403.31,112.25,403.25,112.33z"/>
	<path class="st0" d="M372.71,286.33c-3.74,0.5-7.43-0.8-8.53-4.48c-0.91-3.05,1.09-7.39,4.84-7.89
		c27.01-3.61,53.97,2.12,80.41,6.84c7,1.25,6.04,9.37,0.92,11.81c-0.19,0.21-0.36,0.49-0.64,0.62c-17.53,8.32-29.24,9.53-42.6,14.34
		c-12.53,4.51-25.66,8.23-36.58,15.74c-3.04,2.09-7.73,0.46-9.49-2.3c-2.07-3.27-0.54-6.69,2.49-8.77
		c18.46-12.71,36.41-16.27,67.56-21.77C411.86,286.93,392.05,283.75,372.71,286.33z"/>
	<path class="st0" d="M370.14,334.26c24.65-10.41,49.59-20.06,74.68-29.35c8.4-3.11,11.99,10.29,3.69,13.37
		c-23.96,8.88-47.83,18.02-71.37,27.96c-3.48,1.47-7.39,1.08-9.49-2.49C365.93,340.8,366.66,335.73,370.14,334.26z"/>
	<path class="st0" d="M391.2,349.95c12.29-3.99,25.12-8.21,36.98-12.69c5.54-2.1,7.62-1.17,11.53,5.04
		c7.03,11.17-7.32,23.89-16.47,28.9c-14.33,7.83-30.31,3.91-38.03-10.81C382.76,355.69,382.65,352.72,391.2,349.95z"/>
</g>
<g>
	<g>
		<path d="M125.73,492.63c0-3.71-1.12-6.7-3.35-8.97c-2.23-2.27-5.21-3.41-8.91-3.41h-12.94v45.53h12.94c3.41,0,6.3-1.21,8.69-3.63
			c2.38-2.42,3.58-5.34,3.58-8.74V492.63z M112.9,458.34c10.45,0,18.77,3.29,24.98,9.88c5.75,6.28,8.63,14.31,8.63,24.07v20.67
			c0,9.39-3.28,17.41-9.82,24.07c-6.55,6.66-14.48,9.99-23.79,9.99h-12.38v53.59H79.07V458.34H112.9z"/>
		<path d="M163.66,600.62V458.23h61.09v21.57h-39.63v38.83h28.95v21.57h-28.95v38.83h39.63v21.57H163.66z"/>
		<path d="M286.17,492.63c0-8.25-4.09-12.38-12.26-12.38h-12.94v45.53h12.94c3.41,0,6.3-1.21,8.69-3.63
			c2.38-2.42,3.58-5.34,3.58-8.74V492.63z M273.34,458.34c11.96,0,20.74,3.29,26.34,9.88c4.92,5.75,7.38,13.78,7.38,24.07v20.67
			c0,10.07-3.82,18.58-11.47,25.55l15.89,62.11h-23.21l-13.01-53.59c-0.61,0-1.25,0-1.93,0h-12.38v53.59H239.5V458.34H273.34z"/>
		<path d="M393.59,565.19c0.15,9.92-2.42,18.39-7.72,25.43c-3.48,4.77-8.4,8.14-14.76,10.11c-3.41,1.06-7.38,1.59-11.92,1.59
			c-8.4,0-15.37-2.08-20.89-6.25c-4.62-3.41-8.27-8.04-10.96-13.91c-2.69-5.87-4.26-12.58-4.71-20.15l20.44-1.48
			c0.91,8.29,3.1,14.3,6.59,18.03c2.57,2.82,5.52,4.15,8.86,4c4.69-0.15,8.44-2.46,11.24-6.93c1.44-2.2,2.16-5.34,2.16-9.43
			c0-5.91-2.69-11.78-8.06-17.62c-4.24-4.01-10.6-10.04-19.08-18.07c-7.12-6.89-12.15-13.07-15.1-18.53
			c-3.18-6.14-4.77-12.8-4.77-20c0-12.95,4.35-22.77,13.06-29.44c5.37-4.01,12.04-6.02,19.98-6.02c7.64,0,14.19,1.7,19.64,5.11
			c4.24,2.65,7.66,6.36,10.28,11.13c2.61,4.77,4.18,10.26,4.71,16.46l-20.55,3.75c-0.61-5.83-2.27-10.37-5-13.63
			c-1.97-2.35-4.81-3.52-8.52-3.52c-3.94,0-6.93,1.74-8.97,5.22c-1.67,2.8-2.5,6.28-2.5,10.45c0,6.51,2.8,13.13,8.4,19.87
			c2.12,2.57,5.3,5.6,9.54,9.08c5,4.16,8.29,7.08,9.88,8.74c5.3,5.3,9.38,10.52,12.26,15.67c1.36,2.42,2.46,4.66,3.29,6.7
			C392.45,556.64,393.51,561.18,393.59,565.19z"/>
		<path d="M456.72,490.14c0-3.41-1.19-6.3-3.58-8.69c-2.39-2.38-5.28-3.58-8.69-3.58c-3.41,0-6.32,1.19-8.74,3.58
			c-2.42,2.38-3.63,5.28-3.63,8.69v77.89c0,3.41,1.21,6.3,3.63,8.69c2.42,2.38,5.34,3.58,8.74,3.58c3.41,0,6.3-1.19,8.69-3.58
			c2.38-2.38,3.58-5.28,3.58-8.69V490.14z M445.02,456.53c9.46,0,17.5,3.33,24.13,9.99c6.62,6.66,9.94,14.69,9.94,24.07v77.67
			c0,9.46-3.33,17.51-9.99,24.13c-6.66,6.62-14.69,9.93-24.07,9.93c-9.46,0-17.49-3.33-24.07-9.99c-6.59-6.66-9.88-14.68-9.88-24.07
			v-77.67c0-9.46,3.33-17.5,9.99-24.13C427.72,459.84,435.71,456.53,445.02,456.53z"/>
		<path d="M522.02,458.23l28.48,95.69v-95.69h21.46v142.39h-23.05l-29.52-91.18v91.18h-21.46V458.23H522.02z"/>
		<path d="M628.73,490.93l-7.95,56.09h15.9L628.73,490.93z M617.46,567.91l-5.21,32.7H589.9l24.19-142.27h29.52l23.84,142.27h-22.56
			l-5.02-32.7H617.46z"/>
		<path d="M743.98,600.62H685.5V458.34h21.46v120.93h37.01V600.62z"/>
		<path d="M117.56,684.48c0-3.71-1.12-6.7-3.35-8.97c-2.23-2.27-5.21-3.41-8.91-3.41H92.35v45.53h12.94c3.41,0,6.3-1.21,8.69-3.63
			c2.38-2.42,3.58-5.34,3.58-8.74V684.48z M104.73,650.19c10.45,0,18.77,3.29,24.98,9.88c5.75,6.28,8.63,14.31,8.63,24.07v20.66
			c0,9.39-3.28,17.41-9.82,24.07c-6.55,6.66-14.48,9.99-23.79,9.99H92.35v53.59H70.89V650.19H104.73z"/>
		<path d="M198.74,681.98c0-3.41-1.19-6.3-3.58-8.68c-2.38-2.39-5.28-3.58-8.69-3.58c-3.41,0-6.32,1.19-8.74,3.58
			c-2.42,2.38-3.63,5.28-3.63,8.68v77.89c0,3.41,1.21,6.3,3.63,8.69c2.42,2.39,5.34,3.58,8.74,3.58c3.41,0,6.3-1.19,8.69-3.58
			c2.38-2.38,3.58-5.28,3.58-8.69V681.98z M187.05,648.37c9.46,0,17.5,3.33,24.13,9.99c6.62,6.66,9.93,14.69,9.93,24.07v77.67
			c0,9.46-3.33,17.5-9.99,24.13c-6.66,6.63-14.69,9.94-24.07,9.94c-9.46,0-17.49-3.33-24.07-9.99c-6.59-6.66-9.88-14.68-9.88-24.07
			v-77.67c0-9.46,3.33-17.5,9.99-24.13C169.75,651.69,177.73,648.37,187.05,648.37z"/>
		<path d="M286.74,684.48c0-8.25-4.09-12.38-12.26-12.38h-12.94v45.53h12.94c3.41,0,6.3-1.21,8.69-3.63
			c2.38-2.42,3.58-5.34,3.58-8.74V684.48z M273.91,650.19c11.96,0,20.74,3.29,26.34,9.88c4.92,5.75,7.38,13.78,7.38,24.07v20.66
			c0,10.07-3.82,18.58-11.47,25.55l15.89,62.11h-23.21l-13.01-53.59c-0.61,0-1.25,0-1.93,0h-12.38v53.59h-21.46V650.19H273.91z"/>
		<path d="M346.23,671.76h-22.82v-21.57h66.99v21.57h-22.71v120.7h-21.46V671.76z"/>
		<path d="M429.12,792.46h-21.46V650.08h61.09v21.57h-39.63v38.83h28.95v21.57h-28.95V792.46z"/>
		<path d="M529.16,681.98c0-3.41-1.19-6.3-3.58-8.68c-2.39-2.39-5.28-3.58-8.69-3.58c-3.41,0-6.32,1.19-8.74,3.58
			c-2.42,2.38-3.63,5.28-3.63,8.68v77.89c0,3.41,1.21,6.3,3.63,8.69c2.42,2.39,5.34,3.58,8.74,3.58c3.41,0,6.3-1.19,8.69-3.58
			c2.38-2.38,3.58-5.28,3.58-8.69V681.98z M517.46,648.37c9.46,0,17.5,3.33,24.13,9.99c6.62,6.66,9.94,14.69,9.94,24.07v77.67
			c0,9.46-3.33,17.5-9.99,24.13c-6.66,6.63-14.69,9.94-24.07,9.94c-9.46,0-17.49-3.33-24.07-9.99c-6.59-6.66-9.88-14.68-9.88-24.07
			v-77.67c0-9.46,3.33-17.5,9.99-24.13C500.16,651.69,508.15,648.37,517.46,648.37z"/>
		<path d="M628.96,792.46h-58.48V650.19h21.46v120.93h37.01V792.46z"/>
		<path d="M665.18,792.46h-21.46V650.19h21.46V792.46z"/>
		<path d="M729.79,681.98c0-3.41-1.19-6.3-3.58-8.68c-2.39-2.39-5.28-3.58-8.69-3.58c-3.41,0-6.32,1.19-8.74,3.58
			c-2.42,2.38-3.63,5.28-3.63,8.68v77.89c0,3.41,1.21,6.3,3.63,8.69c2.42,2.39,5.34,3.58,8.74,3.58c3.41,0,6.3-1.19,8.69-3.58
			c2.38-2.38,3.58-5.28,3.58-8.69V681.98z M718.09,648.37c9.46,0,17.5,3.33,24.13,9.99c6.62,6.66,9.94,14.69,9.94,24.07v77.67
			c0,9.46-3.33,17.5-9.99,24.13c-6.66,6.63-14.69,9.94-24.07,9.94c-9.46,0-17.49-3.33-24.07-9.99c-6.59-6.66-9.88-14.68-9.88-24.07
			v-77.67c0-9.46,3.33-17.5,9.99-24.13S708.78,648.37,718.09,648.37z"/>
	</g>
	<g>
		<path class="st1" d="M121.18,487.06c0-3.71-1.12-6.7-3.35-8.97c-2.23-2.27-5.21-3.41-8.91-3.41H95.97v45.53h12.94
			c3.41,0,6.3-1.21,8.69-3.63c2.38-2.42,3.58-5.34,3.58-8.74V487.06z M108.35,452.77c10.45,0,18.82,3.25,24.98,9.88
			c5.8,6.24,8.63,14.31,8.63,24.07v20.67c0,9.39-3.28,17.41-9.82,24.07c-6.55,6.66-14.48,9.99-23.79,9.99H95.97v53.59H74.51V452.77
			H108.35z"/>
		<polygon class="st1" points="159.1,595.04 159.1,452.65 220.19,452.65 220.19,474.23 180.56,474.23 180.56,513.06 209.52,513.06 
			209.52,534.63 180.56,534.63 180.56,573.47 220.19,573.47 220.19,595.04 		"/>
		<path class="st1" d="M281.62,487.06c0-8.25-4.09-12.38-12.26-12.38h-12.94v45.53h12.94c3.41,0,6.3-1.21,8.69-3.63
			c2.38-2.42,3.58-5.34,3.58-8.74V487.06z M268.79,452.77c11.96,0,20.74,3.29,26.34,9.88c4.92,5.75,7.38,13.78,7.38,24.07v20.67
			c0,10.07-3.82,18.58-11.47,25.55l15.89,62.11h-23.21l-13.01-53.59c-0.61,0-1.25,0-1.93,0h-12.38v53.59h-21.46V452.77H268.79z"/>
		<path class="st1" d="M389.03,559.61c0.15,9.92-2.42,18.39-7.72,25.43c-3.48,4.77-8.4,8.14-14.76,10.11
			c-3.41,1.06-7.38,1.59-11.92,1.59c-8.4,0-15.35-2.11-20.89-6.25c-4.6-3.43-8.27-8.04-10.96-13.91
			c-2.69-5.87-4.26-12.58-4.71-20.15l20.44-1.48c0.91,8.29,3.12,14.29,6.59,18.03c2.59,2.8,5.52,4.13,8.86,4
			c4.69-0.18,8.44-2.46,11.24-6.93c1.44-2.2,2.16-5.34,2.16-9.43c0-5.91-2.49-11.97-8.06-17.62c-4.1-4.16-10.64-9.99-19.08-18.07
			c-7.15-6.85-12.2-13.04-15.1-18.53c-3.23-6.11-4.77-12.8-4.77-20c0-12.95,4.35-22.77,13.06-29.44c5.37-4.01,12.04-6.02,19.98-6.02
			c7.64,0,14.19,1.7,19.64,5.11c4.24,2.65,7.66,6.36,10.28,11.13c2.61,4.77,4.18,10.26,4.71,16.46l-20.55,3.75
			c-0.61-5.83-2.27-10.37-5-13.63c-1.97-2.35-4.81-3.52-8.52-3.52c-3.94,0-6.92,1.75-8.97,5.22c-1.66,2.81-2.5,6.28-2.5,10.45
			c0,6.51,2.8,13.13,8.4,19.87c2.12,2.57,5.31,5.59,9.54,9.08c5.01,4.15,8.29,7.08,9.88,8.74c5.3,5.3,9.38,10.52,12.26,15.67
			c1.36,2.42,2.46,4.66,3.29,6.7C387.9,551.06,388.95,555.6,389.03,559.61z"/>
		<path class="st1" d="M452.16,484.56c0-3.41-1.19-6.3-3.58-8.69c-2.39-2.38-5.28-3.58-8.69-3.58c-3.41,0-6.32,1.19-8.74,3.58
			c-2.42,2.38-3.63,5.28-3.63,8.69v77.89c0,3.41,1.21,6.3,3.63,8.69c2.42,2.38,5.34,3.58,8.74,3.58c3.41,0,6.3-1.19,8.69-3.58
			c2.38-2.38,3.58-5.28,3.58-8.69V484.56z M440.47,450.95c9.46,0,17.5,3.33,24.13,9.99c6.62,6.66,9.94,14.69,9.94,24.07v77.67
			c0,9.46-3.33,17.51-9.99,24.13c-6.66,6.62-14.69,9.93-24.07,9.93c-9.46,0-17.49-3.33-24.07-9.99c-6.59-6.66-9.88-14.68-9.88-24.07
			v-77.67c0-9.46,3.33-17.5,9.99-24.13C423.17,454.26,431.15,450.95,440.47,450.95z"/>
		<polygon class="st1" points="517.47,452.65 545.95,548.34 545.95,452.65 567.41,452.65 567.41,595.04 544.36,595.04 
			514.84,503.86 514.84,595.04 493.37,595.04 493.37,452.65 		"/>
		<path class="st1" d="M624.18,485.35l-7.95,56.09h15.9L624.18,485.35z M612.91,562.34l-5.21,32.7h-22.35l24.19-142.27h29.52
			l23.84,142.27h-22.56l-5.02-32.7H612.91z"/>
		<polygon class="st1" points="739.42,595.04 680.95,595.04 680.95,452.77 702.41,452.77 702.41,573.69 739.42,573.69 		"/>
		<path class="st1" d="M113,678.9c0-3.71-1.12-6.7-3.35-8.97c-2.23-2.27-5.21-3.41-8.91-3.41H87.8v45.53h12.94
			c3.41,0,6.3-1.21,8.69-3.63c2.38-2.42,3.58-5.34,3.58-8.74V678.9z M100.17,644.61c10.45,0,18.82,3.25,24.98,9.88
			c5.8,6.24,8.63,14.31,8.63,24.07v20.66c0,9.39-3.28,17.41-9.82,24.07c-6.55,6.66-14.48,9.99-23.79,9.99H87.8v53.59H66.34V644.61
			H100.17z"/>
		<path class="st1" d="M194.19,676.41c0-3.41-1.19-6.3-3.58-8.68c-2.38-2.39-5.28-3.58-8.69-3.58c-3.41,0-6.32,1.19-8.74,3.58
			c-2.42,2.38-3.63,5.28-3.63,8.68v77.89c0,3.41,1.21,6.3,3.63,8.69c2.42,2.39,5.34,3.58,8.74,3.58c3.41,0,6.3-1.19,8.69-3.58
			c2.38-2.38,3.58-5.28,3.58-8.69V676.41z M182.49,642.8c9.46,0,17.5,3.33,24.13,9.99c6.62,6.66,9.93,14.69,9.93,24.07v77.67
			c0,9.46-3.33,17.5-9.99,24.13c-6.66,6.63-14.69,9.94-24.07,9.94c-9.46,0-17.49-3.33-24.07-9.99c-6.59-6.66-9.88-14.68-9.88-24.07
			v-77.67c0-9.46,3.33-17.5,9.99-24.13C165.19,646.11,173.18,642.8,182.49,642.8z"/>
		<path class="st1" d="M282.18,678.9c0-8.25-4.09-12.38-12.26-12.38h-12.94v45.53h12.94c3.41,0,6.3-1.21,8.69-3.63
			c2.38-2.42,3.58-5.34,3.58-8.74V678.9z M269.35,644.61c11.96,0,20.74,3.29,26.34,9.88c4.92,5.75,7.38,13.78,7.38,24.07v20.66
			c0,10.07-3.82,18.58-11.47,25.55l15.89,62.11h-23.21l-13.01-53.59c-0.61,0-1.25,0-1.93,0h-12.38v53.59h-21.46V644.61H269.35z"/>
		<polygon class="st1" points="341.68,666.19 318.86,666.19 318.86,644.61 385.85,644.61 385.85,666.19 363.14,666.19 
			363.14,786.89 341.68,786.89 		"/>
		<polygon class="st1" points="424.57,786.89 403.11,786.89 403.11,644.5 464.2,644.5 464.2,666.07 424.57,666.07 424.57,704.91 
			453.52,704.91 453.52,726.48 424.57,726.48 		"/>
		<path class="st1" d="M524.6,676.41c0-3.41-1.19-6.3-3.58-8.68c-2.39-2.39-5.28-3.58-8.69-3.58c-3.41,0-6.32,1.19-8.74,3.58
			c-2.42,2.38-3.63,5.28-3.63,8.68v77.89c0,3.41,1.21,6.3,3.63,8.69c2.42,2.39,5.34,3.58,8.74,3.58c3.41,0,6.3-1.19,8.69-3.58
			c2.38-2.38,3.58-5.28,3.58-8.69V676.41z M512.91,642.8c9.46,0,17.5,3.33,24.13,9.99s9.94,14.69,9.94,24.07v77.67
			c0,9.46-3.33,17.5-9.99,24.13c-6.66,6.63-14.69,9.94-24.07,9.94c-9.46,0-17.49-3.33-24.07-9.99c-6.59-6.66-9.88-14.68-9.88-24.07
			v-77.67c0-9.46,3.33-17.5,9.99-24.13S503.6,642.8,512.91,642.8z"/>
		<polygon class="st1" points="624.41,786.89 565.93,786.89 565.93,644.61 587.39,644.61 587.39,765.54 624.41,765.54 		"/>
		<rect x="639.17" y="644.61" class="st1" width="21.46" height="142.27"/>
		<path class="st1" d="M725.23,676.41c0-3.41-1.19-6.3-3.58-8.68c-2.39-2.39-5.28-3.58-8.69-3.58c-3.41,0-6.32,1.19-8.74,3.58
			c-2.42,2.38-3.63,5.28-3.63,8.68v77.89c0,3.41,1.21,6.3,3.63,8.69c2.42,2.39,5.34,3.58,8.74,3.58c3.41,0,6.3-1.19,8.69-3.58
			c2.38-2.38,3.58-5.28,3.58-8.69V676.41z M713.54,642.8c9.46,0,17.5,3.33,24.13,9.99s9.94,14.69,9.94,24.07v77.67
			c0,9.46-3.33,17.5-9.99,24.13c-6.66,6.63-14.69,9.94-24.07,9.94c-9.46,0-17.49-3.33-24.07-9.99c-6.59-6.66-9.88-14.68-9.88-24.07
			v-77.67c0-9.46,3.33-17.5,9.99-24.13C696.24,646.11,704.23,642.8,713.54,642.8z"/>
	</g>
	<g>
		<path class="st0" d="M116.63,481.48c0-3.71-1.12-6.7-3.35-8.97c-2.23-2.27-5.21-3.41-8.91-3.41H91.42v45.53h12.94
			c3.41,0,6.3-1.21,8.69-3.63c2.38-2.42,3.58-5.34,3.58-8.74V481.48z M103.8,447.19c10.45,0,18.77,3.29,24.98,9.88
			c5.75,6.28,8.63,14.31,8.63,24.07v20.67c0,9.39-3.28,17.41-9.82,24.07c-6.55,6.66-14.48,9.99-23.79,9.99H91.42v53.59H69.96V447.19
			H103.8z"/>
		<path class="st0" d="M154.55,589.46V447.08h61.09v21.57h-39.63v38.83h28.95v21.57h-28.95v38.83h39.63v21.57H154.55z"/>
		<path class="st0" d="M277.06,481.48c0-8.25-4.09-12.38-12.26-12.38h-12.94v45.53h12.94c3.41,0,6.3-1.21,8.69-3.63
			c2.38-2.42,3.58-5.34,3.58-8.74V481.48z M264.23,447.19c11.96,0,20.74,3.29,26.34,9.88c4.92,5.75,7.38,13.78,7.38,24.07v20.67
			c0,10.07-3.82,18.58-11.47,25.55l15.89,62.11h-23.21l-13.01-53.59c-0.61,0-1.25,0-1.93,0h-12.38v53.59H230.4V447.19H264.23z"/>
		<path class="st0" d="M384.48,554.04c0.15,9.92-2.42,18.39-7.72,25.43c-3.48,4.77-8.4,8.14-14.76,10.11
			c-3.41,1.06-7.38,1.59-11.92,1.59c-8.4,0-15.37-2.08-20.89-6.25c-4.62-3.41-8.27-8.04-10.96-13.91
			c-2.69-5.87-4.26-12.58-4.71-20.15l20.44-1.48c0.91,8.29,3.1,14.3,6.59,18.03c2.57,2.82,5.52,4.15,8.86,4
			c4.69-0.15,8.44-2.46,11.24-6.93c1.44-2.2,2.16-5.34,2.16-9.43c0-5.91-2.69-11.78-8.06-17.62c-4.24-4.01-10.6-10.04-19.08-18.07
			c-7.12-6.89-12.15-13.07-15.1-18.53c-3.18-6.14-4.77-12.8-4.77-20c0-12.95,4.35-22.77,13.06-29.44
			c5.37-4.01,12.04-6.02,19.98-6.02c7.64,0,14.19,1.7,19.64,5.11c4.24,2.65,7.66,6.36,10.28,11.13c2.61,4.77,4.18,10.26,4.71,16.46
			l-20.55,3.75c-0.61-5.83-2.27-10.37-5-13.63c-1.97-2.35-4.81-3.52-8.52-3.52c-3.94,0-6.93,1.74-8.97,5.22
			c-1.67,2.8-2.5,6.28-2.5,10.45c0,6.51,2.8,13.13,8.4,19.87c2.12,2.57,5.3,5.6,9.54,9.08c5,4.16,8.29,7.08,9.88,8.74
			c5.3,5.3,9.38,10.52,12.26,15.67c1.36,2.42,2.46,4.66,3.29,6.7C383.34,545.48,384.4,550.02,384.48,554.04z"/>
		<path class="st0" d="M447.61,478.98c0-3.41-1.19-6.3-3.58-8.69c-2.39-2.38-5.28-3.58-8.69-3.58c-3.41,0-6.32,1.19-8.74,3.58
			c-2.42,2.38-3.63,5.28-3.63,8.69v77.89c0,3.41,1.21,6.3,3.63,8.69c2.42,2.38,5.34,3.58,8.74,3.58c3.41,0,6.3-1.19,8.69-3.58
			c2.38-2.38,3.58-5.28,3.58-8.69V478.98z M435.91,445.37c9.46,0,17.5,3.33,24.13,9.99c6.62,6.66,9.94,14.69,9.94,24.07v77.67
			c0,9.46-3.33,17.51-9.99,24.13c-6.66,6.62-14.69,9.93-24.07,9.93c-9.46,0-17.49-3.33-24.07-9.99c-6.59-6.66-9.88-14.68-9.88-24.07
			v-77.67c0-9.46,3.33-17.5,9.99-24.13C418.61,448.68,426.6,445.37,435.91,445.37z"/>
		<path class="st0" d="M512.91,447.08l28.48,95.69v-95.69h21.46v142.39H539.8l-29.52-91.18v91.18h-21.46V447.08H512.91z"/>
		<path class="st0" d="M619.62,479.78l-7.95,56.09h15.9L619.62,479.78z M608.35,556.76l-5.21,32.7h-22.35l24.19-142.27h29.52
			l23.84,142.27h-22.56l-5.02-32.7H608.35z"/>
		<path class="st0" d="M734.87,589.46h-58.48V447.19h21.46v120.93h37.01V589.46z"/>
		<path class="st0" d="M108.45,673.33c0-3.71-1.12-6.7-3.35-8.97c-2.23-2.27-5.21-3.41-8.91-3.41H83.24v45.53h12.94
			c3.41,0,6.3-1.21,8.69-3.63c2.38-2.42,3.58-5.34,3.58-8.74V673.33z M95.62,639.04c10.45,0,18.77,3.29,24.98,9.88
			c5.75,6.28,8.63,14.31,8.63,24.07v20.66c0,9.39-3.28,17.41-9.82,24.07c-6.55,6.66-14.48,9.99-23.79,9.99H83.24v53.59H61.78V639.04
			H95.62z"/>
		<path class="st0" d="M189.63,670.83c0-3.41-1.19-6.3-3.58-8.68c-2.38-2.39-5.28-3.58-8.69-3.58c-3.41,0-6.32,1.19-8.74,3.58
			c-2.42,2.38-3.63,5.28-3.63,8.68v77.89c0,3.41,1.21,6.3,3.63,8.69c2.42,2.39,5.34,3.58,8.74,3.58c3.41,0,6.3-1.19,8.69-3.58
			c2.38-2.38,3.58-5.28,3.58-8.69V670.83z M177.94,637.22c9.46,0,17.5,3.33,24.13,9.99c6.62,6.66,9.93,14.69,9.93,24.07v77.67
			c0,9.46-3.33,17.5-9.99,24.13c-6.66,6.63-14.69,9.94-24.07,9.94c-9.46,0-17.49-3.33-24.07-9.99c-6.59-6.66-9.88-14.68-9.88-24.07
			v-77.67c0-9.46,3.33-17.5,9.99-24.13C160.64,640.53,168.63,637.22,177.94,637.22z"/>
		<path class="st0" d="M277.63,673.33c0-8.25-4.09-12.38-12.26-12.38h-12.94v45.53h12.94c3.41,0,6.3-1.21,8.69-3.63
			c2.38-2.42,3.58-5.34,3.58-8.74V673.33z M264.8,639.04c11.96,0,20.74,3.29,26.34,9.88c4.92,5.75,7.38,13.78,7.38,24.07v20.66
			c0,10.07-3.82,18.58-11.47,25.55l15.89,62.11h-23.21l-13.01-53.59c-0.61,0-1.25,0-1.93,0h-12.38v53.59h-21.46V639.04H264.8z"/>
		<path class="st0" d="M337.13,660.61H314.3v-21.57h66.99v21.57h-22.71v120.7h-21.46V660.61z"/>
		<path class="st0" d="M420.01,781.31h-21.46V638.92h61.09v21.57h-39.63v38.83h28.95v21.57h-28.95V781.31z"/>
		<path class="st0" d="M520.05,670.83c0-3.41-1.19-6.3-3.58-8.68c-2.39-2.39-5.28-3.58-8.69-3.58c-3.41,0-6.32,1.19-8.74,3.58
			c-2.42,2.38-3.63,5.28-3.63,8.68v77.89c0,3.41,1.21,6.3,3.63,8.69c2.42,2.39,5.34,3.58,8.74,3.58c3.41,0,6.3-1.19,8.69-3.58
			c2.38-2.38,3.58-5.28,3.58-8.69V670.83z M508.35,637.22c9.46,0,17.5,3.33,24.13,9.99c6.62,6.66,9.94,14.69,9.94,24.07v77.67
			c0,9.46-3.33,17.5-9.99,24.13c-6.66,6.63-14.69,9.94-24.07,9.94c-9.46,0-17.49-3.33-24.07-9.99c-6.59-6.66-9.88-14.68-9.88-24.07
			v-77.67c0-9.46,3.33-17.5,9.99-24.13S499.04,637.22,508.35,637.22z"/>
		<path class="st0" d="M619.85,781.31h-58.48V639.04h21.46v120.93h37.01V781.31z"/>
		<path class="st0" d="M656.07,781.31h-21.46V639.04h21.46V781.31z"/>
		<path class="st0" d="M720.68,670.83c0-3.41-1.19-6.3-3.58-8.68c-2.39-2.39-5.28-3.58-8.69-3.58c-3.41,0-6.32,1.19-8.74,3.58
			c-2.42,2.38-3.63,5.28-3.63,8.68v77.89c0,3.41,1.21,6.3,3.63,8.69c2.42,2.39,5.34,3.58,8.74,3.58c3.41,0,6.3-1.19,8.69-3.58
			c2.38-2.38,3.58-5.28,3.58-8.69V670.83z M708.99,637.22c9.46,0,17.5,3.33,24.13,9.99c6.62,6.66,9.94,14.69,9.94,24.07v77.67
			c0,9.46-3.33,17.5-9.99,24.13c-6.66,6.63-14.69,9.94-24.07,9.94c-9.46,0-17.49-3.33-24.07-9.99c-6.59-6.66-9.88-14.68-9.88-24.07
			v-77.67c0-9.46,3.33-17.5,9.99-24.13S699.67,637.22,708.99,637.22z"/>
	</g>
</g>
</svg>
