<?xml version="1.0" encoding="utf-8"?>
<!-- Generator: Adobe Illustrator 22.1.0, SVG Export Plug-In . SVG Version: 6.00 Build 0)  -->
<!DOCTYPE svg PUBLIC "-//W3C//DTD SVG 1.1//EN" "http://www.w3.org/Graphics/SVG/1.1/DTD/svg11.dtd" [
	<!ENTITY st0 "fill:#FEA600;">
]>
<svg version="1.1" id="Layer_1" xmlns="http://www.w3.org/2000/svg" xmlns:xlink="http://www.w3.org/1999/xlink" x="0px" y="0px"
	 viewBox="0 0 168.3 168.3" style="enable-background:new 0 0 168.3 168.3;" xml:space="preserve">
<path style="&st0;" d="M42.5,77.1l-3.7,21.1h-14l3.3-18.7c0.6-3.5,0.2-6.6-3.8-6.6c-4.3,0-6,2.8-6.7,7.3l-3.2,18h-14L6.6,63h12.8
	l-1,5.5c3.9-4.2,7.8-6.5,13.1-6.5C40.8,62,44.3,67.4,42.5,77.1z"/>
<path style="&st0;" d="M60.2,99.3c-8.1,0-16.5-2.5-15.6-12h13.3c-0.3,1.4,0.1,2.5,0.9,3.2c0.8,0.7,1.9,1.1,3.2,1.1
	c2.2,0,4.6-0.7,5-3.2c1-5.7-21.4-1.1-19-14.8c1.6-9,11.4-11.6,18.7-11.6c7.7,0,16.4,1.7,15.6,11.1H69.7c0.1-1.2-0.2-2-0.9-2.6
	c-0.6-0.6-1.6-0.9-2.7-0.9c-2.4,0-4.1,0.7-4.4,2.5c-0.9,4.9,22,1.6,19.7,14.8C80.1,94.3,73.1,99.3,60.2,99.3"/>
<path style="&st0;" d="M102,99.3c-11.4,0-19-6.4-16.9-18.3c2.1-12.1,11.8-19,23.5-19c9.4,0,17.6,4,16.8,14.5h-14.2
	c0.2-1.6-0.1-2.8-0.8-3.6c-0.7-0.9-1.8-1.4-3.4-1.4c-5.2,0-7.1,5.5-7.8,9.6c-0.9,5.3,0.5,8.8,4.6,8.8c3.6,0,5.5-2.5,6.4-5.2h14.1
	c-1.5,5.3-4.6,9-8.6,11.4C111.7,98.3,106.9,99.3,102,99.3"/>
<path style="&st0;" d="M144.3,99.3c-11.4,0-19-6.4-16.9-18.3c2.1-12.1,11.8-19,23.5-19c9.4,0,17.6,4,16.8,14.5h-14.2
	c0.2-1.6-0.1-2.8-0.8-3.6c-0.7-0.9-1.9-1.4-3.4-1.4c-5.2,0-7.1,5.5-7.8,9.6c-1,5.3,0.5,8.8,4.6,8.8c3.6,0,5.5-2.5,6.4-5.2h14.2
	c-1.5,5.3-4.6,9-8.6,11.4C153.9,98.3,149.2,99.3,144.3,99.3"/>
</svg>
