<?xml version="1.0" encoding="utf-8"?>
<!-- Generator: Adobe Illustrator 22.1.0, SVG Export Plug-In . SVG Version: 6.00 Build 0)  -->
<!DOCTYPE svg PUBLIC "-//W3C//DTD SVG 1.1//EN" "http://www.w3.org/Graphics/SVG/1.1/DTD/svg11.dtd" [
	<!ENTITY st0 "fill:#ED6731;">
]>
<svg version="1.1" id="Layer_1" xmlns="http://www.w3.org/2000/svg" xmlns:xlink="http://www.w3.org/1999/xlink" x="0px" y="0px"
	 viewBox="0 0 281.7 105.1" style="enable-background:new 0 0 281.7 105.1;" xml:space="preserve">
<g id="ySVxJ1.tif">
	<g>
		<path style="&st0;" d="M251.4,57.5c2-0.4,3.9-1,5.9-1.5c1.3-0.3,2.6-0.7,3.9-1c0.9-0.2,1.7-0.1,2.4,0.5c0.4,0.3,0.6,0.7,0.5,1.2
			c-0.1,0.5-0.5,0.7-1,0.8c-3.9,1-7.7,2-11.6,3c-0.4,0.1-0.6,0.3-0.8,0.8c-3.5,14-6.7,28.1-10.4,42.1c-0.1,0.5-0.3,0.6-0.8,0.6
			c-1.7,0-3.3,0-5,0c-0.8,0-0.8,0-0.6-0.7c1-3.7,1.9-7.4,2.9-11.1c0.1-0.5,0.1-0.9,0-1.4c-2.5-10.1-5-20.2-7.6-30.3
			c-0.3-1.1,0.1-1.5,1.2-1.5c1.3,0,2.6,0,4,0c0.8,0,1.1,0.2,1.3,1c1.5,6.7,2.9,13.4,4.4,20.1c0,0.2,0.1,0.4,0.2,0.7
			c0.5-1.6,0.9-3.1,1.3-4.6c1.5-5.3,3-10.5,4.5-15.8c0.1-0.5,0.1-0.8-0.2-1.2c-2.6-3.1-5.3-6.3-7.9-9.4c-0.1-0.1-0.3-0.3-0.4-0.4
			c-0.5-0.7-0.2-1.4,0.6-1.6c1-0.2,1.9,0.1,2.6,0.9c2,2.4,4.1,4.9,6.1,7.3c0.1,0.2,0.2,0.4,0.5,0.5c0.1-0.4,0.2-0.7,0.4-1.1
			c0.1-0.3-0.1-0.5-0.3-0.7c-2.7-3.2-5.4-6.5-8.1-9.7c-0.1-0.1-0.2-0.2-0.2-0.3c-0.6-0.8-0.2-1.6,0.8-1.7c1-0.1,1.8,0.2,2.5,1
			c2,2.4,4.1,4.9,6.1,7.3c0.1,0.1,0.2,0.3,0.4,0.5c0.1-0.4,0.3-0.8,0.4-1.2c0.1-0.3-0.1-0.5-0.3-0.7c-2-2.4-4.1-4.8-6.1-7.2
			c-1.6-1.9-3.1-3.8-4.2-6.1c-1-2.1-1.1-4.3-0.4-6.5c2.4-7.5,4.8-15.1,7.2-22.6c1-3.1,3.2-4.9,6.1-6.1c3.8-1.5,7.8-1.6,11.8-0.8
			c4.4,0.8,8.4,2.5,12,5.2c2.4,1.9,4.4,4.1,5.5,6.9c0.7,1.9,0.9,3.9,0.2,5.9c-2.4,7.6-4.9,15.1-7.3,22.7c-0.9,3-3,4.8-5.8,5.9
			c-2.8,1.1-5.7,1.8-8.5,2.5c-1.9,0.5-3.8,1-5.7,1.4c-0.7,0.1-1,0.4-1.1,1.1c0,0.2-0.1,0.4-0.2,0.6c1.5-0.4,2.9-0.7,4.2-1.1
			c1.9-0.5,3.8-1,5.7-1.5c0.8-0.2,1.5-0.1,2.1,0.3c0.5,0.3,0.9,0.7,0.8,1.3c-0.1,0.6-0.6,0.8-1.1,0.9c-3.9,1-7.8,2.1-11.8,3.1
			C251.8,56,251.4,56.5,251.4,57.5C251.3,57.5,251.3,57.5,251.4,57.5C251.3,57.6,251.4,57.5,251.4,57.5z M254.3,48
			c1.6-0.4,3.2-0.8,4.7-1.2c2.6-0.7,5.2-1.3,7.6-2.4c2-0.9,3.3-2.4,4-4.5c2.3-7.4,4.7-14.8,7.1-22.1c0.8-2.5,0.5-4.7-0.8-6.8
			c-1.9-3-4.7-5-7.9-6.4c-0.5-0.2-0.6-0.1-0.8,0.3c-3,9.3-6,18.7-9,28C257.5,37.9,255.9,42.9,254.3,48z M250.7,46.9
			c0.1-0.2,0.1-0.4,0.2-0.5c1.7-5.1,3.3-10.3,5-15.4c0.2-0.5,0.1-0.8-0.2-1.2c-2.7-3.3-5.4-6.5-8.2-9.8c-0.4-0.5-0.8-0.9-1.2-1.4
			c-0.1,0.3-0.2,0.4-0.2,0.6c-1.3,3.9-2.5,7.8-3.8,11.7c-0.8,2.2-0.5,4.3,0.7,6.3C245,40.7,248,43.6,250.7,46.9z M259.4,19.5
			c1.7-5.4,3.4-10.6,5.1-15.9c0.1-0.4,0-0.5-0.3-0.5c-3.2-0.6-6.4-0.7-9.6,0.4c-2,0.7-3.7,1.8-4.8,3.7c-0.2,0.4-0.2,0.6,0.1,1
			c1.3,1.5,2.6,3.1,3.8,4.6c0.3,0.3,0.5,0.7,0.3,1.2c-0.2,0.5-0.6,0.6-1.1,0.7c-0.9,0.1-1.7-0.3-2.3-1c-0.7-0.8-1.4-1.6-2.1-2.5
			c-0.4,1.3-0.8,2.5-1.2,3.6c-0.1,0.4,0,0.6,0.2,0.8c3,3.7,6.1,7.3,9.1,11c0.1,0.1,0.2,0.3,0.4,0.3c0.4-1.1,0.7-2.3,1.1-3.4
			c0.1-0.4,0.1-0.6-0.2-1c-1.3-1.5-2.5-3-3.8-4.6c-0.3-0.4-0.5-0.7-0.3-1.2c0.2-0.5,0.7-0.7,1.2-0.7c0.9,0,1.7,0.3,2.2,1
			C258,17.8,258.7,18.6,259.4,19.5z"/>
		<path style="&st0;" d="M139.7,66c0-8.3,0-16.7,0-25c0-1.2,0.3-1.5,1.5-1.5c5.4,0,10.7,0,16.1,0c1.7,0,3.1,0.7,4.1,2.2
			c0.5,0.8,0.7,1.7,0.7,2.7c0,7,0,14.1,0,21.1c0,0.8,0,1.5,0,2.3c0,2.6-1.9,4.5-4.5,4.6c-3.4,0-6.9,0-10.3,0c-1,0-0.9-0.1-0.9,0.8
			c0,6,0,12,0,18c0,1.2-0.3,1.5-1.5,1.5c-1.3,0-2.5,0-3.8,0c-1,0-1.4-0.3-1.4-1.4C139.7,82.8,139.7,74.4,139.7,66z M146.3,55.9
			c0,3.3,0,6.6,0,9.8c0,0.5,0.1,0.6,0.6,0.6c2.7,0,5.4,0,8,0c0.5,0,0.6-0.1,0.6-0.6c0-6.6,0-13.1,0-19.7c0-0.4-0.1-0.6-0.6-0.6
			c-2.7,0-5.3,0-8,0c-0.5,0-0.7,0.1-0.7,0.7C146.3,49.4,146.3,52.7,146.3,55.9z"/>
		<path style="&st0;" d="M0,66.1C0,57.7,0,49.3,0,41c0-1.2,0.3-1.5,1.5-1.5c5.4,0,10.7,0,16.1,0c1.7,0,3.1,0.6,4.1,2.2
			c0.4,0.7,0.7,1.5,0.7,2.3c0,8,0,16,0,23.9c0,2.5-1.9,4.4-4.5,4.5c-3.5,0-7,0-10.5,0c-0.6,0-0.7,0.1-0.7,0.7c0,6,0,12,0,18.1
			c0,1.3-0.3,1.5-1.5,1.5c-1.2,0-2.5,0-3.7,0c-1.1,0-1.4-0.3-1.4-1.4C0,82.9,0,74.5,0,66.1z M15.8,56c0-3.3,0-6.5,0-9.8
			c0-0.5-0.1-0.6-0.6-0.6c-2.7,0-5.3,0-8,0c-0.5,0-0.6,0.1-0.6,0.6c0,6.5,0,13.1,0,19.6c0,0.5,0.1,0.6,0.6,0.6c2.7,0,5.4,0,8,0
			c0.5,0,0.6-0.2,0.6-0.7C15.8,62.4,15.8,59.2,15.8,56z"/>
		<path style="&st0;" d="M47.1,77.3c0,4.6,0,9.2,0,13.8c0,1.2-0.3,1.5-1.5,1.5c-1.2,0-2.4,0-3.6,0c-0.4,0-0.8-0.1-1-0.5
			c-0.2-0.3-0.5-0.2-0.7-0.2c-1.9,0.2-3.7,0.5-5.6,0.7c-1.4,0.1-2.8,0.3-4.2,0.1c-2-0.3-3.2-1.5-3.4-3.5c0-0.4-0.1-0.8-0.1-1.3
			c0-3.6,0-7.3,0-10.9c0-0.7,0-1.4,0.2-2.1c0.5-1.9,2.1-2.9,4.3-2.9c2.9,0,5.8,0,8.7,0c0.6,0,0.7-0.2,0.7-0.7c0-2.1,0-4.2,0-6.3
			c0-0.4-0.1-0.6-0.5-0.6c-2.1,0-4.2,0-6.3,0c-0.4,0-0.5,0.1-0.5,0.5c0,1.2,0,2.5,0,3.7c0,0.8-0.4,1.2-1.2,1.2c-1.3,0-2.6,0-4,0
			c-0.7,0-1.1-0.3-1.1-1c0-2.1-0.2-4.2,0.1-6.2c0.3-2.4,1.7-3.7,4.2-3.8c1.8-0.1,3.7,0,5.5,0c1.9,0,3.9,0,5.8,0c1.6,0,3,0.6,3.8,2.1
			c0.4,0.8,0.5,1.7,0.5,2.7C47.1,68.2,47.1,72.8,47.1,77.3z M33.1,82.2c0,1.4,0,2.7,0,4.1c0,0.5,0.2,0.6,0.6,0.6
			c2.2-0.1,4.4-0.1,6.6-0.1c0.4,0,0.5-0.1,0.5-0.5c0-2.8,0-5.5,0-8.3c0-0.4-0.1-0.5-0.5-0.5c-2.2,0-4.5,0-6.7,0
			c-0.5,0-0.6,0.2-0.6,0.6C33.1,79.4,33.1,80.8,33.1,82.2z"/>
		<path style="&st0;" d="M186.8,77.3c0,4.7,0,9.3,0,14c0,1-0.3,1.3-1.3,1.3c-1.3,0-2.6,0-3.8,0c-0.4,0-0.8-0.1-1-0.5
			c-0.2-0.3-0.5-0.2-0.7-0.2c-1.9,0.2-3.7,0.5-5.6,0.7c-1.4,0.1-2.7,0.3-4.1,0.1c-2.3-0.4-3.6-1.8-3.6-4.1c0-2.5,0-5,0-7.5
			c0-1.5,0-3.1,0-4.6c0-2.8,1.7-4.5,4.5-4.5c2.9,0,5.8,0,8.7,0c0.6,0,0.7-0.2,0.7-0.7c0-2.1,0-4.2,0-6.3c0-0.4-0.1-0.6-0.6-0.6
			c-2.1,0-4.2,0-6.3,0c-0.5,0-0.6,0.1-0.6,0.6c0,1.2,0,2.4,0,3.6c0,0.9-0.3,1.2-1.2,1.2c-1.3,0-2.6,0-3.8,0c-0.8,0-1.2-0.3-1.2-1.2
			c0-1.8,0-3.6,0-5.4c0-0.8,0.1-1.7,0.5-2.4c0.8-1.5,2.2-2.1,3.8-2.1c1.9,0,3.7,0,5.6,0c1.9,0,3.7,0,5.6,0c1.6,0,3,0.6,3.8,2.1
			c0.4,0.8,0.6,1.6,0.6,2.5C186.8,68.1,186.8,72.7,186.8,77.3z M172.8,82.2c0,1.4,0,2.8,0,4.1c0,0.5,0.1,0.6,0.6,0.6
			c2.2-0.1,4.4-0.1,6.6-0.1c0.4,0,0.5-0.1,0.5-0.5c0-2.7,0-5.5,0-8.2c0-0.4-0.1-0.5-0.5-0.5c-2.2,0-4.4,0-6.6,0
			c-0.5,0-0.6,0.2-0.6,0.6C172.8,79.4,172.8,80.8,172.8,82.2z"/>
		<path style="&st0;" d="M117,75.8c0,3.9,0,7.8,0,11.7c0,0.4,0,0.9-0.1,1.3c-0.3,2.5-1.8,3.8-4.3,3.8c-1.7,0-3.4,0-5.2,0
			c-2.2,0-4.3,0-6.5,0c-1.6,0-3-0.6-3.8-2.1c-0.4-0.8-0.5-1.6-0.5-2.5c0-8.2,0-16.3,0-24.5c0-0.9,0.1-1.7,0.6-2.5
			c0.8-1.5,2.1-2,3.7-2.1c1.6-0.1,3.1,0,4.7,0c2.2,0,4.4,0,6.6,0c0.6,0,1.3,0,1.9,0.2c1.9,0.6,2.9,2,2.9,4.4
			C117,67.6,117,71.7,117,75.8C117,75.8,117,75.8,117,75.8z M103,75.7c0,3.5,0,7,0,10.5c0,0.5,0.1,0.6,0.6,0.6c2.1,0,4.3,0,6.4,0
			c0.4,0,0.6-0.1,0.6-0.6c0-7,0-14,0-21c0-0.5-0.1-0.6-0.6-0.6c-2.1,0-4.3,0-6.4,0c-0.5,0-0.6,0.2-0.6,0.6
			C103,68.8,103,72.3,103,75.7z"/>
		<path style="&st0;" d="M123.7,76.8c0-3.8,0-7.7,0-11.5c0-0.5-0.1-0.7-0.6-0.6c-0.7,0-1.4,0-2,0c-0.8,0-1.2-0.4-1.2-1.1
			c0-1.2,0-2.4,0-3.6c0-0.7,0.4-1.1,1.1-1.1c0.7,0,1.4,0,2.1,0c0.5,0,0.6-0.2,0.6-0.6c0-2.6,0-5.2,0-7.8c0-1.1,0.3-1.4,1.4-1.4
			c1.2,0,2.4,0,3.6,0c0.9,0,1.3,0.4,1.3,1.3c0,2.7,0,5.3,0,8c0,0.5,0.1,0.7,0.6,0.6c1.2,0,2.5,0,3.7,0c0.9,0,1.2,0.3,1.2,1.2
			c0,1.1,0,2.3,0,3.4c0,0.8-0.4,1.2-1.2,1.2c-1.3,0-2.6,0-3.9,0c-0.4,0-0.5,0.1-0.5,0.5c0,7.1,0,14.1,0,21.2c0,0.4,0.2,0.5,0.5,0.5
			c1.3,0,2.6,0,3.8,0c0.9,0,1.2,0.3,1.2,1.2c0,1.1,0,2.3,0,3.4c0,0.8-0.4,1.2-1.2,1.2c-2,0-4.1,0-6.1,0c-3,0-4.6-1.7-4.6-4.6
			C123.7,84.2,123.7,80.5,123.7,76.8z"/>
		<path style="&st0;" d="M215.7,76.7c0-3.8,0-7.6,0-11.4c0-0.5-0.1-0.7-0.6-0.7c-0.7,0.1-1.4,0-2,0c-0.8,0-1.1-0.4-1.2-1.1
			c0-1.2,0-2.4,0-3.6c0-0.7,0.4-1.1,1.1-1.1c0.7,0,1.4,0,2.2,0c0.4,0,0.6-0.1,0.6-0.6c0-2.7,0-5.3,0-8c0-1.1,0.3-1.4,1.4-1.4
			c1.2,0,2.4,0,3.6,0c0.9,0,1.2,0.4,1.2,1.2c0,2.7,0,5.3,0,8c0,0.5,0.1,0.7,0.7,0.7c1.2,0,2.5,0,3.7,0c0.8,0,1.2,0.4,1.2,1.2
			c0,1.1,0,2.3,0,3.4c0,0.9-0.4,1.2-1.2,1.2c-1.3,0-2.6,0-3.8,0c-0.4,0-0.5,0.1-0.5,0.5c0,7.1,0,14.1,0,21.2c0,0.4,0.1,0.5,0.5,0.5
			c1.3,0,2.6,0,3.9,0c0.8,0,1.2,0.4,1.2,1.2c0,1.2,0,2.3,0,3.5c0,0.8-0.4,1.1-1.1,1.1c-2.1,0-4.3,0-6.4,0c-2.7-0.1-4.3-1.7-4.3-4.4
			C215.7,84.4,215.7,80.5,215.7,76.7C215.7,76.7,215.7,76.7,215.7,76.7z"/>
		<path style="&st0;" d="M191.9,75.7c0-5.1,0-10.3,0-15.4c0-1.1,0.3-1.4,1.4-1.4c1.3,0,2.6,0,3.8,0c0.4,0,0.7,0,0.9,0.4
			c0.2,0.4,0.5,0.3,0.9,0.3c2.3-0.4,4.6-0.8,7-0.8c0.6,0,1.2,0,1.8,0.2c1.9,0.5,3,1.9,3,4.1c0,2.4,0,4.8,0,7.1
			c0,0.8-0.4,1.1-1.2,1.2c-1.3,0-2.6,0-4,0c-0.8,0-1.2-0.4-1.2-1.2c0-1.6,0-3.2,0-4.8c0-0.5-0.1-0.6-0.6-0.6
			c-1.6,0.1-3.2,0.1-4.8,0.2c-0.5,0-0.6,0.2-0.6,0.7c0,8.5,0,17.1,0,25.6c0,1.2-0.3,1.4-1.4,1.4c-1.2,0-2.4,0-3.6,0
			c-1,0-1.3-0.3-1.3-1.3C191.9,86.1,191.9,80.9,191.9,75.7z"/>
		<path style="&st0;" d="M80.8,78.5c0,4.3,0,8.6,0,12.8c0,1-0.3,1.3-1.3,1.3c-1.3,0-2.5,0-3.8,0c-0.9,0-1.3-0.3-1.3-1.3
			c0-10.4,0-20.8,0-31.3c0-0.9,0.4-1.2,1.2-1.2c1.3,0,2.6,0,4,0c0.4,0,0.8,0,1,0.4c0.2,0.4,0.5,0.3,0.8,0.2c2.3-0.4,4.7-0.8,7-0.8
			c0.6,0,1.2,0.1,1.7,0.2c1.9,0.5,3,1.9,3,4.1c0.1,2.4,0,4.8,0,7.1c0,0.8-0.4,1.2-1.2,1.2c-1.3,0-2.6,0-3.9,0
			c-0.9,0-1.2-0.4-1.2-1.2c0-1.6,0-3.1,0-4.7c0-0.4-0.1-0.6-0.6-0.6c-1.6,0.1-3.2,0.1-4.8,0.2c-0.5,0-0.6,0.1-0.6,0.7
			C80.8,69.9,80.8,74.2,80.8,78.5z"/>
		<path style="&st0;" d="M52.2,75.7c0-5.1,0-10.3,0-15.4c0-1.1,0.3-1.4,1.4-1.4c1.3,0,2.5,0,3.8,0c0.4,0,0.9,0.1,1.1,0.5
			c0.2,0.3,0.5,0.2,0.7,0.1c2.3-0.4,4.7-0.8,7-0.8c0.6,0,1.1,0.1,1.6,0.2c1.7,0.4,2.9,1.6,3,3.4c0.2,2.7,0.1,5.4,0.1,8
			c0,0.6-0.4,1-1.1,1c-1.4,0-2.7,0-4.1,0c-0.8,0-1.1-0.4-1.1-1.2c0-1.6,0-3.2,0-4.9c0-0.4-0.1-0.5-0.5-0.5c-1.6,0.1-3.2,0.1-4.8,0.2
			c-0.5,0-0.6,0.2-0.6,0.7c0,8.5,0,17,0,25.5c0,1.2-0.3,1.5-1.5,1.5c-1.2,0-2.5,0-3.7,0c-0.9,0-1.2-0.4-1.2-1.2
			C52.2,86.1,52.2,80.9,52.2,75.7z"/>
	</g>
</g>
</svg>
