<?xml version="1.0" encoding="utf-8"?>
<!-- Generator: Adobe Illustrator 22.1.0, SVG Export Plug-In . SVG Version: 6.00 Build 0)  -->
<!DOCTYPE svg PUBLIC "-//W3C//DTD SVG 1.1//EN" "http://www.w3.org/Graphics/SVG/1.1/DTD/svg11.dtd" [
	<!ENTITY st0 "fill:#FAA61B;">
	<!ENTITY st1 "fill:#D68434;">
	<!ENTITY st2 "fill:#BC7D38;">
	<!ENTITY st3 "fill:none;">
	<!ENTITY st4 "fill:#363636;">
	<!ENTITY st5 "font-family:'LemonMilkbold';">
	<!ENTITY st6 "font-size:48.2822px;">
	<!ENTITY st7 "font-family:'ProximaNovaT-Thin';">
	<!ENTITY st8 "font-size:39.0367px;">
	<!ENTITY st9 "fill:none;stroke:#363636;stroke-miterlimit:10;">
]>
<svg version="1.1" id="Layer_1" xmlns="http://www.w3.org/2000/svg" xmlns:xlink="http://www.w3.org/1999/xlink" x="0px" y="0px"
	 viewBox="0 0 223.8 180.9" style="enable-background:new 0 0 223.8 180.9;" xml:space="preserve">
<g>
	<g>
		<g>
			<polygon style="&st0;" points="114.3,96.2 133.5,96.2 163.6,33.3 176.3,39.3 168.6,3.2 135.6,19.9 148,25.8 			"/>
		</g>
		<g>
			<polygon style="&st1;" points="86,96.2 101.1,96.2 119.7,57.3 129.7,62.1 123.6,33.7 97.7,46.8 107.4,51.5 			"/>
		</g>
		<g>
			<polygon style="&st2;" points="64.2,96.2 75.9,96.2 86.2,74.5 94,78.2 89.3,56.3 69.2,66.4 76.7,70 			"/>
		</g>
	</g>
	<rect x="-2.9" y="104.9" style="&st3;" width="241.5" height="62.4"/>
	<text transform="matrix(1 0 0 1 -2.8586 142.876)" style="&st4; &st5; &st6;">Provide</text>
	<rect x="66.5" y="150.2" style="&st3;" width="86.1" height="34"/>
	<text transform="matrix(1 0 0 1 66.5159 176.271)" style="&st4; &st7; &st8;">Flow</text>
	<line style="&st9;" x1="-0.7" y1="96.2" x2="222.6" y2="96.2"/>
</g>
</svg>
