<?xml version="1.0" encoding="utf-8"?>
<!-- Generator: Adobe Illustrator 22.1.0, SVG Export Plug-In . SVG Version: 6.00 Build 0)  -->
<svg version="1.1" id="Layer_1" xmlns="http://www.w3.org/2000/svg" xmlns:xlink="http://www.w3.org/1999/xlink" x="0px" y="0px"
	 width="223.8px" height="180.9px" viewBox="0 0 223.8 180.9" style="enable-background:new 0 0 223.8 180.9;" xml:space="preserve"
	>
<style type="text/css">
	.st0{fill:#FAA61B;}
	.st1{fill:#D68434;}
	.st2{fill:#BC7D38;}
	.st3{fill:none;}
	.st4{enable-background:new    ;}
	.st5{fill:#363636;}
	.st6{fill:none;stroke:#363636;stroke-miterlimit:10;}
</style>
<g>
	<g>
		<g>
			<polygon class="st0" points="114.3,96.2 133.5,96.2 163.6,33.3 176.3,39.3 168.6,3.2 135.6,19.9 148,25.8 			"/>
		</g>
		<g>
			<polygon class="st1" points="86,96.2 101.1,96.2 119.7,57.3 129.7,62.1 123.6,33.7 97.7,46.8 107.4,51.5 			"/>
		</g>
		<g>
			<polygon class="st2" points="64.2,96.2 75.9,96.2 86.2,74.5 94,78.2 89.3,56.3 69.2,66.4 76.7,70 			"/>
		</g>
	</g>
	<rect x="-2.9" y="104.9" class="st3" width="241.5" height="62.4"/>
	<g class="st4">
		<path class="st5" d="M-0.5,142.9v-38h15c4.3,0,8,1.4,10.8,4c2.8,2.7,4.2,6,4.2,9.7c0,3.8-1.4,7.1-4.2,9.7c-2.9,2.6-6.7,4-11.1,4
			H8.8v10.6H-0.5z M14.5,114.1H9.1v9l5.4,0c2.7,0,5.4-1.9,5.4-4.5C19.9,116,17.2,114.1,14.5,114.1z"/>
		<path class="st5" d="M32.8,142.9l0-38h13.9c2.3,0,4.5,0.3,6.6,1c1.9,0.6,3.5,1.6,4.9,3c2.4,2.3,3.9,4.6,3.9,8.8v0.9
			c0,2.6-0.9,5.1-2.6,7.4c-1.2,1.6-2.2,2.5-4,3.3l9.1,13.6H53.4L42.1,128v14.8H32.8z M52.5,118.4c0-1.2-0.5-2.2-1.5-3.1
			c-1-0.8-3.1-1.3-4.8-1.3h-4.1v8.8h3.4v0h2C50.1,123,52.5,121,52.5,118.4z"/>
		<path class="st5" d="M84.5,104.6c5.8,0,10.2,1.9,14.3,5.7c3.9,3.8,5.9,8.4,5.9,13.6c0,5.3-2,9.9-5.9,13.6
			c-4.1,3.7-8.5,5.6-14.3,5.6c-5.9,0-10.2-1.9-14.3-5.6c-3.9-3.8-5.9-8.3-5.9-13.6c0-5.3,2-9.9,5.9-13.6
			C74.3,106.5,78.6,104.6,84.5,104.6z M84.5,113.9c-3.2,0-5.1,1-7.3,2.9c-2.2,2-3.3,4.3-3.3,7c0,2.8,1.1,5.1,3.3,7
			c2.2,1.9,4.2,2.9,7.3,2.9c3.1,0,5-0.9,7.3-2.9c2.3-1.9,3.4-4.2,3.4-7c0-2.7-1.1-5-3.4-7C89.5,114.9,87.6,113.9,84.5,113.9z"/>
		<path class="st5" d="M141.7,104.9l-18.3,38h-2l-18.2-38h9.9l9.3,19.6l9.3-19.6H141.7z"/>
		<path class="st5" d="M145,142.9v-38h9.3v38H145z"/>
		<path class="st5" d="M170.7,104.9L170.7,104.9l0.8,0c6.7,0,12.3,2.3,16.1,5.6c3.6,3.4,5.3,8,5.3,13.4s-1.8,10-5.3,13.4
			c-4.7,3.7-10.7,5.6-17.8,5.6H159v-38H170.7z M171.6,114.1h-2.4l0.1,19.5h1c7.5,0,12.3-3.3,13.1-9.8
			C183.4,117.5,178.2,114.1,171.6,114.1z"/>
		<path class="st5" d="M196.3,104.8h26.2v9.3h-16.5v5.2h12.7v9.3h-12.7v5.2h16.5v9.2h-26.2V104.8z"/>
	</g>
	<rect x="66.5" y="150.2" class="st3" width="86.1" height="34"/>
	<g class="st4">
		<path class="st5" d="M70,176.3v-26h15.9v1.2H71.2v10.9h14.4v1.2H71.2v12.8H70z"/>
		<path class="st5" d="M90.7,176.3v-26h1.2v26H90.7z"/>
		<path class="st5" d="M97.5,166.8c0-5.5,3.5-9.9,8.8-9.9c5.3,0,8.8,4.3,8.8,9.9c0,5.5-3.4,9.9-8.8,9.9
			C101,176.7,97.5,172.4,97.5,166.8z M113.8,166.8c0-4.6-2.7-8.8-7.5-8.8c-4.8,0-7.5,4.3-7.5,8.8c0,4.6,2.7,8.9,7.5,8.9
			C111.2,175.7,113.8,171.4,113.8,166.8z"/>
		<path class="st5" d="M136.9,176.3l-5.7-17.1l-5.7,17.1h-0.9l-6.2-18.9h1.3l5.5,17l5.7-17h0.9l5.7,17l5.5-17h1.3l-6.2,18.9H136.9z"
			/>
	</g>
	<line class="st6" x1="-0.7" y1="96.2" x2="222.6" y2="96.2"/>
</g>
</svg>
